%TF.GenerationSoftware,KiCad,Pcbnew,(5.1.9)-1*%
%TF.CreationDate,2021-06-24T13:15:50+01:00*%
%TF.ProjectId,board,626f6172-642e-46b6-9963-61645f706362,rev?*%
%TF.SameCoordinates,Original*%
%TF.FileFunction,Copper,L2,Bot*%
%TF.FilePolarity,Positive*%
%FSLAX46Y46*%
G04 Gerber Fmt 4.6, Leading zero omitted, Abs format (unit mm)*
G04 Created by KiCad (PCBNEW (5.1.9)-1) date 2021-06-24 13:15:50*
%MOMM*%
%LPD*%
G01*
G04 APERTURE LIST*
%TA.AperFunction,ComponentPad*%
%ADD10C,2.100000*%
%TD*%
%TA.AperFunction,ComponentPad*%
%ADD11O,1.700000X1.700000*%
%TD*%
%TA.AperFunction,ComponentPad*%
%ADD12R,1.700000X1.700000*%
%TD*%
%TA.AperFunction,ComponentPad*%
%ADD13O,1.700000X1.950000*%
%TD*%
%TA.AperFunction,ComponentPad*%
%ADD14O,1.750000X1.200000*%
%TD*%
%TA.AperFunction,Conductor*%
%ADD15C,0.254000*%
%TD*%
%TA.AperFunction,Conductor*%
%ADD16C,0.100000*%
%TD*%
G04 APERTURE END LIST*
D10*
%TO.P,J7,2*%
%TO.N,GND*%
X78740000Y-144780000D03*
%TO.P,J7,1*%
%TO.N,VCC*%
%TA.AperFunction,ComponentPad*%
G36*
G01*
X73090000Y-145580000D02*
X73090000Y-143980000D01*
G75*
G02*
X73340000Y-143730000I250000J0D01*
G01*
X74940000Y-143730000D01*
G75*
G02*
X75190000Y-143980000I0J-250000D01*
G01*
X75190000Y-145580000D01*
G75*
G02*
X74940000Y-145830000I-250000J0D01*
G01*
X73340000Y-145830000D01*
G75*
G02*
X73090000Y-145580000I0J250000D01*
G01*
G37*
%TD.AperFunction*%
%TD*%
D11*
%TO.P,JP1,2*%
%TO.N,Net-(J1-Pad1)*%
X99060000Y-142240000D03*
D12*
%TO.P,JP1,1*%
%TO.N,GND*%
X99060000Y-144780000D03*
%TD*%
D11*
%TO.P,JP2,2*%
%TO.N,Net-(J2-Pad1)*%
X104140000Y-142240000D03*
D12*
%TO.P,JP2,1*%
%TO.N,GND*%
X104140000Y-144780000D03*
%TD*%
D11*
%TO.P,JP3,2*%
%TO.N,Net-(J3-Pad1)*%
X109220000Y-142240000D03*
D12*
%TO.P,JP3,1*%
%TO.N,GND*%
X109220000Y-144780000D03*
%TD*%
D11*
%TO.P,JP4,2*%
%TO.N,Net-(J4-Pad1)*%
X114300000Y-142240000D03*
D12*
%TO.P,JP4,1*%
%TO.N,GND*%
X114300000Y-144780000D03*
%TD*%
D11*
%TO.P,JP5,2*%
%TO.N,Net-(J5-Pad1)*%
X119380000Y-142240000D03*
D12*
%TO.P,JP5,1*%
%TO.N,GND*%
X119380000Y-144780000D03*
%TD*%
D11*
%TO.P,JP6,2*%
%TO.N,Net-(J6-Pad1)*%
X124460000Y-142240000D03*
D12*
%TO.P,JP6,1*%
%TO.N,GND*%
X124460000Y-144780000D03*
%TD*%
D13*
%TO.P,J8,7*%
%TO.N,Net-(J6-Pad1)*%
X119140000Y-129540000D03*
%TO.P,J8,6*%
%TO.N,Net-(J5-Pad1)*%
X116640000Y-129540000D03*
%TO.P,J8,5*%
%TO.N,Net-(J4-Pad1)*%
X114140000Y-129540000D03*
%TO.P,J8,4*%
%TO.N,Net-(J3-Pad1)*%
X111640000Y-129540000D03*
%TO.P,J8,3*%
%TO.N,Net-(J2-Pad1)*%
X109140000Y-129540000D03*
%TO.P,J8,2*%
%TO.N,Net-(J1-Pad1)*%
X106640000Y-129540000D03*
%TO.P,J8,1*%
%TO.N,VCC*%
%TA.AperFunction,ComponentPad*%
G36*
G01*
X103290000Y-130265000D02*
X103290000Y-128815000D01*
G75*
G02*
X103540000Y-128565000I250000J0D01*
G01*
X104740000Y-128565000D01*
G75*
G02*
X104990000Y-128815000I0J-250000D01*
G01*
X104990000Y-130265000D01*
G75*
G02*
X104740000Y-130515000I-250000J0D01*
G01*
X103540000Y-130515000D01*
G75*
G02*
X103290000Y-130265000I0J250000D01*
G01*
G37*
%TD.AperFunction*%
%TD*%
D14*
%TO.P,J6,2*%
%TO.N,Net-(J5-Pad1)*%
X139700000Y-118840000D03*
%TO.P,J6,1*%
%TO.N,Net-(J6-Pad1)*%
%TA.AperFunction,ComponentPad*%
G36*
G01*
X139074999Y-116240000D02*
X140325001Y-116240000D01*
G75*
G02*
X140575000Y-116489999I0J-249999D01*
G01*
X140575000Y-117190001D01*
G75*
G02*
X140325001Y-117440000I-249999J0D01*
G01*
X139074999Y-117440000D01*
G75*
G02*
X138825000Y-117190001I0J249999D01*
G01*
X138825000Y-116489999D01*
G75*
G02*
X139074999Y-116240000I249999J0D01*
G01*
G37*
%TD.AperFunction*%
%TD*%
%TO.P,J5,2*%
%TO.N,Net-(J4-Pad1)*%
X127000000Y-118840000D03*
%TO.P,J5,1*%
%TO.N,Net-(J5-Pad1)*%
%TA.AperFunction,ComponentPad*%
G36*
G01*
X126374999Y-116240000D02*
X127625001Y-116240000D01*
G75*
G02*
X127875000Y-116489999I0J-249999D01*
G01*
X127875000Y-117190001D01*
G75*
G02*
X127625001Y-117440000I-249999J0D01*
G01*
X126374999Y-117440000D01*
G75*
G02*
X126125000Y-117190001I0J249999D01*
G01*
X126125000Y-116489999D01*
G75*
G02*
X126374999Y-116240000I249999J0D01*
G01*
G37*
%TD.AperFunction*%
%TD*%
%TO.P,J4,2*%
%TO.N,Net-(J3-Pad1)*%
X114300000Y-118840000D03*
%TO.P,J4,1*%
%TO.N,Net-(J4-Pad1)*%
%TA.AperFunction,ComponentPad*%
G36*
G01*
X113674999Y-116240000D02*
X114925001Y-116240000D01*
G75*
G02*
X115175000Y-116489999I0J-249999D01*
G01*
X115175000Y-117190001D01*
G75*
G02*
X114925001Y-117440000I-249999J0D01*
G01*
X113674999Y-117440000D01*
G75*
G02*
X113425000Y-117190001I0J249999D01*
G01*
X113425000Y-116489999D01*
G75*
G02*
X113674999Y-116240000I249999J0D01*
G01*
G37*
%TD.AperFunction*%
%TD*%
%TO.P,J3,2*%
%TO.N,Net-(J2-Pad1)*%
X101600000Y-118840000D03*
%TO.P,J3,1*%
%TO.N,Net-(J3-Pad1)*%
%TA.AperFunction,ComponentPad*%
G36*
G01*
X100974999Y-116240000D02*
X102225001Y-116240000D01*
G75*
G02*
X102475000Y-116489999I0J-249999D01*
G01*
X102475000Y-117190001D01*
G75*
G02*
X102225001Y-117440000I-249999J0D01*
G01*
X100974999Y-117440000D01*
G75*
G02*
X100725000Y-117190001I0J249999D01*
G01*
X100725000Y-116489999D01*
G75*
G02*
X100974999Y-116240000I249999J0D01*
G01*
G37*
%TD.AperFunction*%
%TD*%
%TO.P,J2,2*%
%TO.N,Net-(J1-Pad1)*%
X88900000Y-118840000D03*
%TO.P,J2,1*%
%TO.N,Net-(J2-Pad1)*%
%TA.AperFunction,ComponentPad*%
G36*
G01*
X88274999Y-116240000D02*
X89525001Y-116240000D01*
G75*
G02*
X89775000Y-116489999I0J-249999D01*
G01*
X89775000Y-117190001D01*
G75*
G02*
X89525001Y-117440000I-249999J0D01*
G01*
X88274999Y-117440000D01*
G75*
G02*
X88025000Y-117190001I0J249999D01*
G01*
X88025000Y-116489999D01*
G75*
G02*
X88274999Y-116240000I249999J0D01*
G01*
G37*
%TD.AperFunction*%
%TD*%
%TO.P,J1,2*%
%TO.N,VCC*%
X76200000Y-118840000D03*
%TO.P,J1,1*%
%TO.N,Net-(J1-Pad1)*%
%TA.AperFunction,ComponentPad*%
G36*
G01*
X75574999Y-116240000D02*
X76825001Y-116240000D01*
G75*
G02*
X77075000Y-116489999I0J-249999D01*
G01*
X77075000Y-117190001D01*
G75*
G02*
X76825001Y-117440000I-249999J0D01*
G01*
X75574999Y-117440000D01*
G75*
G02*
X75325000Y-117190001I0J249999D01*
G01*
X75325000Y-116489999D01*
G75*
G02*
X75574999Y-116240000I249999J0D01*
G01*
G37*
%TD.AperFunction*%
%TD*%
D15*
%TO.N,GND*%
X146635001Y-151715000D02*
X66725000Y-151715000D01*
X66725000Y-143980000D01*
X72451928Y-143980000D01*
X72451928Y-145580000D01*
X72468992Y-145753254D01*
X72519528Y-145919850D01*
X72601595Y-146073386D01*
X72712038Y-146207962D01*
X72846614Y-146318405D01*
X73000150Y-146400472D01*
X73166746Y-146451008D01*
X73340000Y-146468072D01*
X74940000Y-146468072D01*
X75113254Y-146451008D01*
X75279850Y-146400472D01*
X75433386Y-146318405D01*
X75567962Y-146207962D01*
X75678405Y-146073386D01*
X75760472Y-145919850D01*
X75811008Y-145753254D01*
X75828072Y-145580000D01*
X75828072Y-143980000D01*
X75811008Y-143806746D01*
X75760472Y-143640150D01*
X75678405Y-143486614D01*
X75567962Y-143352038D01*
X75433386Y-143241595D01*
X75279850Y-143159528D01*
X75113254Y-143108992D01*
X74940000Y-143091928D01*
X73340000Y-143091928D01*
X73166746Y-143108992D01*
X73000150Y-143159528D01*
X72846614Y-143241595D01*
X72712038Y-143352038D01*
X72601595Y-143486614D01*
X72519528Y-143640150D01*
X72468992Y-143806746D01*
X72451928Y-143980000D01*
X66725000Y-143980000D01*
X66725000Y-142093740D01*
X97575000Y-142093740D01*
X97575000Y-142386260D01*
X97632068Y-142673158D01*
X97744010Y-142943411D01*
X97906525Y-143186632D01*
X98113368Y-143393475D01*
X98356589Y-143555990D01*
X98626842Y-143667932D01*
X98913740Y-143725000D01*
X99206260Y-143725000D01*
X99493158Y-143667932D01*
X99763411Y-143555990D01*
X100006632Y-143393475D01*
X100213475Y-143186632D01*
X100375990Y-142943411D01*
X100487932Y-142673158D01*
X100545000Y-142386260D01*
X100545000Y-142093740D01*
X102655000Y-142093740D01*
X102655000Y-142386260D01*
X102712068Y-142673158D01*
X102824010Y-142943411D01*
X102986525Y-143186632D01*
X103193368Y-143393475D01*
X103436589Y-143555990D01*
X103706842Y-143667932D01*
X103993740Y-143725000D01*
X104286260Y-143725000D01*
X104573158Y-143667932D01*
X104843411Y-143555990D01*
X105086632Y-143393475D01*
X105293475Y-143186632D01*
X105455990Y-142943411D01*
X105567932Y-142673158D01*
X105625000Y-142386260D01*
X105625000Y-142093740D01*
X107735000Y-142093740D01*
X107735000Y-142386260D01*
X107792068Y-142673158D01*
X107904010Y-142943411D01*
X108066525Y-143186632D01*
X108273368Y-143393475D01*
X108516589Y-143555990D01*
X108786842Y-143667932D01*
X109073740Y-143725000D01*
X109366260Y-143725000D01*
X109653158Y-143667932D01*
X109923411Y-143555990D01*
X110166632Y-143393475D01*
X110373475Y-143186632D01*
X110535990Y-142943411D01*
X110647932Y-142673158D01*
X110705000Y-142386260D01*
X110705000Y-142093740D01*
X112815000Y-142093740D01*
X112815000Y-142386260D01*
X112872068Y-142673158D01*
X112984010Y-142943411D01*
X113146525Y-143186632D01*
X113353368Y-143393475D01*
X113596589Y-143555990D01*
X113866842Y-143667932D01*
X114153740Y-143725000D01*
X114446260Y-143725000D01*
X114733158Y-143667932D01*
X115003411Y-143555990D01*
X115246632Y-143393475D01*
X115453475Y-143186632D01*
X115615990Y-142943411D01*
X115727932Y-142673158D01*
X115785000Y-142386260D01*
X115785000Y-142093740D01*
X117895000Y-142093740D01*
X117895000Y-142386260D01*
X117952068Y-142673158D01*
X118064010Y-142943411D01*
X118226525Y-143186632D01*
X118433368Y-143393475D01*
X118676589Y-143555990D01*
X118946842Y-143667932D01*
X119233740Y-143725000D01*
X119526260Y-143725000D01*
X119813158Y-143667932D01*
X120083411Y-143555990D01*
X120326632Y-143393475D01*
X120533475Y-143186632D01*
X120695990Y-142943411D01*
X120807932Y-142673158D01*
X120865000Y-142386260D01*
X120865000Y-142093740D01*
X122975000Y-142093740D01*
X122975000Y-142386260D01*
X123032068Y-142673158D01*
X123144010Y-142943411D01*
X123306525Y-143186632D01*
X123513368Y-143393475D01*
X123756589Y-143555990D01*
X124026842Y-143667932D01*
X124313740Y-143725000D01*
X124606260Y-143725000D01*
X124893158Y-143667932D01*
X125163411Y-143555990D01*
X125406632Y-143393475D01*
X125613475Y-143186632D01*
X125775990Y-142943411D01*
X125887932Y-142673158D01*
X125945000Y-142386260D01*
X125945000Y-142093740D01*
X125887932Y-141806842D01*
X125775990Y-141536589D01*
X125613475Y-141293368D01*
X125406632Y-141086525D01*
X125163411Y-140924010D01*
X124893158Y-140812068D01*
X124606260Y-140755000D01*
X124313740Y-140755000D01*
X124026842Y-140812068D01*
X123756589Y-140924010D01*
X123513368Y-141086525D01*
X123306525Y-141293368D01*
X123144010Y-141536589D01*
X123032068Y-141806842D01*
X122975000Y-142093740D01*
X120865000Y-142093740D01*
X120807932Y-141806842D01*
X120695990Y-141536589D01*
X120533475Y-141293368D01*
X120326632Y-141086525D01*
X120083411Y-140924010D01*
X119813158Y-140812068D01*
X119526260Y-140755000D01*
X119233740Y-140755000D01*
X118946842Y-140812068D01*
X118676589Y-140924010D01*
X118433368Y-141086525D01*
X118226525Y-141293368D01*
X118064010Y-141536589D01*
X117952068Y-141806842D01*
X117895000Y-142093740D01*
X115785000Y-142093740D01*
X115727932Y-141806842D01*
X115615990Y-141536589D01*
X115453475Y-141293368D01*
X115246632Y-141086525D01*
X115003411Y-140924010D01*
X114733158Y-140812068D01*
X114446260Y-140755000D01*
X114153740Y-140755000D01*
X113866842Y-140812068D01*
X113596589Y-140924010D01*
X113353368Y-141086525D01*
X113146525Y-141293368D01*
X112984010Y-141536589D01*
X112872068Y-141806842D01*
X112815000Y-142093740D01*
X110705000Y-142093740D01*
X110647932Y-141806842D01*
X110535990Y-141536589D01*
X110373475Y-141293368D01*
X110166632Y-141086525D01*
X109923411Y-140924010D01*
X109653158Y-140812068D01*
X109366260Y-140755000D01*
X109073740Y-140755000D01*
X108786842Y-140812068D01*
X108516589Y-140924010D01*
X108273368Y-141086525D01*
X108066525Y-141293368D01*
X107904010Y-141536589D01*
X107792068Y-141806842D01*
X107735000Y-142093740D01*
X105625000Y-142093740D01*
X105567932Y-141806842D01*
X105455990Y-141536589D01*
X105293475Y-141293368D01*
X105086632Y-141086525D01*
X104843411Y-140924010D01*
X104573158Y-140812068D01*
X104286260Y-140755000D01*
X103993740Y-140755000D01*
X103706842Y-140812068D01*
X103436589Y-140924010D01*
X103193368Y-141086525D01*
X102986525Y-141293368D01*
X102824010Y-141536589D01*
X102712068Y-141806842D01*
X102655000Y-142093740D01*
X100545000Y-142093740D01*
X100487932Y-141806842D01*
X100375990Y-141536589D01*
X100213475Y-141293368D01*
X100006632Y-141086525D01*
X99763411Y-140924010D01*
X99493158Y-140812068D01*
X99206260Y-140755000D01*
X98913740Y-140755000D01*
X98626842Y-140812068D01*
X98356589Y-140924010D01*
X98113368Y-141086525D01*
X97906525Y-141293368D01*
X97744010Y-141536589D01*
X97632068Y-141806842D01*
X97575000Y-142093740D01*
X66725000Y-142093740D01*
X66725000Y-128815000D01*
X102651928Y-128815000D01*
X102651928Y-130265000D01*
X102668992Y-130438254D01*
X102719528Y-130604850D01*
X102801595Y-130758386D01*
X102912038Y-130892962D01*
X103046614Y-131003405D01*
X103200150Y-131085472D01*
X103366746Y-131136008D01*
X103540000Y-131153072D01*
X104740000Y-131153072D01*
X104913254Y-131136008D01*
X105079850Y-131085472D01*
X105233386Y-131003405D01*
X105367962Y-130892962D01*
X105478405Y-130758386D01*
X105532777Y-130656663D01*
X105584866Y-130720134D01*
X105810987Y-130905706D01*
X106068967Y-131043599D01*
X106348890Y-131128513D01*
X106640000Y-131157185D01*
X106931111Y-131128513D01*
X107211034Y-131043599D01*
X107469014Y-130905706D01*
X107695134Y-130720134D01*
X107880706Y-130494014D01*
X107890000Y-130476626D01*
X107899294Y-130494014D01*
X108084866Y-130720134D01*
X108310987Y-130905706D01*
X108568967Y-131043599D01*
X108848890Y-131128513D01*
X109140000Y-131157185D01*
X109431111Y-131128513D01*
X109711034Y-131043599D01*
X109969014Y-130905706D01*
X110195134Y-130720134D01*
X110380706Y-130494014D01*
X110390000Y-130476626D01*
X110399294Y-130494014D01*
X110584866Y-130720134D01*
X110810987Y-130905706D01*
X111068967Y-131043599D01*
X111348890Y-131128513D01*
X111640000Y-131157185D01*
X111931111Y-131128513D01*
X112211034Y-131043599D01*
X112469014Y-130905706D01*
X112695134Y-130720134D01*
X112880706Y-130494014D01*
X112890000Y-130476626D01*
X112899294Y-130494014D01*
X113084866Y-130720134D01*
X113310987Y-130905706D01*
X113568967Y-131043599D01*
X113848890Y-131128513D01*
X114140000Y-131157185D01*
X114431111Y-131128513D01*
X114711034Y-131043599D01*
X114969014Y-130905706D01*
X115195134Y-130720134D01*
X115380706Y-130494014D01*
X115390000Y-130476626D01*
X115399294Y-130494014D01*
X115584866Y-130720134D01*
X115810987Y-130905706D01*
X116068967Y-131043599D01*
X116348890Y-131128513D01*
X116640000Y-131157185D01*
X116931111Y-131128513D01*
X117211034Y-131043599D01*
X117469014Y-130905706D01*
X117695134Y-130720134D01*
X117880706Y-130494014D01*
X117890000Y-130476626D01*
X117899294Y-130494014D01*
X118084866Y-130720134D01*
X118310987Y-130905706D01*
X118568967Y-131043599D01*
X118848890Y-131128513D01*
X119140000Y-131157185D01*
X119431111Y-131128513D01*
X119711034Y-131043599D01*
X119969014Y-130905706D01*
X120195134Y-130720134D01*
X120380706Y-130494014D01*
X120518599Y-130236033D01*
X120603513Y-129956110D01*
X120625000Y-129737949D01*
X120625000Y-129342050D01*
X120603513Y-129123889D01*
X120518599Y-128843966D01*
X120380706Y-128585986D01*
X120195134Y-128359866D01*
X119969013Y-128174294D01*
X119711033Y-128036401D01*
X119431110Y-127951487D01*
X119140000Y-127922815D01*
X118848889Y-127951487D01*
X118568966Y-128036401D01*
X118310986Y-128174294D01*
X118084866Y-128359866D01*
X117899294Y-128585987D01*
X117890000Y-128603374D01*
X117880706Y-128585986D01*
X117695134Y-128359866D01*
X117469013Y-128174294D01*
X117211033Y-128036401D01*
X116931110Y-127951487D01*
X116640000Y-127922815D01*
X116348889Y-127951487D01*
X116068966Y-128036401D01*
X115810986Y-128174294D01*
X115584866Y-128359866D01*
X115399294Y-128585987D01*
X115390000Y-128603374D01*
X115380706Y-128585986D01*
X115195134Y-128359866D01*
X114969013Y-128174294D01*
X114711033Y-128036401D01*
X114431110Y-127951487D01*
X114140000Y-127922815D01*
X113848889Y-127951487D01*
X113568966Y-128036401D01*
X113310986Y-128174294D01*
X113084866Y-128359866D01*
X112899294Y-128585987D01*
X112890000Y-128603374D01*
X112880706Y-128585986D01*
X112695134Y-128359866D01*
X112469013Y-128174294D01*
X112211033Y-128036401D01*
X111931110Y-127951487D01*
X111640000Y-127922815D01*
X111348889Y-127951487D01*
X111068966Y-128036401D01*
X110810986Y-128174294D01*
X110584866Y-128359866D01*
X110399294Y-128585987D01*
X110390000Y-128603374D01*
X110380706Y-128585986D01*
X110195134Y-128359866D01*
X109969013Y-128174294D01*
X109711033Y-128036401D01*
X109431110Y-127951487D01*
X109140000Y-127922815D01*
X108848889Y-127951487D01*
X108568966Y-128036401D01*
X108310986Y-128174294D01*
X108084866Y-128359866D01*
X107899294Y-128585987D01*
X107890000Y-128603374D01*
X107880706Y-128585986D01*
X107695134Y-128359866D01*
X107469013Y-128174294D01*
X107211033Y-128036401D01*
X106931110Y-127951487D01*
X106640000Y-127922815D01*
X106348889Y-127951487D01*
X106068966Y-128036401D01*
X105810986Y-128174294D01*
X105584866Y-128359866D01*
X105532777Y-128423337D01*
X105478405Y-128321614D01*
X105367962Y-128187038D01*
X105233386Y-128076595D01*
X105079850Y-127994528D01*
X104913254Y-127943992D01*
X104740000Y-127926928D01*
X103540000Y-127926928D01*
X103366746Y-127943992D01*
X103200150Y-127994528D01*
X103046614Y-128076595D01*
X102912038Y-128187038D01*
X102801595Y-128321614D01*
X102719528Y-128475150D01*
X102668992Y-128641746D01*
X102651928Y-128815000D01*
X66725000Y-128815000D01*
X66725000Y-118840000D01*
X74684025Y-118840000D01*
X74707870Y-119082102D01*
X74778489Y-119314901D01*
X74893167Y-119529449D01*
X75047498Y-119717502D01*
X75235551Y-119871833D01*
X75450099Y-119986511D01*
X75682898Y-120057130D01*
X75864335Y-120075000D01*
X76535665Y-120075000D01*
X76717102Y-120057130D01*
X76949901Y-119986511D01*
X77164449Y-119871833D01*
X77352502Y-119717502D01*
X77506833Y-119529449D01*
X77621511Y-119314901D01*
X77692130Y-119082102D01*
X77715975Y-118840000D01*
X87384025Y-118840000D01*
X87407870Y-119082102D01*
X87478489Y-119314901D01*
X87593167Y-119529449D01*
X87747498Y-119717502D01*
X87935551Y-119871833D01*
X88150099Y-119986511D01*
X88382898Y-120057130D01*
X88564335Y-120075000D01*
X89235665Y-120075000D01*
X89417102Y-120057130D01*
X89649901Y-119986511D01*
X89864449Y-119871833D01*
X90052502Y-119717502D01*
X90206833Y-119529449D01*
X90321511Y-119314901D01*
X90392130Y-119082102D01*
X90415975Y-118840000D01*
X100084025Y-118840000D01*
X100107870Y-119082102D01*
X100178489Y-119314901D01*
X100293167Y-119529449D01*
X100447498Y-119717502D01*
X100635551Y-119871833D01*
X100850099Y-119986511D01*
X101082898Y-120057130D01*
X101264335Y-120075000D01*
X101935665Y-120075000D01*
X102117102Y-120057130D01*
X102349901Y-119986511D01*
X102564449Y-119871833D01*
X102752502Y-119717502D01*
X102906833Y-119529449D01*
X103021511Y-119314901D01*
X103092130Y-119082102D01*
X103115975Y-118840000D01*
X112784025Y-118840000D01*
X112807870Y-119082102D01*
X112878489Y-119314901D01*
X112993167Y-119529449D01*
X113147498Y-119717502D01*
X113335551Y-119871833D01*
X113550099Y-119986511D01*
X113782898Y-120057130D01*
X113964335Y-120075000D01*
X114635665Y-120075000D01*
X114817102Y-120057130D01*
X115049901Y-119986511D01*
X115264449Y-119871833D01*
X115452502Y-119717502D01*
X115606833Y-119529449D01*
X115721511Y-119314901D01*
X115792130Y-119082102D01*
X115815975Y-118840000D01*
X125484025Y-118840000D01*
X125507870Y-119082102D01*
X125578489Y-119314901D01*
X125693167Y-119529449D01*
X125847498Y-119717502D01*
X126035551Y-119871833D01*
X126250099Y-119986511D01*
X126482898Y-120057130D01*
X126664335Y-120075000D01*
X127335665Y-120075000D01*
X127517102Y-120057130D01*
X127749901Y-119986511D01*
X127964449Y-119871833D01*
X128152502Y-119717502D01*
X128306833Y-119529449D01*
X128421511Y-119314901D01*
X128492130Y-119082102D01*
X128515975Y-118840000D01*
X138184025Y-118840000D01*
X138207870Y-119082102D01*
X138278489Y-119314901D01*
X138393167Y-119529449D01*
X138547498Y-119717502D01*
X138735551Y-119871833D01*
X138950099Y-119986511D01*
X139182898Y-120057130D01*
X139364335Y-120075000D01*
X140035665Y-120075000D01*
X140217102Y-120057130D01*
X140449901Y-119986511D01*
X140664449Y-119871833D01*
X140852502Y-119717502D01*
X141006833Y-119529449D01*
X141121511Y-119314901D01*
X141192130Y-119082102D01*
X141215975Y-118840000D01*
X141192130Y-118597898D01*
X141121511Y-118365099D01*
X141006833Y-118150551D01*
X140852502Y-117962498D01*
X140813889Y-117930809D01*
X140818387Y-117928405D01*
X140952962Y-117817962D01*
X141063405Y-117683387D01*
X141145472Y-117529851D01*
X141196008Y-117363255D01*
X141213072Y-117190001D01*
X141213072Y-116489999D01*
X141196008Y-116316745D01*
X141145472Y-116150149D01*
X141063405Y-115996613D01*
X140952962Y-115862038D01*
X140818387Y-115751595D01*
X140664851Y-115669528D01*
X140498255Y-115618992D01*
X140325001Y-115601928D01*
X139074999Y-115601928D01*
X138901745Y-115618992D01*
X138735149Y-115669528D01*
X138581613Y-115751595D01*
X138447038Y-115862038D01*
X138336595Y-115996613D01*
X138254528Y-116150149D01*
X138203992Y-116316745D01*
X138186928Y-116489999D01*
X138186928Y-117190001D01*
X138203992Y-117363255D01*
X138254528Y-117529851D01*
X138336595Y-117683387D01*
X138447038Y-117817962D01*
X138581613Y-117928405D01*
X138586111Y-117930809D01*
X138547498Y-117962498D01*
X138393167Y-118150551D01*
X138278489Y-118365099D01*
X138207870Y-118597898D01*
X138184025Y-118840000D01*
X128515975Y-118840000D01*
X128492130Y-118597898D01*
X128421511Y-118365099D01*
X128306833Y-118150551D01*
X128152502Y-117962498D01*
X128113889Y-117930809D01*
X128118387Y-117928405D01*
X128252962Y-117817962D01*
X128363405Y-117683387D01*
X128445472Y-117529851D01*
X128496008Y-117363255D01*
X128513072Y-117190001D01*
X128513072Y-116489999D01*
X128496008Y-116316745D01*
X128445472Y-116150149D01*
X128363405Y-115996613D01*
X128252962Y-115862038D01*
X128118387Y-115751595D01*
X127964851Y-115669528D01*
X127798255Y-115618992D01*
X127625001Y-115601928D01*
X126374999Y-115601928D01*
X126201745Y-115618992D01*
X126035149Y-115669528D01*
X125881613Y-115751595D01*
X125747038Y-115862038D01*
X125636595Y-115996613D01*
X125554528Y-116150149D01*
X125503992Y-116316745D01*
X125486928Y-116489999D01*
X125486928Y-117190001D01*
X125503992Y-117363255D01*
X125554528Y-117529851D01*
X125636595Y-117683387D01*
X125747038Y-117817962D01*
X125881613Y-117928405D01*
X125886111Y-117930809D01*
X125847498Y-117962498D01*
X125693167Y-118150551D01*
X125578489Y-118365099D01*
X125507870Y-118597898D01*
X125484025Y-118840000D01*
X115815975Y-118840000D01*
X115792130Y-118597898D01*
X115721511Y-118365099D01*
X115606833Y-118150551D01*
X115452502Y-117962498D01*
X115413889Y-117930809D01*
X115418387Y-117928405D01*
X115552962Y-117817962D01*
X115663405Y-117683387D01*
X115745472Y-117529851D01*
X115796008Y-117363255D01*
X115813072Y-117190001D01*
X115813072Y-116489999D01*
X115796008Y-116316745D01*
X115745472Y-116150149D01*
X115663405Y-115996613D01*
X115552962Y-115862038D01*
X115418387Y-115751595D01*
X115264851Y-115669528D01*
X115098255Y-115618992D01*
X114925001Y-115601928D01*
X113674999Y-115601928D01*
X113501745Y-115618992D01*
X113335149Y-115669528D01*
X113181613Y-115751595D01*
X113047038Y-115862038D01*
X112936595Y-115996613D01*
X112854528Y-116150149D01*
X112803992Y-116316745D01*
X112786928Y-116489999D01*
X112786928Y-117190001D01*
X112803992Y-117363255D01*
X112854528Y-117529851D01*
X112936595Y-117683387D01*
X113047038Y-117817962D01*
X113181613Y-117928405D01*
X113186111Y-117930809D01*
X113147498Y-117962498D01*
X112993167Y-118150551D01*
X112878489Y-118365099D01*
X112807870Y-118597898D01*
X112784025Y-118840000D01*
X103115975Y-118840000D01*
X103092130Y-118597898D01*
X103021511Y-118365099D01*
X102906833Y-118150551D01*
X102752502Y-117962498D01*
X102713889Y-117930809D01*
X102718387Y-117928405D01*
X102852962Y-117817962D01*
X102963405Y-117683387D01*
X103045472Y-117529851D01*
X103096008Y-117363255D01*
X103113072Y-117190001D01*
X103113072Y-116489999D01*
X103096008Y-116316745D01*
X103045472Y-116150149D01*
X102963405Y-115996613D01*
X102852962Y-115862038D01*
X102718387Y-115751595D01*
X102564851Y-115669528D01*
X102398255Y-115618992D01*
X102225001Y-115601928D01*
X100974999Y-115601928D01*
X100801745Y-115618992D01*
X100635149Y-115669528D01*
X100481613Y-115751595D01*
X100347038Y-115862038D01*
X100236595Y-115996613D01*
X100154528Y-116150149D01*
X100103992Y-116316745D01*
X100086928Y-116489999D01*
X100086928Y-117190001D01*
X100103992Y-117363255D01*
X100154528Y-117529851D01*
X100236595Y-117683387D01*
X100347038Y-117817962D01*
X100481613Y-117928405D01*
X100486111Y-117930809D01*
X100447498Y-117962498D01*
X100293167Y-118150551D01*
X100178489Y-118365099D01*
X100107870Y-118597898D01*
X100084025Y-118840000D01*
X90415975Y-118840000D01*
X90392130Y-118597898D01*
X90321511Y-118365099D01*
X90206833Y-118150551D01*
X90052502Y-117962498D01*
X90013889Y-117930809D01*
X90018387Y-117928405D01*
X90152962Y-117817962D01*
X90263405Y-117683387D01*
X90345472Y-117529851D01*
X90396008Y-117363255D01*
X90413072Y-117190001D01*
X90413072Y-116489999D01*
X90396008Y-116316745D01*
X90345472Y-116150149D01*
X90263405Y-115996613D01*
X90152962Y-115862038D01*
X90018387Y-115751595D01*
X89864851Y-115669528D01*
X89698255Y-115618992D01*
X89525001Y-115601928D01*
X88274999Y-115601928D01*
X88101745Y-115618992D01*
X87935149Y-115669528D01*
X87781613Y-115751595D01*
X87647038Y-115862038D01*
X87536595Y-115996613D01*
X87454528Y-116150149D01*
X87403992Y-116316745D01*
X87386928Y-116489999D01*
X87386928Y-117190001D01*
X87403992Y-117363255D01*
X87454528Y-117529851D01*
X87536595Y-117683387D01*
X87647038Y-117817962D01*
X87781613Y-117928405D01*
X87786111Y-117930809D01*
X87747498Y-117962498D01*
X87593167Y-118150551D01*
X87478489Y-118365099D01*
X87407870Y-118597898D01*
X87384025Y-118840000D01*
X77715975Y-118840000D01*
X77692130Y-118597898D01*
X77621511Y-118365099D01*
X77506833Y-118150551D01*
X77352502Y-117962498D01*
X77313889Y-117930809D01*
X77318387Y-117928405D01*
X77452962Y-117817962D01*
X77563405Y-117683387D01*
X77645472Y-117529851D01*
X77696008Y-117363255D01*
X77713072Y-117190001D01*
X77713072Y-116489999D01*
X77696008Y-116316745D01*
X77645472Y-116150149D01*
X77563405Y-115996613D01*
X77452962Y-115862038D01*
X77318387Y-115751595D01*
X77164851Y-115669528D01*
X76998255Y-115618992D01*
X76825001Y-115601928D01*
X75574999Y-115601928D01*
X75401745Y-115618992D01*
X75235149Y-115669528D01*
X75081613Y-115751595D01*
X74947038Y-115862038D01*
X74836595Y-115996613D01*
X74754528Y-116150149D01*
X74703992Y-116316745D01*
X74686928Y-116489999D01*
X74686928Y-117190001D01*
X74703992Y-117363255D01*
X74754528Y-117529851D01*
X74836595Y-117683387D01*
X74947038Y-117817962D01*
X75081613Y-117928405D01*
X75086111Y-117930809D01*
X75047498Y-117962498D01*
X74893167Y-118150551D01*
X74778489Y-118365099D01*
X74707870Y-118597898D01*
X74684025Y-118840000D01*
X66725000Y-118840000D01*
X66725000Y-109905000D01*
X146635000Y-109905000D01*
X146635001Y-151715000D01*
%TA.AperFunction,Conductor*%
D16*
G36*
X146635001Y-151715000D02*
G01*
X66725000Y-151715000D01*
X66725000Y-143980000D01*
X72451928Y-143980000D01*
X72451928Y-145580000D01*
X72468992Y-145753254D01*
X72519528Y-145919850D01*
X72601595Y-146073386D01*
X72712038Y-146207962D01*
X72846614Y-146318405D01*
X73000150Y-146400472D01*
X73166746Y-146451008D01*
X73340000Y-146468072D01*
X74940000Y-146468072D01*
X75113254Y-146451008D01*
X75279850Y-146400472D01*
X75433386Y-146318405D01*
X75567962Y-146207962D01*
X75678405Y-146073386D01*
X75760472Y-145919850D01*
X75811008Y-145753254D01*
X75828072Y-145580000D01*
X75828072Y-143980000D01*
X75811008Y-143806746D01*
X75760472Y-143640150D01*
X75678405Y-143486614D01*
X75567962Y-143352038D01*
X75433386Y-143241595D01*
X75279850Y-143159528D01*
X75113254Y-143108992D01*
X74940000Y-143091928D01*
X73340000Y-143091928D01*
X73166746Y-143108992D01*
X73000150Y-143159528D01*
X72846614Y-143241595D01*
X72712038Y-143352038D01*
X72601595Y-143486614D01*
X72519528Y-143640150D01*
X72468992Y-143806746D01*
X72451928Y-143980000D01*
X66725000Y-143980000D01*
X66725000Y-142093740D01*
X97575000Y-142093740D01*
X97575000Y-142386260D01*
X97632068Y-142673158D01*
X97744010Y-142943411D01*
X97906525Y-143186632D01*
X98113368Y-143393475D01*
X98356589Y-143555990D01*
X98626842Y-143667932D01*
X98913740Y-143725000D01*
X99206260Y-143725000D01*
X99493158Y-143667932D01*
X99763411Y-143555990D01*
X100006632Y-143393475D01*
X100213475Y-143186632D01*
X100375990Y-142943411D01*
X100487932Y-142673158D01*
X100545000Y-142386260D01*
X100545000Y-142093740D01*
X102655000Y-142093740D01*
X102655000Y-142386260D01*
X102712068Y-142673158D01*
X102824010Y-142943411D01*
X102986525Y-143186632D01*
X103193368Y-143393475D01*
X103436589Y-143555990D01*
X103706842Y-143667932D01*
X103993740Y-143725000D01*
X104286260Y-143725000D01*
X104573158Y-143667932D01*
X104843411Y-143555990D01*
X105086632Y-143393475D01*
X105293475Y-143186632D01*
X105455990Y-142943411D01*
X105567932Y-142673158D01*
X105625000Y-142386260D01*
X105625000Y-142093740D01*
X107735000Y-142093740D01*
X107735000Y-142386260D01*
X107792068Y-142673158D01*
X107904010Y-142943411D01*
X108066525Y-143186632D01*
X108273368Y-143393475D01*
X108516589Y-143555990D01*
X108786842Y-143667932D01*
X109073740Y-143725000D01*
X109366260Y-143725000D01*
X109653158Y-143667932D01*
X109923411Y-143555990D01*
X110166632Y-143393475D01*
X110373475Y-143186632D01*
X110535990Y-142943411D01*
X110647932Y-142673158D01*
X110705000Y-142386260D01*
X110705000Y-142093740D01*
X112815000Y-142093740D01*
X112815000Y-142386260D01*
X112872068Y-142673158D01*
X112984010Y-142943411D01*
X113146525Y-143186632D01*
X113353368Y-143393475D01*
X113596589Y-143555990D01*
X113866842Y-143667932D01*
X114153740Y-143725000D01*
X114446260Y-143725000D01*
X114733158Y-143667932D01*
X115003411Y-143555990D01*
X115246632Y-143393475D01*
X115453475Y-143186632D01*
X115615990Y-142943411D01*
X115727932Y-142673158D01*
X115785000Y-142386260D01*
X115785000Y-142093740D01*
X117895000Y-142093740D01*
X117895000Y-142386260D01*
X117952068Y-142673158D01*
X118064010Y-142943411D01*
X118226525Y-143186632D01*
X118433368Y-143393475D01*
X118676589Y-143555990D01*
X118946842Y-143667932D01*
X119233740Y-143725000D01*
X119526260Y-143725000D01*
X119813158Y-143667932D01*
X120083411Y-143555990D01*
X120326632Y-143393475D01*
X120533475Y-143186632D01*
X120695990Y-142943411D01*
X120807932Y-142673158D01*
X120865000Y-142386260D01*
X120865000Y-142093740D01*
X122975000Y-142093740D01*
X122975000Y-142386260D01*
X123032068Y-142673158D01*
X123144010Y-142943411D01*
X123306525Y-143186632D01*
X123513368Y-143393475D01*
X123756589Y-143555990D01*
X124026842Y-143667932D01*
X124313740Y-143725000D01*
X124606260Y-143725000D01*
X124893158Y-143667932D01*
X125163411Y-143555990D01*
X125406632Y-143393475D01*
X125613475Y-143186632D01*
X125775990Y-142943411D01*
X125887932Y-142673158D01*
X125945000Y-142386260D01*
X125945000Y-142093740D01*
X125887932Y-141806842D01*
X125775990Y-141536589D01*
X125613475Y-141293368D01*
X125406632Y-141086525D01*
X125163411Y-140924010D01*
X124893158Y-140812068D01*
X124606260Y-140755000D01*
X124313740Y-140755000D01*
X124026842Y-140812068D01*
X123756589Y-140924010D01*
X123513368Y-141086525D01*
X123306525Y-141293368D01*
X123144010Y-141536589D01*
X123032068Y-141806842D01*
X122975000Y-142093740D01*
X120865000Y-142093740D01*
X120807932Y-141806842D01*
X120695990Y-141536589D01*
X120533475Y-141293368D01*
X120326632Y-141086525D01*
X120083411Y-140924010D01*
X119813158Y-140812068D01*
X119526260Y-140755000D01*
X119233740Y-140755000D01*
X118946842Y-140812068D01*
X118676589Y-140924010D01*
X118433368Y-141086525D01*
X118226525Y-141293368D01*
X118064010Y-141536589D01*
X117952068Y-141806842D01*
X117895000Y-142093740D01*
X115785000Y-142093740D01*
X115727932Y-141806842D01*
X115615990Y-141536589D01*
X115453475Y-141293368D01*
X115246632Y-141086525D01*
X115003411Y-140924010D01*
X114733158Y-140812068D01*
X114446260Y-140755000D01*
X114153740Y-140755000D01*
X113866842Y-140812068D01*
X113596589Y-140924010D01*
X113353368Y-141086525D01*
X113146525Y-141293368D01*
X112984010Y-141536589D01*
X112872068Y-141806842D01*
X112815000Y-142093740D01*
X110705000Y-142093740D01*
X110647932Y-141806842D01*
X110535990Y-141536589D01*
X110373475Y-141293368D01*
X110166632Y-141086525D01*
X109923411Y-140924010D01*
X109653158Y-140812068D01*
X109366260Y-140755000D01*
X109073740Y-140755000D01*
X108786842Y-140812068D01*
X108516589Y-140924010D01*
X108273368Y-141086525D01*
X108066525Y-141293368D01*
X107904010Y-141536589D01*
X107792068Y-141806842D01*
X107735000Y-142093740D01*
X105625000Y-142093740D01*
X105567932Y-141806842D01*
X105455990Y-141536589D01*
X105293475Y-141293368D01*
X105086632Y-141086525D01*
X104843411Y-140924010D01*
X104573158Y-140812068D01*
X104286260Y-140755000D01*
X103993740Y-140755000D01*
X103706842Y-140812068D01*
X103436589Y-140924010D01*
X103193368Y-141086525D01*
X102986525Y-141293368D01*
X102824010Y-141536589D01*
X102712068Y-141806842D01*
X102655000Y-142093740D01*
X100545000Y-142093740D01*
X100487932Y-141806842D01*
X100375990Y-141536589D01*
X100213475Y-141293368D01*
X100006632Y-141086525D01*
X99763411Y-140924010D01*
X99493158Y-140812068D01*
X99206260Y-140755000D01*
X98913740Y-140755000D01*
X98626842Y-140812068D01*
X98356589Y-140924010D01*
X98113368Y-141086525D01*
X97906525Y-141293368D01*
X97744010Y-141536589D01*
X97632068Y-141806842D01*
X97575000Y-142093740D01*
X66725000Y-142093740D01*
X66725000Y-128815000D01*
X102651928Y-128815000D01*
X102651928Y-130265000D01*
X102668992Y-130438254D01*
X102719528Y-130604850D01*
X102801595Y-130758386D01*
X102912038Y-130892962D01*
X103046614Y-131003405D01*
X103200150Y-131085472D01*
X103366746Y-131136008D01*
X103540000Y-131153072D01*
X104740000Y-131153072D01*
X104913254Y-131136008D01*
X105079850Y-131085472D01*
X105233386Y-131003405D01*
X105367962Y-130892962D01*
X105478405Y-130758386D01*
X105532777Y-130656663D01*
X105584866Y-130720134D01*
X105810987Y-130905706D01*
X106068967Y-131043599D01*
X106348890Y-131128513D01*
X106640000Y-131157185D01*
X106931111Y-131128513D01*
X107211034Y-131043599D01*
X107469014Y-130905706D01*
X107695134Y-130720134D01*
X107880706Y-130494014D01*
X107890000Y-130476626D01*
X107899294Y-130494014D01*
X108084866Y-130720134D01*
X108310987Y-130905706D01*
X108568967Y-131043599D01*
X108848890Y-131128513D01*
X109140000Y-131157185D01*
X109431111Y-131128513D01*
X109711034Y-131043599D01*
X109969014Y-130905706D01*
X110195134Y-130720134D01*
X110380706Y-130494014D01*
X110390000Y-130476626D01*
X110399294Y-130494014D01*
X110584866Y-130720134D01*
X110810987Y-130905706D01*
X111068967Y-131043599D01*
X111348890Y-131128513D01*
X111640000Y-131157185D01*
X111931111Y-131128513D01*
X112211034Y-131043599D01*
X112469014Y-130905706D01*
X112695134Y-130720134D01*
X112880706Y-130494014D01*
X112890000Y-130476626D01*
X112899294Y-130494014D01*
X113084866Y-130720134D01*
X113310987Y-130905706D01*
X113568967Y-131043599D01*
X113848890Y-131128513D01*
X114140000Y-131157185D01*
X114431111Y-131128513D01*
X114711034Y-131043599D01*
X114969014Y-130905706D01*
X115195134Y-130720134D01*
X115380706Y-130494014D01*
X115390000Y-130476626D01*
X115399294Y-130494014D01*
X115584866Y-130720134D01*
X115810987Y-130905706D01*
X116068967Y-131043599D01*
X116348890Y-131128513D01*
X116640000Y-131157185D01*
X116931111Y-131128513D01*
X117211034Y-131043599D01*
X117469014Y-130905706D01*
X117695134Y-130720134D01*
X117880706Y-130494014D01*
X117890000Y-130476626D01*
X117899294Y-130494014D01*
X118084866Y-130720134D01*
X118310987Y-130905706D01*
X118568967Y-131043599D01*
X118848890Y-131128513D01*
X119140000Y-131157185D01*
X119431111Y-131128513D01*
X119711034Y-131043599D01*
X119969014Y-130905706D01*
X120195134Y-130720134D01*
X120380706Y-130494014D01*
X120518599Y-130236033D01*
X120603513Y-129956110D01*
X120625000Y-129737949D01*
X120625000Y-129342050D01*
X120603513Y-129123889D01*
X120518599Y-128843966D01*
X120380706Y-128585986D01*
X120195134Y-128359866D01*
X119969013Y-128174294D01*
X119711033Y-128036401D01*
X119431110Y-127951487D01*
X119140000Y-127922815D01*
X118848889Y-127951487D01*
X118568966Y-128036401D01*
X118310986Y-128174294D01*
X118084866Y-128359866D01*
X117899294Y-128585987D01*
X117890000Y-128603374D01*
X117880706Y-128585986D01*
X117695134Y-128359866D01*
X117469013Y-128174294D01*
X117211033Y-128036401D01*
X116931110Y-127951487D01*
X116640000Y-127922815D01*
X116348889Y-127951487D01*
X116068966Y-128036401D01*
X115810986Y-128174294D01*
X115584866Y-128359866D01*
X115399294Y-128585987D01*
X115390000Y-128603374D01*
X115380706Y-128585986D01*
X115195134Y-128359866D01*
X114969013Y-128174294D01*
X114711033Y-128036401D01*
X114431110Y-127951487D01*
X114140000Y-127922815D01*
X113848889Y-127951487D01*
X113568966Y-128036401D01*
X113310986Y-128174294D01*
X113084866Y-128359866D01*
X112899294Y-128585987D01*
X112890000Y-128603374D01*
X112880706Y-128585986D01*
X112695134Y-128359866D01*
X112469013Y-128174294D01*
X112211033Y-128036401D01*
X111931110Y-127951487D01*
X111640000Y-127922815D01*
X111348889Y-127951487D01*
X111068966Y-128036401D01*
X110810986Y-128174294D01*
X110584866Y-128359866D01*
X110399294Y-128585987D01*
X110390000Y-128603374D01*
X110380706Y-128585986D01*
X110195134Y-128359866D01*
X109969013Y-128174294D01*
X109711033Y-128036401D01*
X109431110Y-127951487D01*
X109140000Y-127922815D01*
X108848889Y-127951487D01*
X108568966Y-128036401D01*
X108310986Y-128174294D01*
X108084866Y-128359866D01*
X107899294Y-128585987D01*
X107890000Y-128603374D01*
X107880706Y-128585986D01*
X107695134Y-128359866D01*
X107469013Y-128174294D01*
X107211033Y-128036401D01*
X106931110Y-127951487D01*
X106640000Y-127922815D01*
X106348889Y-127951487D01*
X106068966Y-128036401D01*
X105810986Y-128174294D01*
X105584866Y-128359866D01*
X105532777Y-128423337D01*
X105478405Y-128321614D01*
X105367962Y-128187038D01*
X105233386Y-128076595D01*
X105079850Y-127994528D01*
X104913254Y-127943992D01*
X104740000Y-127926928D01*
X103540000Y-127926928D01*
X103366746Y-127943992D01*
X103200150Y-127994528D01*
X103046614Y-128076595D01*
X102912038Y-128187038D01*
X102801595Y-128321614D01*
X102719528Y-128475150D01*
X102668992Y-128641746D01*
X102651928Y-128815000D01*
X66725000Y-128815000D01*
X66725000Y-118840000D01*
X74684025Y-118840000D01*
X74707870Y-119082102D01*
X74778489Y-119314901D01*
X74893167Y-119529449D01*
X75047498Y-119717502D01*
X75235551Y-119871833D01*
X75450099Y-119986511D01*
X75682898Y-120057130D01*
X75864335Y-120075000D01*
X76535665Y-120075000D01*
X76717102Y-120057130D01*
X76949901Y-119986511D01*
X77164449Y-119871833D01*
X77352502Y-119717502D01*
X77506833Y-119529449D01*
X77621511Y-119314901D01*
X77692130Y-119082102D01*
X77715975Y-118840000D01*
X87384025Y-118840000D01*
X87407870Y-119082102D01*
X87478489Y-119314901D01*
X87593167Y-119529449D01*
X87747498Y-119717502D01*
X87935551Y-119871833D01*
X88150099Y-119986511D01*
X88382898Y-120057130D01*
X88564335Y-120075000D01*
X89235665Y-120075000D01*
X89417102Y-120057130D01*
X89649901Y-119986511D01*
X89864449Y-119871833D01*
X90052502Y-119717502D01*
X90206833Y-119529449D01*
X90321511Y-119314901D01*
X90392130Y-119082102D01*
X90415975Y-118840000D01*
X100084025Y-118840000D01*
X100107870Y-119082102D01*
X100178489Y-119314901D01*
X100293167Y-119529449D01*
X100447498Y-119717502D01*
X100635551Y-119871833D01*
X100850099Y-119986511D01*
X101082898Y-120057130D01*
X101264335Y-120075000D01*
X101935665Y-120075000D01*
X102117102Y-120057130D01*
X102349901Y-119986511D01*
X102564449Y-119871833D01*
X102752502Y-119717502D01*
X102906833Y-119529449D01*
X103021511Y-119314901D01*
X103092130Y-119082102D01*
X103115975Y-118840000D01*
X112784025Y-118840000D01*
X112807870Y-119082102D01*
X112878489Y-119314901D01*
X112993167Y-119529449D01*
X113147498Y-119717502D01*
X113335551Y-119871833D01*
X113550099Y-119986511D01*
X113782898Y-120057130D01*
X113964335Y-120075000D01*
X114635665Y-120075000D01*
X114817102Y-120057130D01*
X115049901Y-119986511D01*
X115264449Y-119871833D01*
X115452502Y-119717502D01*
X115606833Y-119529449D01*
X115721511Y-119314901D01*
X115792130Y-119082102D01*
X115815975Y-118840000D01*
X125484025Y-118840000D01*
X125507870Y-119082102D01*
X125578489Y-119314901D01*
X125693167Y-119529449D01*
X125847498Y-119717502D01*
X126035551Y-119871833D01*
X126250099Y-119986511D01*
X126482898Y-120057130D01*
X126664335Y-120075000D01*
X127335665Y-120075000D01*
X127517102Y-120057130D01*
X127749901Y-119986511D01*
X127964449Y-119871833D01*
X128152502Y-119717502D01*
X128306833Y-119529449D01*
X128421511Y-119314901D01*
X128492130Y-119082102D01*
X128515975Y-118840000D01*
X138184025Y-118840000D01*
X138207870Y-119082102D01*
X138278489Y-119314901D01*
X138393167Y-119529449D01*
X138547498Y-119717502D01*
X138735551Y-119871833D01*
X138950099Y-119986511D01*
X139182898Y-120057130D01*
X139364335Y-120075000D01*
X140035665Y-120075000D01*
X140217102Y-120057130D01*
X140449901Y-119986511D01*
X140664449Y-119871833D01*
X140852502Y-119717502D01*
X141006833Y-119529449D01*
X141121511Y-119314901D01*
X141192130Y-119082102D01*
X141215975Y-118840000D01*
X141192130Y-118597898D01*
X141121511Y-118365099D01*
X141006833Y-118150551D01*
X140852502Y-117962498D01*
X140813889Y-117930809D01*
X140818387Y-117928405D01*
X140952962Y-117817962D01*
X141063405Y-117683387D01*
X141145472Y-117529851D01*
X141196008Y-117363255D01*
X141213072Y-117190001D01*
X141213072Y-116489999D01*
X141196008Y-116316745D01*
X141145472Y-116150149D01*
X141063405Y-115996613D01*
X140952962Y-115862038D01*
X140818387Y-115751595D01*
X140664851Y-115669528D01*
X140498255Y-115618992D01*
X140325001Y-115601928D01*
X139074999Y-115601928D01*
X138901745Y-115618992D01*
X138735149Y-115669528D01*
X138581613Y-115751595D01*
X138447038Y-115862038D01*
X138336595Y-115996613D01*
X138254528Y-116150149D01*
X138203992Y-116316745D01*
X138186928Y-116489999D01*
X138186928Y-117190001D01*
X138203992Y-117363255D01*
X138254528Y-117529851D01*
X138336595Y-117683387D01*
X138447038Y-117817962D01*
X138581613Y-117928405D01*
X138586111Y-117930809D01*
X138547498Y-117962498D01*
X138393167Y-118150551D01*
X138278489Y-118365099D01*
X138207870Y-118597898D01*
X138184025Y-118840000D01*
X128515975Y-118840000D01*
X128492130Y-118597898D01*
X128421511Y-118365099D01*
X128306833Y-118150551D01*
X128152502Y-117962498D01*
X128113889Y-117930809D01*
X128118387Y-117928405D01*
X128252962Y-117817962D01*
X128363405Y-117683387D01*
X128445472Y-117529851D01*
X128496008Y-117363255D01*
X128513072Y-117190001D01*
X128513072Y-116489999D01*
X128496008Y-116316745D01*
X128445472Y-116150149D01*
X128363405Y-115996613D01*
X128252962Y-115862038D01*
X128118387Y-115751595D01*
X127964851Y-115669528D01*
X127798255Y-115618992D01*
X127625001Y-115601928D01*
X126374999Y-115601928D01*
X126201745Y-115618992D01*
X126035149Y-115669528D01*
X125881613Y-115751595D01*
X125747038Y-115862038D01*
X125636595Y-115996613D01*
X125554528Y-116150149D01*
X125503992Y-116316745D01*
X125486928Y-116489999D01*
X125486928Y-117190001D01*
X125503992Y-117363255D01*
X125554528Y-117529851D01*
X125636595Y-117683387D01*
X125747038Y-117817962D01*
X125881613Y-117928405D01*
X125886111Y-117930809D01*
X125847498Y-117962498D01*
X125693167Y-118150551D01*
X125578489Y-118365099D01*
X125507870Y-118597898D01*
X125484025Y-118840000D01*
X115815975Y-118840000D01*
X115792130Y-118597898D01*
X115721511Y-118365099D01*
X115606833Y-118150551D01*
X115452502Y-117962498D01*
X115413889Y-117930809D01*
X115418387Y-117928405D01*
X115552962Y-117817962D01*
X115663405Y-117683387D01*
X115745472Y-117529851D01*
X115796008Y-117363255D01*
X115813072Y-117190001D01*
X115813072Y-116489999D01*
X115796008Y-116316745D01*
X115745472Y-116150149D01*
X115663405Y-115996613D01*
X115552962Y-115862038D01*
X115418387Y-115751595D01*
X115264851Y-115669528D01*
X115098255Y-115618992D01*
X114925001Y-115601928D01*
X113674999Y-115601928D01*
X113501745Y-115618992D01*
X113335149Y-115669528D01*
X113181613Y-115751595D01*
X113047038Y-115862038D01*
X112936595Y-115996613D01*
X112854528Y-116150149D01*
X112803992Y-116316745D01*
X112786928Y-116489999D01*
X112786928Y-117190001D01*
X112803992Y-117363255D01*
X112854528Y-117529851D01*
X112936595Y-117683387D01*
X113047038Y-117817962D01*
X113181613Y-117928405D01*
X113186111Y-117930809D01*
X113147498Y-117962498D01*
X112993167Y-118150551D01*
X112878489Y-118365099D01*
X112807870Y-118597898D01*
X112784025Y-118840000D01*
X103115975Y-118840000D01*
X103092130Y-118597898D01*
X103021511Y-118365099D01*
X102906833Y-118150551D01*
X102752502Y-117962498D01*
X102713889Y-117930809D01*
X102718387Y-117928405D01*
X102852962Y-117817962D01*
X102963405Y-117683387D01*
X103045472Y-117529851D01*
X103096008Y-117363255D01*
X103113072Y-117190001D01*
X103113072Y-116489999D01*
X103096008Y-116316745D01*
X103045472Y-116150149D01*
X102963405Y-115996613D01*
X102852962Y-115862038D01*
X102718387Y-115751595D01*
X102564851Y-115669528D01*
X102398255Y-115618992D01*
X102225001Y-115601928D01*
X100974999Y-115601928D01*
X100801745Y-115618992D01*
X100635149Y-115669528D01*
X100481613Y-115751595D01*
X100347038Y-115862038D01*
X100236595Y-115996613D01*
X100154528Y-116150149D01*
X100103992Y-116316745D01*
X100086928Y-116489999D01*
X100086928Y-117190001D01*
X100103992Y-117363255D01*
X100154528Y-117529851D01*
X100236595Y-117683387D01*
X100347038Y-117817962D01*
X100481613Y-117928405D01*
X100486111Y-117930809D01*
X100447498Y-117962498D01*
X100293167Y-118150551D01*
X100178489Y-118365099D01*
X100107870Y-118597898D01*
X100084025Y-118840000D01*
X90415975Y-118840000D01*
X90392130Y-118597898D01*
X90321511Y-118365099D01*
X90206833Y-118150551D01*
X90052502Y-117962498D01*
X90013889Y-117930809D01*
X90018387Y-117928405D01*
X90152962Y-117817962D01*
X90263405Y-117683387D01*
X90345472Y-117529851D01*
X90396008Y-117363255D01*
X90413072Y-117190001D01*
X90413072Y-116489999D01*
X90396008Y-116316745D01*
X90345472Y-116150149D01*
X90263405Y-115996613D01*
X90152962Y-115862038D01*
X90018387Y-115751595D01*
X89864851Y-115669528D01*
X89698255Y-115618992D01*
X89525001Y-115601928D01*
X88274999Y-115601928D01*
X88101745Y-115618992D01*
X87935149Y-115669528D01*
X87781613Y-115751595D01*
X87647038Y-115862038D01*
X87536595Y-115996613D01*
X87454528Y-116150149D01*
X87403992Y-116316745D01*
X87386928Y-116489999D01*
X87386928Y-117190001D01*
X87403992Y-117363255D01*
X87454528Y-117529851D01*
X87536595Y-117683387D01*
X87647038Y-117817962D01*
X87781613Y-117928405D01*
X87786111Y-117930809D01*
X87747498Y-117962498D01*
X87593167Y-118150551D01*
X87478489Y-118365099D01*
X87407870Y-118597898D01*
X87384025Y-118840000D01*
X77715975Y-118840000D01*
X77692130Y-118597898D01*
X77621511Y-118365099D01*
X77506833Y-118150551D01*
X77352502Y-117962498D01*
X77313889Y-117930809D01*
X77318387Y-117928405D01*
X77452962Y-117817962D01*
X77563405Y-117683387D01*
X77645472Y-117529851D01*
X77696008Y-117363255D01*
X77713072Y-117190001D01*
X77713072Y-116489999D01*
X77696008Y-116316745D01*
X77645472Y-116150149D01*
X77563405Y-115996613D01*
X77452962Y-115862038D01*
X77318387Y-115751595D01*
X77164851Y-115669528D01*
X76998255Y-115618992D01*
X76825001Y-115601928D01*
X75574999Y-115601928D01*
X75401745Y-115618992D01*
X75235149Y-115669528D01*
X75081613Y-115751595D01*
X74947038Y-115862038D01*
X74836595Y-115996613D01*
X74754528Y-116150149D01*
X74703992Y-116316745D01*
X74686928Y-116489999D01*
X74686928Y-117190001D01*
X74703992Y-117363255D01*
X74754528Y-117529851D01*
X74836595Y-117683387D01*
X74947038Y-117817962D01*
X75081613Y-117928405D01*
X75086111Y-117930809D01*
X75047498Y-117962498D01*
X74893167Y-118150551D01*
X74778489Y-118365099D01*
X74707870Y-118597898D01*
X74684025Y-118840000D01*
X66725000Y-118840000D01*
X66725000Y-109905000D01*
X146635000Y-109905000D01*
X146635001Y-151715000D01*
G37*
%TD.AperFunction*%
%TD*%
M02*
