%TF.GenerationSoftware,KiCad,Pcbnew,(5.1.9)-1*%
%TF.CreationDate,2021-07-12T10:29:01+01:00*%
%TF.ProjectId,board,626f6172-642e-46b6-9963-61645f706362,rev?*%
%TF.SameCoordinates,Original*%
%TF.FileFunction,Copper,L2,Bot*%
%TF.FilePolarity,Positive*%
%FSLAX46Y46*%
G04 Gerber Fmt 4.6, Leading zero omitted, Abs format (unit mm)*
G04 Created by KiCad (PCBNEW (5.1.9)-1) date 2021-07-12 10:29:01*
%MOMM*%
%LPD*%
G01*
G04 APERTURE LIST*
%TA.AperFunction,ComponentPad*%
%ADD10O,1.700000X1.700000*%
%TD*%
%TA.AperFunction,ComponentPad*%
%ADD11R,1.700000X1.700000*%
%TD*%
%TA.AperFunction,ComponentPad*%
%ADD12O,1.950000X1.700000*%
%TD*%
%TA.AperFunction,ComponentPad*%
%ADD13C,3.500000*%
%TD*%
%TA.AperFunction,ComponentPad*%
%ADD14R,3.500000X3.500000*%
%TD*%
%TA.AperFunction,ComponentPad*%
%ADD15C,1.400000*%
%TD*%
%TA.AperFunction,ComponentPad*%
%ADD16O,1.700000X1.950000*%
%TD*%
%TA.AperFunction,ComponentPad*%
%ADD17O,1.750000X1.200000*%
%TD*%
%TA.AperFunction,Conductor*%
%ADD18C,1.800000*%
%TD*%
%TA.AperFunction,Conductor*%
%ADD19C,2.500000*%
%TD*%
%TA.AperFunction,Conductor*%
%ADD20C,0.254000*%
%TD*%
%TA.AperFunction,Conductor*%
%ADD21C,0.100000*%
%TD*%
G04 APERTURE END LIST*
D10*
%TO.P,JP1,2*%
%TO.N,Net-(J1-Pad2)*%
X99060000Y-133350000D03*
D11*
%TO.P,JP1,1*%
%TO.N,VCC*%
X99060000Y-130810000D03*
%TD*%
D12*
%TO.P,J13,7*%
%TO.N,Net-(J11-Pad4)*%
X76200000Y-142000000D03*
%TO.P,J13,6*%
%TO.N,Net-(J11-Pad3)*%
X76200000Y-139500000D03*
%TO.P,J13,5*%
%TO.N,Net-(J11-Pad2)*%
X76200000Y-137000000D03*
%TO.P,J13,4*%
%TO.N,Net-(J10-Pad4)*%
X76200000Y-134500000D03*
%TO.P,J13,3*%
%TO.N,Net-(J10-Pad3)*%
X76200000Y-132000000D03*
%TO.P,J13,2*%
%TO.N,Net-(J1-Pad2)*%
X76200000Y-129500000D03*
%TO.P,J13,1*%
%TO.N,GND*%
%TA.AperFunction,ComponentPad*%
G36*
G01*
X75475000Y-126150000D02*
X76925000Y-126150000D01*
G75*
G02*
X77175000Y-126400000I0J-250000D01*
G01*
X77175000Y-127600000D01*
G75*
G02*
X76925000Y-127850000I-250000J0D01*
G01*
X75475000Y-127850000D01*
G75*
G02*
X75225000Y-127600000I0J250000D01*
G01*
X75225000Y-126400000D01*
G75*
G02*
X75475000Y-126150000I250000J0D01*
G01*
G37*
%TD.AperFunction*%
%TD*%
D10*
%TO.P,JP5,2*%
%TO.N,Net-(J11-Pad3)*%
X119380000Y-133350000D03*
D11*
%TO.P,JP5,1*%
%TO.N,VCC*%
X119380000Y-130810000D03*
%TD*%
D10*
%TO.P,JP2,2*%
%TO.N,Net-(J10-Pad3)*%
X104140000Y-133350000D03*
D11*
%TO.P,JP2,1*%
%TO.N,VCC*%
X104140000Y-130810000D03*
%TD*%
D10*
%TO.P,JP3,2*%
%TO.N,Net-(J10-Pad4)*%
X109220000Y-133350000D03*
D11*
%TO.P,JP3,1*%
%TO.N,VCC*%
X109220000Y-130810000D03*
%TD*%
D10*
%TO.P,JP4,2*%
%TO.N,Net-(J11-Pad2)*%
X114300000Y-133350000D03*
D11*
%TO.P,JP4,1*%
%TO.N,VCC*%
X114300000Y-130810000D03*
%TD*%
D10*
%TO.P,JP6,2*%
%TO.N,Net-(J11-Pad4)*%
X124460000Y-133350000D03*
D11*
%TO.P,JP6,1*%
%TO.N,VCC*%
X124460000Y-130810000D03*
%TD*%
D13*
%TO.P,J12,2*%
%TO.N,VCC*%
X81280000Y-151210000D03*
D14*
%TO.P,J12,1*%
%TO.N,GND*%
X81280000Y-156210000D03*
D15*
%TO.P,J12,*%
%TO.N,*%
X76280000Y-148210000D03*
X76280000Y-159210000D03*
%TD*%
D16*
%TO.P,J11,4*%
%TO.N,Net-(J11-Pad4)*%
X124340000Y-156210000D03*
%TO.P,J11,3*%
%TO.N,Net-(J11-Pad3)*%
X121840000Y-156210000D03*
%TO.P,J11,2*%
%TO.N,Net-(J11-Pad2)*%
X119340000Y-156210000D03*
%TO.P,J11,1*%
%TO.N,Net-(J10-Pad4)*%
%TA.AperFunction,ComponentPad*%
G36*
G01*
X115990000Y-156935000D02*
X115990000Y-155485000D01*
G75*
G02*
X116240000Y-155235000I250000J0D01*
G01*
X117440000Y-155235000D01*
G75*
G02*
X117690000Y-155485000I0J-250000D01*
G01*
X117690000Y-156935000D01*
G75*
G02*
X117440000Y-157185000I-250000J0D01*
G01*
X116240000Y-157185000D01*
G75*
G02*
X115990000Y-156935000I0J250000D01*
G01*
G37*
%TD.AperFunction*%
%TD*%
%TO.P,J10,4*%
%TO.N,Net-(J10-Pad4)*%
X105290000Y-156210000D03*
%TO.P,J10,3*%
%TO.N,Net-(J10-Pad3)*%
X102790000Y-156210000D03*
%TO.P,J10,2*%
%TO.N,Net-(J1-Pad2)*%
X100290000Y-156210000D03*
%TO.P,J10,1*%
%TO.N,GND*%
%TA.AperFunction,ComponentPad*%
G36*
G01*
X96940000Y-156935000D02*
X96940000Y-155485000D01*
G75*
G02*
X97190000Y-155235000I250000J0D01*
G01*
X98390000Y-155235000D01*
G75*
G02*
X98640000Y-155485000I0J-250000D01*
G01*
X98640000Y-156935000D01*
G75*
G02*
X98390000Y-157185000I-250000J0D01*
G01*
X97190000Y-157185000D01*
G75*
G02*
X96940000Y-156935000I0J250000D01*
G01*
G37*
%TD.AperFunction*%
%TD*%
%TO.P,J9,1*%
%TO.N,Net-(J11-Pad2)*%
%TA.AperFunction,ComponentPad*%
G36*
G01*
X144235000Y-126580000D02*
X142785000Y-126580000D01*
G75*
G02*
X142535000Y-126330000I0J250000D01*
G01*
X142535000Y-125130000D01*
G75*
G02*
X142785000Y-124880000I250000J0D01*
G01*
X144235000Y-124880000D01*
G75*
G02*
X144485000Y-125130000I0J-250000D01*
G01*
X144485000Y-126330000D01*
G75*
G02*
X144235000Y-126580000I-250000J0D01*
G01*
G37*
%TD.AperFunction*%
D12*
%TO.P,J9,2*%
%TO.N,Net-(J11-Pad3)*%
X143510000Y-123230000D03*
%TO.P,J9,3*%
%TO.N,Net-(J11-Pad4)*%
X143510000Y-120730000D03*
%TD*%
%TO.P,J8,1*%
%TO.N,Net-(J10-Pad3)*%
%TA.AperFunction,ComponentPad*%
G36*
G01*
X144235000Y-140550000D02*
X142785000Y-140550000D01*
G75*
G02*
X142535000Y-140300000I0J250000D01*
G01*
X142535000Y-139100000D01*
G75*
G02*
X142785000Y-138850000I250000J0D01*
G01*
X144235000Y-138850000D01*
G75*
G02*
X144485000Y-139100000I0J-250000D01*
G01*
X144485000Y-140300000D01*
G75*
G02*
X144235000Y-140550000I-250000J0D01*
G01*
G37*
%TD.AperFunction*%
%TO.P,J8,2*%
%TO.N,Net-(J10-Pad4)*%
X143510000Y-137200000D03*
%TO.P,J8,3*%
%TO.N,Net-(J11-Pad2)*%
X143510000Y-134700000D03*
%TD*%
%TO.P,J7,1*%
%TO.N,GND*%
%TA.AperFunction,ComponentPad*%
G36*
G01*
X144235000Y-154520000D02*
X142785000Y-154520000D01*
G75*
G02*
X142535000Y-154270000I0J250000D01*
G01*
X142535000Y-153070000D01*
G75*
G02*
X142785000Y-152820000I250000J0D01*
G01*
X144235000Y-152820000D01*
G75*
G02*
X144485000Y-153070000I0J-250000D01*
G01*
X144485000Y-154270000D01*
G75*
G02*
X144235000Y-154520000I-250000J0D01*
G01*
G37*
%TD.AperFunction*%
%TO.P,J7,2*%
%TO.N,Net-(J1-Pad2)*%
X143510000Y-151170000D03*
%TO.P,J7,3*%
%TO.N,Net-(J10-Pad3)*%
X143510000Y-148670000D03*
%TD*%
D17*
%TO.P,J6,2*%
%TO.N,Net-(J11-Pad4)*%
X132080000Y-116110000D03*
%TO.P,J6,1*%
%TO.N,Net-(J11-Pad3)*%
%TA.AperFunction,ComponentPad*%
G36*
G01*
X132705001Y-118710000D02*
X131454999Y-118710000D01*
G75*
G02*
X131205000Y-118460001I0J249999D01*
G01*
X131205000Y-117759999D01*
G75*
G02*
X131454999Y-117510000I249999J0D01*
G01*
X132705001Y-117510000D01*
G75*
G02*
X132955000Y-117759999I0J-249999D01*
G01*
X132955000Y-118460001D01*
G75*
G02*
X132705001Y-118710000I-249999J0D01*
G01*
G37*
%TD.AperFunction*%
%TD*%
%TO.P,J5,2*%
%TO.N,Net-(J11-Pad3)*%
X120650000Y-116110000D03*
%TO.P,J5,1*%
%TO.N,Net-(J11-Pad2)*%
%TA.AperFunction,ComponentPad*%
G36*
G01*
X121275001Y-118710000D02*
X120024999Y-118710000D01*
G75*
G02*
X119775000Y-118460001I0J249999D01*
G01*
X119775000Y-117759999D01*
G75*
G02*
X120024999Y-117510000I249999J0D01*
G01*
X121275001Y-117510000D01*
G75*
G02*
X121525000Y-117759999I0J-249999D01*
G01*
X121525000Y-118460001D01*
G75*
G02*
X121275001Y-118710000I-249999J0D01*
G01*
G37*
%TD.AperFunction*%
%TD*%
%TO.P,J4,2*%
%TO.N,Net-(J11-Pad2)*%
X109220000Y-116110000D03*
%TO.P,J4,1*%
%TO.N,Net-(J10-Pad4)*%
%TA.AperFunction,ComponentPad*%
G36*
G01*
X109845001Y-118710000D02*
X108594999Y-118710000D01*
G75*
G02*
X108345000Y-118460001I0J249999D01*
G01*
X108345000Y-117759999D01*
G75*
G02*
X108594999Y-117510000I249999J0D01*
G01*
X109845001Y-117510000D01*
G75*
G02*
X110095000Y-117759999I0J-249999D01*
G01*
X110095000Y-118460001D01*
G75*
G02*
X109845001Y-118710000I-249999J0D01*
G01*
G37*
%TD.AperFunction*%
%TD*%
%TO.P,J3,2*%
%TO.N,Net-(J10-Pad4)*%
X97790000Y-116110000D03*
%TO.P,J3,1*%
%TO.N,Net-(J10-Pad3)*%
%TA.AperFunction,ComponentPad*%
G36*
G01*
X98415001Y-118710000D02*
X97164999Y-118710000D01*
G75*
G02*
X96915000Y-118460001I0J249999D01*
G01*
X96915000Y-117759999D01*
G75*
G02*
X97164999Y-117510000I249999J0D01*
G01*
X98415001Y-117510000D01*
G75*
G02*
X98665000Y-117759999I0J-249999D01*
G01*
X98665000Y-118460001D01*
G75*
G02*
X98415001Y-118710000I-249999J0D01*
G01*
G37*
%TD.AperFunction*%
%TD*%
%TO.P,J2,2*%
%TO.N,Net-(J10-Pad3)*%
X86360000Y-116110000D03*
%TO.P,J2,1*%
%TO.N,Net-(J1-Pad2)*%
%TA.AperFunction,ComponentPad*%
G36*
G01*
X86985001Y-118710000D02*
X85734999Y-118710000D01*
G75*
G02*
X85485000Y-118460001I0J249999D01*
G01*
X85485000Y-117759999D01*
G75*
G02*
X85734999Y-117510000I249999J0D01*
G01*
X86985001Y-117510000D01*
G75*
G02*
X87235000Y-117759999I0J-249999D01*
G01*
X87235000Y-118460001D01*
G75*
G02*
X86985001Y-118710000I-249999J0D01*
G01*
G37*
%TD.AperFunction*%
%TD*%
%TO.P,J1,2*%
%TO.N,Net-(J1-Pad2)*%
X74930000Y-116110000D03*
%TO.P,J1,1*%
%TO.N,GND*%
%TA.AperFunction,ComponentPad*%
G36*
G01*
X75555001Y-118710000D02*
X74304999Y-118710000D01*
G75*
G02*
X74055000Y-118460001I0J249999D01*
G01*
X74055000Y-117759999D01*
G75*
G02*
X74304999Y-117510000I249999J0D01*
G01*
X75555001Y-117510000D01*
G75*
G02*
X75805000Y-117759999I0J-249999D01*
G01*
X75805000Y-118460001D01*
G75*
G02*
X75555001Y-118710000I-249999J0D01*
G01*
G37*
%TD.AperFunction*%
%TD*%
D18*
%TO.N,Net-(J1-Pad2)*%
X75814204Y-116110000D02*
X74930000Y-116110000D01*
X93054204Y-133350000D02*
X75814204Y-116110000D01*
X99060000Y-133350000D02*
X93054204Y-133350000D01*
X100290000Y-134580000D02*
X99060000Y-133350000D01*
X100290000Y-156210000D02*
X100290000Y-134580000D01*
%TO.N,Net-(J10-Pad3)*%
X88040002Y-116110000D02*
X86360000Y-116110000D01*
X101010001Y-129079999D02*
X88040002Y-116110000D01*
X101010001Y-131422082D02*
X101010001Y-129079999D01*
X102937919Y-133350000D02*
X101010001Y-131422082D01*
X104140000Y-133350000D02*
X102937919Y-133350000D01*
X102790000Y-134700000D02*
X104140000Y-133350000D01*
X102790000Y-156210000D02*
X102790000Y-134700000D01*
%TO.N,Net-(J10-Pad4)*%
X98674204Y-116110000D02*
X97790000Y-116110000D01*
X106090001Y-123525797D02*
X98674204Y-116110000D01*
X106090001Y-131422082D02*
X106090001Y-123525797D01*
X108017919Y-133350000D02*
X106090001Y-131422082D01*
X109220000Y-133350000D02*
X108017919Y-133350000D01*
D19*
X105290000Y-137280000D02*
X109220000Y-133350000D01*
X105290000Y-156210000D02*
X105290000Y-137280000D01*
X116840000Y-156210000D02*
X105290000Y-156210000D01*
D18*
%TO.N,Net-(J11-Pad2)*%
X110104204Y-116110000D02*
X109220000Y-116110000D01*
X111195010Y-117200806D02*
X110104204Y-116110000D01*
X111195010Y-131447091D02*
X111195010Y-117200806D01*
X113097919Y-133350000D02*
X111195010Y-131447091D01*
X114300000Y-133350000D02*
X113097919Y-133350000D01*
X119340000Y-138390000D02*
X114300000Y-133350000D01*
X119340000Y-156210000D02*
X119340000Y-138390000D01*
%TO.N,Net-(J11-Pad3)*%
X119765796Y-116110000D02*
X120650000Y-116110000D01*
X117429999Y-118445797D02*
X119765796Y-116110000D01*
X117429999Y-132602080D02*
X117429999Y-118445797D01*
X118177919Y-133350000D02*
X117429999Y-132602080D01*
X119380000Y-133350000D02*
X118177919Y-133350000D01*
X121840000Y-135810000D02*
X119380000Y-133350000D01*
X121840000Y-156210000D02*
X121840000Y-135810000D01*
%TO.N,Net-(J11-Pad4)*%
X125662081Y-133350000D02*
X127000000Y-132012081D01*
X124460000Y-133350000D02*
X125662081Y-133350000D01*
X129405000Y-116110000D02*
X132080000Y-116110000D01*
X127000000Y-118515000D02*
X129405000Y-116110000D01*
X127000000Y-132012081D02*
X127000000Y-118515000D01*
D19*
X124340000Y-133470000D02*
X124460000Y-133350000D01*
X124340000Y-156210000D02*
X124340000Y-133470000D01*
%TD*%
D20*
%TO.N,GND*%
X147930001Y-160630000D02*
X66700000Y-160630000D01*
X66700000Y-159078514D01*
X74945000Y-159078514D01*
X74945000Y-159341486D01*
X74996304Y-159599405D01*
X75096939Y-159842359D01*
X75243038Y-160061013D01*
X75428987Y-160246962D01*
X75647641Y-160393061D01*
X75890595Y-160493696D01*
X76148514Y-160545000D01*
X76411486Y-160545000D01*
X76669405Y-160493696D01*
X76912359Y-160393061D01*
X77131013Y-160246962D01*
X77316962Y-160061013D01*
X77463061Y-159842359D01*
X77563696Y-159599405D01*
X77615000Y-159341486D01*
X77615000Y-159078514D01*
X77563696Y-158820595D01*
X77463061Y-158577641D01*
X77316962Y-158358987D01*
X77131013Y-158173038D01*
X76912359Y-158026939D01*
X76669405Y-157926304D01*
X76411486Y-157875000D01*
X76148514Y-157875000D01*
X75890595Y-157926304D01*
X75647641Y-158026939D01*
X75428987Y-158173038D01*
X75243038Y-158358987D01*
X75096939Y-158577641D01*
X74996304Y-158820595D01*
X74945000Y-159078514D01*
X66700000Y-159078514D01*
X66700000Y-150975098D01*
X78895000Y-150975098D01*
X78895000Y-151444902D01*
X78986654Y-151905679D01*
X79166440Y-152339721D01*
X79427450Y-152730349D01*
X79759651Y-153062550D01*
X80150279Y-153323560D01*
X80584321Y-153503346D01*
X81045098Y-153595000D01*
X81514902Y-153595000D01*
X81975679Y-153503346D01*
X82409721Y-153323560D01*
X82800349Y-153062550D01*
X83132550Y-152730349D01*
X83393560Y-152339721D01*
X83573346Y-151905679D01*
X83665000Y-151444902D01*
X83665000Y-150975098D01*
X83573346Y-150514321D01*
X83393560Y-150080279D01*
X83132550Y-149689651D01*
X82800349Y-149357450D01*
X82409721Y-149096440D01*
X81975679Y-148916654D01*
X81514902Y-148825000D01*
X81045098Y-148825000D01*
X80584321Y-148916654D01*
X80150279Y-149096440D01*
X79759651Y-149357450D01*
X79427450Y-149689651D01*
X79166440Y-150080279D01*
X78986654Y-150514321D01*
X78895000Y-150975098D01*
X66700000Y-150975098D01*
X66700000Y-148078514D01*
X74945000Y-148078514D01*
X74945000Y-148341486D01*
X74996304Y-148599405D01*
X75096939Y-148842359D01*
X75243038Y-149061013D01*
X75428987Y-149246962D01*
X75647641Y-149393061D01*
X75890595Y-149493696D01*
X76148514Y-149545000D01*
X76411486Y-149545000D01*
X76669405Y-149493696D01*
X76912359Y-149393061D01*
X77131013Y-149246962D01*
X77316962Y-149061013D01*
X77463061Y-148842359D01*
X77563696Y-148599405D01*
X77615000Y-148341486D01*
X77615000Y-148078514D01*
X77563696Y-147820595D01*
X77463061Y-147577641D01*
X77316962Y-147358987D01*
X77131013Y-147173038D01*
X76912359Y-147026939D01*
X76669405Y-146926304D01*
X76411486Y-146875000D01*
X76148514Y-146875000D01*
X75890595Y-146926304D01*
X75647641Y-147026939D01*
X75428987Y-147173038D01*
X75243038Y-147358987D01*
X75096939Y-147577641D01*
X74996304Y-147820595D01*
X74945000Y-148078514D01*
X66700000Y-148078514D01*
X66700000Y-129500000D01*
X74582815Y-129500000D01*
X74611487Y-129791111D01*
X74696401Y-130071034D01*
X74834294Y-130329014D01*
X75019866Y-130555134D01*
X75245986Y-130740706D01*
X75263374Y-130750000D01*
X75245986Y-130759294D01*
X75019866Y-130944866D01*
X74834294Y-131170986D01*
X74696401Y-131428966D01*
X74611487Y-131708889D01*
X74582815Y-132000000D01*
X74611487Y-132291111D01*
X74696401Y-132571034D01*
X74834294Y-132829014D01*
X75019866Y-133055134D01*
X75245986Y-133240706D01*
X75263374Y-133250000D01*
X75245986Y-133259294D01*
X75019866Y-133444866D01*
X74834294Y-133670986D01*
X74696401Y-133928966D01*
X74611487Y-134208889D01*
X74582815Y-134500000D01*
X74611487Y-134791111D01*
X74696401Y-135071034D01*
X74834294Y-135329014D01*
X75019866Y-135555134D01*
X75245986Y-135740706D01*
X75263374Y-135750000D01*
X75245986Y-135759294D01*
X75019866Y-135944866D01*
X74834294Y-136170986D01*
X74696401Y-136428966D01*
X74611487Y-136708889D01*
X74582815Y-137000000D01*
X74611487Y-137291111D01*
X74696401Y-137571034D01*
X74834294Y-137829014D01*
X75019866Y-138055134D01*
X75245986Y-138240706D01*
X75263374Y-138250000D01*
X75245986Y-138259294D01*
X75019866Y-138444866D01*
X74834294Y-138670986D01*
X74696401Y-138928966D01*
X74611487Y-139208889D01*
X74582815Y-139500000D01*
X74611487Y-139791111D01*
X74696401Y-140071034D01*
X74834294Y-140329014D01*
X75019866Y-140555134D01*
X75245986Y-140740706D01*
X75263374Y-140750000D01*
X75245986Y-140759294D01*
X75019866Y-140944866D01*
X74834294Y-141170986D01*
X74696401Y-141428966D01*
X74611487Y-141708889D01*
X74582815Y-142000000D01*
X74611487Y-142291111D01*
X74696401Y-142571034D01*
X74834294Y-142829014D01*
X75019866Y-143055134D01*
X75245986Y-143240706D01*
X75503966Y-143378599D01*
X75783889Y-143463513D01*
X76002050Y-143485000D01*
X76397950Y-143485000D01*
X76616111Y-143463513D01*
X76896034Y-143378599D01*
X77154014Y-143240706D01*
X77380134Y-143055134D01*
X77565706Y-142829014D01*
X77703599Y-142571034D01*
X77788513Y-142291111D01*
X77817185Y-142000000D01*
X77788513Y-141708889D01*
X77703599Y-141428966D01*
X77565706Y-141170986D01*
X77380134Y-140944866D01*
X77154014Y-140759294D01*
X77136626Y-140750000D01*
X77154014Y-140740706D01*
X77380134Y-140555134D01*
X77565706Y-140329014D01*
X77703599Y-140071034D01*
X77788513Y-139791111D01*
X77817185Y-139500000D01*
X77788513Y-139208889D01*
X77703599Y-138928966D01*
X77565706Y-138670986D01*
X77380134Y-138444866D01*
X77154014Y-138259294D01*
X77136626Y-138250000D01*
X77154014Y-138240706D01*
X77380134Y-138055134D01*
X77565706Y-137829014D01*
X77703599Y-137571034D01*
X77788513Y-137291111D01*
X77817185Y-137000000D01*
X77788513Y-136708889D01*
X77703599Y-136428966D01*
X77565706Y-136170986D01*
X77380134Y-135944866D01*
X77154014Y-135759294D01*
X77136626Y-135750000D01*
X77154014Y-135740706D01*
X77380134Y-135555134D01*
X77565706Y-135329014D01*
X77703599Y-135071034D01*
X77788513Y-134791111D01*
X77817185Y-134500000D01*
X77788513Y-134208889D01*
X77703599Y-133928966D01*
X77565706Y-133670986D01*
X77380134Y-133444866D01*
X77154014Y-133259294D01*
X77136626Y-133250000D01*
X77154014Y-133240706D01*
X77380134Y-133055134D01*
X77565706Y-132829014D01*
X77703599Y-132571034D01*
X77788513Y-132291111D01*
X77817185Y-132000000D01*
X77788513Y-131708889D01*
X77703599Y-131428966D01*
X77565706Y-131170986D01*
X77380134Y-130944866D01*
X77154014Y-130759294D01*
X77136626Y-130750000D01*
X77154014Y-130740706D01*
X77380134Y-130555134D01*
X77565706Y-130329014D01*
X77703599Y-130071034D01*
X77788513Y-129791111D01*
X77817185Y-129500000D01*
X77788513Y-129208889D01*
X77703599Y-128928966D01*
X77565706Y-128670986D01*
X77380134Y-128444866D01*
X77154014Y-128259294D01*
X76896034Y-128121401D01*
X76616111Y-128036487D01*
X76397950Y-128015000D01*
X76002050Y-128015000D01*
X75783889Y-128036487D01*
X75503966Y-128121401D01*
X75245986Y-128259294D01*
X75019866Y-128444866D01*
X74834294Y-128670986D01*
X74696401Y-128928966D01*
X74611487Y-129208889D01*
X74582815Y-129500000D01*
X66700000Y-129500000D01*
X66700000Y-116110000D01*
X73387573Y-116110000D01*
X73417210Y-116410913D01*
X73504983Y-116700261D01*
X73647519Y-116966927D01*
X73839339Y-117200661D01*
X74073073Y-117392481D01*
X74339739Y-117535017D01*
X74629087Y-117622790D01*
X74854592Y-117645000D01*
X75178387Y-117645000D01*
X91915471Y-134382085D01*
X91963543Y-134440661D01*
X92197277Y-134632481D01*
X92463943Y-134775017D01*
X92753291Y-134862790D01*
X92978796Y-134885000D01*
X93054204Y-134892427D01*
X93129612Y-134885000D01*
X98424183Y-134885000D01*
X98755001Y-135215819D01*
X98755000Y-156285407D01*
X98777210Y-156510912D01*
X98864983Y-156800260D01*
X98898122Y-156862258D01*
X98911401Y-156906034D01*
X99049294Y-157164014D01*
X99234866Y-157390134D01*
X99460987Y-157575706D01*
X99718967Y-157713599D01*
X99998890Y-157798513D01*
X100290000Y-157827185D01*
X100581111Y-157798513D01*
X100861034Y-157713599D01*
X101119014Y-157575706D01*
X101345134Y-157390134D01*
X101530706Y-157164014D01*
X101540000Y-157146626D01*
X101549294Y-157164014D01*
X101734866Y-157390134D01*
X101960987Y-157575706D01*
X102218967Y-157713599D01*
X102498890Y-157798513D01*
X102790000Y-157827185D01*
X103081111Y-157798513D01*
X103361034Y-157713599D01*
X103619014Y-157575706D01*
X103830112Y-157402463D01*
X103950655Y-157549345D01*
X104237683Y-157784903D01*
X104565152Y-157959939D01*
X104920476Y-158067725D01*
X105290000Y-158104120D01*
X105382597Y-158095000D01*
X116932597Y-158095000D01*
X117209524Y-158067725D01*
X117564848Y-157959939D01*
X117892317Y-157784903D01*
X118179345Y-157549345D01*
X118299888Y-157402463D01*
X118510987Y-157575706D01*
X118768967Y-157713599D01*
X119048890Y-157798513D01*
X119340000Y-157827185D01*
X119631111Y-157798513D01*
X119911034Y-157713599D01*
X120169014Y-157575706D01*
X120395134Y-157390134D01*
X120580706Y-157164014D01*
X120590000Y-157146626D01*
X120599294Y-157164014D01*
X120784866Y-157390134D01*
X121010987Y-157575706D01*
X121268967Y-157713599D01*
X121548890Y-157798513D01*
X121840000Y-157827185D01*
X122131111Y-157798513D01*
X122411034Y-157713599D01*
X122669014Y-157575706D01*
X122880112Y-157402463D01*
X123000655Y-157549345D01*
X123287683Y-157784903D01*
X123615152Y-157959939D01*
X123970476Y-158067725D01*
X124340000Y-158104120D01*
X124709523Y-158067725D01*
X125064847Y-157959939D01*
X125392317Y-157784903D01*
X125679345Y-157549345D01*
X125914903Y-157262317D01*
X126089939Y-156934848D01*
X126197725Y-156579524D01*
X126225000Y-156302597D01*
X126225000Y-148670000D01*
X141892815Y-148670000D01*
X141921487Y-148961111D01*
X142006401Y-149241034D01*
X142144294Y-149499014D01*
X142329866Y-149725134D01*
X142555986Y-149910706D01*
X142573374Y-149920000D01*
X142555986Y-149929294D01*
X142329866Y-150114866D01*
X142144294Y-150340986D01*
X142006401Y-150598966D01*
X141921487Y-150878889D01*
X141892815Y-151170000D01*
X141921487Y-151461111D01*
X142006401Y-151741034D01*
X142144294Y-151999014D01*
X142329866Y-152225134D01*
X142555986Y-152410706D01*
X142813966Y-152548599D01*
X143093889Y-152633513D01*
X143312050Y-152655000D01*
X143707950Y-152655000D01*
X143926111Y-152633513D01*
X144206034Y-152548599D01*
X144464014Y-152410706D01*
X144690134Y-152225134D01*
X144875706Y-151999014D01*
X145013599Y-151741034D01*
X145098513Y-151461111D01*
X145127185Y-151170000D01*
X145098513Y-150878889D01*
X145013599Y-150598966D01*
X144875706Y-150340986D01*
X144690134Y-150114866D01*
X144464014Y-149929294D01*
X144446626Y-149920000D01*
X144464014Y-149910706D01*
X144690134Y-149725134D01*
X144875706Y-149499014D01*
X145013599Y-149241034D01*
X145098513Y-148961111D01*
X145127185Y-148670000D01*
X145098513Y-148378889D01*
X145013599Y-148098966D01*
X144875706Y-147840986D01*
X144690134Y-147614866D01*
X144464014Y-147429294D01*
X144206034Y-147291401D01*
X143926111Y-147206487D01*
X143707950Y-147185000D01*
X143312050Y-147185000D01*
X143093889Y-147206487D01*
X142813966Y-147291401D01*
X142555986Y-147429294D01*
X142329866Y-147614866D01*
X142144294Y-147840986D01*
X142006401Y-148098966D01*
X141921487Y-148378889D01*
X141892815Y-148670000D01*
X126225000Y-148670000D01*
X126225000Y-134783311D01*
X126252342Y-134775017D01*
X126392688Y-134700000D01*
X141892815Y-134700000D01*
X141921487Y-134991111D01*
X142006401Y-135271034D01*
X142144294Y-135529014D01*
X142329866Y-135755134D01*
X142555986Y-135940706D01*
X142573374Y-135950000D01*
X142555986Y-135959294D01*
X142329866Y-136144866D01*
X142144294Y-136370986D01*
X142006401Y-136628966D01*
X141921487Y-136908889D01*
X141892815Y-137200000D01*
X141921487Y-137491111D01*
X142006401Y-137771034D01*
X142144294Y-138029014D01*
X142329866Y-138255134D01*
X142393337Y-138307223D01*
X142291614Y-138361595D01*
X142157038Y-138472038D01*
X142046595Y-138606614D01*
X141964528Y-138760150D01*
X141913992Y-138926746D01*
X141896928Y-139100000D01*
X141896928Y-140300000D01*
X141913992Y-140473254D01*
X141964528Y-140639850D01*
X142046595Y-140793386D01*
X142157038Y-140927962D01*
X142291614Y-141038405D01*
X142445150Y-141120472D01*
X142611746Y-141171008D01*
X142785000Y-141188072D01*
X144235000Y-141188072D01*
X144408254Y-141171008D01*
X144574850Y-141120472D01*
X144728386Y-141038405D01*
X144862962Y-140927962D01*
X144973405Y-140793386D01*
X145055472Y-140639850D01*
X145106008Y-140473254D01*
X145123072Y-140300000D01*
X145123072Y-139100000D01*
X145106008Y-138926746D01*
X145055472Y-138760150D01*
X144973405Y-138606614D01*
X144862962Y-138472038D01*
X144728386Y-138361595D01*
X144626663Y-138307223D01*
X144690134Y-138255134D01*
X144875706Y-138029014D01*
X145013599Y-137771034D01*
X145098513Y-137491111D01*
X145127185Y-137200000D01*
X145098513Y-136908889D01*
X145013599Y-136628966D01*
X144875706Y-136370986D01*
X144690134Y-136144866D01*
X144464014Y-135959294D01*
X144446626Y-135950000D01*
X144464014Y-135940706D01*
X144690134Y-135755134D01*
X144875706Y-135529014D01*
X145013599Y-135271034D01*
X145098513Y-134991111D01*
X145127185Y-134700000D01*
X145098513Y-134408889D01*
X145013599Y-134128966D01*
X144875706Y-133870986D01*
X144690134Y-133644866D01*
X144464014Y-133459294D01*
X144206034Y-133321401D01*
X143926111Y-133236487D01*
X143707950Y-133215000D01*
X143312050Y-133215000D01*
X143093889Y-133236487D01*
X142813966Y-133321401D01*
X142555986Y-133459294D01*
X142329866Y-133644866D01*
X142144294Y-133870986D01*
X142006401Y-134128966D01*
X141921487Y-134408889D01*
X141892815Y-134700000D01*
X126392688Y-134700000D01*
X126519008Y-134632481D01*
X126752742Y-134440661D01*
X126800818Y-134382080D01*
X128032086Y-133150813D01*
X128090661Y-133102742D01*
X128282481Y-132869008D01*
X128425017Y-132602342D01*
X128512790Y-132312994D01*
X128535000Y-132087489D01*
X128535000Y-132087488D01*
X128542427Y-132012082D01*
X128535000Y-131936676D01*
X128535000Y-120730000D01*
X141892815Y-120730000D01*
X141921487Y-121021111D01*
X142006401Y-121301034D01*
X142144294Y-121559014D01*
X142329866Y-121785134D01*
X142555986Y-121970706D01*
X142573374Y-121980000D01*
X142555986Y-121989294D01*
X142329866Y-122174866D01*
X142144294Y-122400986D01*
X142006401Y-122658966D01*
X141921487Y-122938889D01*
X141892815Y-123230000D01*
X141921487Y-123521111D01*
X142006401Y-123801034D01*
X142144294Y-124059014D01*
X142329866Y-124285134D01*
X142393337Y-124337223D01*
X142291614Y-124391595D01*
X142157038Y-124502038D01*
X142046595Y-124636614D01*
X141964528Y-124790150D01*
X141913992Y-124956746D01*
X141896928Y-125130000D01*
X141896928Y-126330000D01*
X141913992Y-126503254D01*
X141964528Y-126669850D01*
X142046595Y-126823386D01*
X142157038Y-126957962D01*
X142291614Y-127068405D01*
X142445150Y-127150472D01*
X142611746Y-127201008D01*
X142785000Y-127218072D01*
X144235000Y-127218072D01*
X144408254Y-127201008D01*
X144574850Y-127150472D01*
X144728386Y-127068405D01*
X144862962Y-126957962D01*
X144973405Y-126823386D01*
X145055472Y-126669850D01*
X145106008Y-126503254D01*
X145123072Y-126330000D01*
X145123072Y-125130000D01*
X145106008Y-124956746D01*
X145055472Y-124790150D01*
X144973405Y-124636614D01*
X144862962Y-124502038D01*
X144728386Y-124391595D01*
X144626663Y-124337223D01*
X144690134Y-124285134D01*
X144875706Y-124059014D01*
X145013599Y-123801034D01*
X145098513Y-123521111D01*
X145127185Y-123230000D01*
X145098513Y-122938889D01*
X145013599Y-122658966D01*
X144875706Y-122400986D01*
X144690134Y-122174866D01*
X144464014Y-121989294D01*
X144446626Y-121980000D01*
X144464014Y-121970706D01*
X144690134Y-121785134D01*
X144875706Y-121559014D01*
X145013599Y-121301034D01*
X145098513Y-121021111D01*
X145127185Y-120730000D01*
X145098513Y-120438889D01*
X145013599Y-120158966D01*
X144875706Y-119900986D01*
X144690134Y-119674866D01*
X144464014Y-119489294D01*
X144206034Y-119351401D01*
X143926111Y-119266487D01*
X143707950Y-119245000D01*
X143312050Y-119245000D01*
X143093889Y-119266487D01*
X142813966Y-119351401D01*
X142555986Y-119489294D01*
X142329866Y-119674866D01*
X142144294Y-119900986D01*
X142006401Y-120158966D01*
X141921487Y-120438889D01*
X141892815Y-120730000D01*
X128535000Y-120730000D01*
X128535000Y-119150817D01*
X130040818Y-117645000D01*
X130578254Y-117645000D01*
X130566928Y-117759999D01*
X130566928Y-118460001D01*
X130583992Y-118633255D01*
X130634528Y-118799851D01*
X130716595Y-118953387D01*
X130827038Y-119087962D01*
X130961613Y-119198405D01*
X131115149Y-119280472D01*
X131281745Y-119331008D01*
X131454999Y-119348072D01*
X132705001Y-119348072D01*
X132878255Y-119331008D01*
X133044851Y-119280472D01*
X133198387Y-119198405D01*
X133332962Y-119087962D01*
X133443405Y-118953387D01*
X133525472Y-118799851D01*
X133576008Y-118633255D01*
X133593072Y-118460001D01*
X133593072Y-117759999D01*
X133576008Y-117586745D01*
X133525472Y-117420149D01*
X133443405Y-117266613D01*
X133332962Y-117132038D01*
X133269632Y-117080064D01*
X133362481Y-116966927D01*
X133505017Y-116700261D01*
X133592790Y-116410913D01*
X133622427Y-116110000D01*
X133592790Y-115809087D01*
X133505017Y-115519739D01*
X133362481Y-115253073D01*
X133170661Y-115019339D01*
X132936927Y-114827519D01*
X132670261Y-114684983D01*
X132380913Y-114597210D01*
X132155408Y-114575000D01*
X129480408Y-114575000D01*
X129405000Y-114567573D01*
X129329592Y-114575000D01*
X129104087Y-114597210D01*
X128959413Y-114641096D01*
X128814738Y-114684983D01*
X128548073Y-114827519D01*
X128314339Y-115019339D01*
X128266267Y-115077915D01*
X125967915Y-117376267D01*
X125909340Y-117424339D01*
X125861270Y-117482913D01*
X125717519Y-117658074D01*
X125574984Y-117924739D01*
X125487211Y-118214088D01*
X125457573Y-118515000D01*
X125465001Y-118590416D01*
X125465000Y-129343446D01*
X125434482Y-129334188D01*
X125310000Y-129321928D01*
X123610000Y-129321928D01*
X123485518Y-129334188D01*
X123365820Y-129370498D01*
X123255506Y-129429463D01*
X123158815Y-129508815D01*
X123079463Y-129605506D01*
X123020498Y-129715820D01*
X122984188Y-129835518D01*
X122971928Y-129960000D01*
X122971928Y-131660000D01*
X122984188Y-131784482D01*
X123020498Y-131904180D01*
X123079463Y-132014494D01*
X123102114Y-132042094D01*
X123072578Y-132071630D01*
X123000656Y-132130655D01*
X122941631Y-132202577D01*
X122941628Y-132202580D01*
X122765098Y-132417683D01*
X122590062Y-132745152D01*
X122482275Y-133100476D01*
X122445881Y-133470000D01*
X122455001Y-133562599D01*
X122455001Y-134254183D01*
X120518737Y-132317920D01*
X120470661Y-132259339D01*
X120462859Y-132252936D01*
X120474180Y-132249502D01*
X120584494Y-132190537D01*
X120681185Y-132111185D01*
X120760537Y-132014494D01*
X120819502Y-131904180D01*
X120855812Y-131784482D01*
X120868072Y-131660000D01*
X120868072Y-129960000D01*
X120855812Y-129835518D01*
X120819502Y-129715820D01*
X120760537Y-129605506D01*
X120681185Y-129508815D01*
X120584494Y-129429463D01*
X120474180Y-129370498D01*
X120354482Y-129334188D01*
X120230000Y-129321928D01*
X118964999Y-129321928D01*
X118964999Y-119081614D01*
X119219239Y-118827374D01*
X119286595Y-118953387D01*
X119397038Y-119087962D01*
X119531613Y-119198405D01*
X119685149Y-119280472D01*
X119851745Y-119331008D01*
X120024999Y-119348072D01*
X121275001Y-119348072D01*
X121448255Y-119331008D01*
X121614851Y-119280472D01*
X121768387Y-119198405D01*
X121902962Y-119087962D01*
X122013405Y-118953387D01*
X122095472Y-118799851D01*
X122146008Y-118633255D01*
X122163072Y-118460001D01*
X122163072Y-117759999D01*
X122146008Y-117586745D01*
X122095472Y-117420149D01*
X122013405Y-117266613D01*
X121902962Y-117132038D01*
X121839632Y-117080064D01*
X121932481Y-116966927D01*
X122075017Y-116700261D01*
X122162790Y-116410913D01*
X122192427Y-116110000D01*
X122162790Y-115809087D01*
X122075017Y-115519739D01*
X121932481Y-115253073D01*
X121740661Y-115019339D01*
X121506927Y-114827519D01*
X121240261Y-114684983D01*
X120950913Y-114597210D01*
X120725408Y-114575000D01*
X119841204Y-114575000D01*
X119765796Y-114567573D01*
X119690388Y-114575000D01*
X119464883Y-114597210D01*
X119175535Y-114684983D01*
X118908869Y-114827519D01*
X118675135Y-115019339D01*
X118627063Y-115077915D01*
X116397914Y-117307064D01*
X116339339Y-117355136D01*
X116219043Y-117501718D01*
X116147518Y-117588871D01*
X116039442Y-117791067D01*
X116004983Y-117855536D01*
X115943648Y-118057732D01*
X115917210Y-118144885D01*
X115887572Y-118445797D01*
X115895000Y-118521213D01*
X115894999Y-132526674D01*
X115887572Y-132602080D01*
X115894999Y-132677486D01*
X115894999Y-132677487D01*
X115905563Y-132784746D01*
X115438737Y-132317920D01*
X115390661Y-132259339D01*
X115382859Y-132252936D01*
X115394180Y-132249502D01*
X115504494Y-132190537D01*
X115601185Y-132111185D01*
X115680537Y-132014494D01*
X115739502Y-131904180D01*
X115775812Y-131784482D01*
X115788072Y-131660000D01*
X115788072Y-129960000D01*
X115775812Y-129835518D01*
X115739502Y-129715820D01*
X115680537Y-129605506D01*
X115601185Y-129508815D01*
X115504494Y-129429463D01*
X115394180Y-129370498D01*
X115274482Y-129334188D01*
X115150000Y-129321928D01*
X113450000Y-129321928D01*
X113325518Y-129334188D01*
X113205820Y-129370498D01*
X113095506Y-129429463D01*
X112998815Y-129508815D01*
X112919463Y-129605506D01*
X112860498Y-129715820D01*
X112824188Y-129835518D01*
X112811928Y-129960000D01*
X112811928Y-130893192D01*
X112730010Y-130811274D01*
X112730010Y-117276214D01*
X112737437Y-117200806D01*
X112707800Y-116899894D01*
X112699317Y-116871928D01*
X112620027Y-116610545D01*
X112477491Y-116343879D01*
X112285671Y-116110145D01*
X112227095Y-116062073D01*
X111242941Y-115077920D01*
X111194865Y-115019339D01*
X110961131Y-114827519D01*
X110694465Y-114684983D01*
X110405117Y-114597210D01*
X110179612Y-114575000D01*
X110179610Y-114575000D01*
X110104204Y-114567573D01*
X110028798Y-114575000D01*
X109144592Y-114575000D01*
X108919087Y-114597210D01*
X108629739Y-114684983D01*
X108363073Y-114827519D01*
X108129339Y-115019339D01*
X107937519Y-115253073D01*
X107794983Y-115519739D01*
X107707210Y-115809087D01*
X107677573Y-116110000D01*
X107707210Y-116410913D01*
X107794983Y-116700261D01*
X107937519Y-116966927D01*
X108030368Y-117080064D01*
X107967038Y-117132038D01*
X107856595Y-117266613D01*
X107774528Y-117420149D01*
X107723992Y-117586745D01*
X107706928Y-117759999D01*
X107706928Y-118460001D01*
X107723992Y-118633255D01*
X107774528Y-118799851D01*
X107856595Y-118953387D01*
X107967038Y-119087962D01*
X108101613Y-119198405D01*
X108255149Y-119280472D01*
X108421745Y-119331008D01*
X108594999Y-119348072D01*
X109660011Y-119348072D01*
X109660010Y-129321928D01*
X108370000Y-129321928D01*
X108245518Y-129334188D01*
X108125820Y-129370498D01*
X108015506Y-129429463D01*
X107918815Y-129508815D01*
X107839463Y-129605506D01*
X107780498Y-129715820D01*
X107744188Y-129835518D01*
X107731928Y-129960000D01*
X107731928Y-130893192D01*
X107625001Y-130786265D01*
X107625001Y-123601205D01*
X107632428Y-123525797D01*
X107602791Y-123224885D01*
X107602791Y-123224884D01*
X107515018Y-122935536D01*
X107372482Y-122668870D01*
X107180662Y-122435136D01*
X107122086Y-122387064D01*
X99812941Y-115077920D01*
X99764865Y-115019339D01*
X99531131Y-114827519D01*
X99264465Y-114684983D01*
X98975117Y-114597210D01*
X98749612Y-114575000D01*
X98749610Y-114575000D01*
X98674204Y-114567573D01*
X98598798Y-114575000D01*
X97714592Y-114575000D01*
X97489087Y-114597210D01*
X97199739Y-114684983D01*
X96933073Y-114827519D01*
X96699339Y-115019339D01*
X96507519Y-115253073D01*
X96364983Y-115519739D01*
X96277210Y-115809087D01*
X96247573Y-116110000D01*
X96277210Y-116410913D01*
X96364983Y-116700261D01*
X96507519Y-116966927D01*
X96600368Y-117080064D01*
X96537038Y-117132038D01*
X96426595Y-117266613D01*
X96344528Y-117420149D01*
X96293992Y-117586745D01*
X96276928Y-117759999D01*
X96276928Y-118460001D01*
X96293992Y-118633255D01*
X96344528Y-118799851D01*
X96426595Y-118953387D01*
X96537038Y-119087962D01*
X96671613Y-119198405D01*
X96825149Y-119280472D01*
X96991745Y-119331008D01*
X97164999Y-119348072D01*
X98415001Y-119348072D01*
X98588255Y-119331008D01*
X98754851Y-119280472D01*
X98908387Y-119198405D01*
X99042962Y-119087962D01*
X99153405Y-118953387D01*
X99220761Y-118827374D01*
X104555002Y-124161616D01*
X104555001Y-129321928D01*
X103290000Y-129321928D01*
X103165518Y-129334188D01*
X103045820Y-129370498D01*
X102935506Y-129429463D01*
X102838815Y-129508815D01*
X102759463Y-129605506D01*
X102700498Y-129715820D01*
X102664188Y-129835518D01*
X102651928Y-129960000D01*
X102651928Y-130893192D01*
X102545001Y-130786265D01*
X102545001Y-129155404D01*
X102552428Y-129079998D01*
X102545001Y-129004591D01*
X102522791Y-128779086D01*
X102435018Y-128489738D01*
X102292482Y-128223072D01*
X102100662Y-127989338D01*
X102042086Y-127941266D01*
X89178739Y-115077920D01*
X89130663Y-115019339D01*
X88896929Y-114827519D01*
X88630263Y-114684983D01*
X88340915Y-114597210D01*
X88115410Y-114575000D01*
X88115408Y-114575000D01*
X88040002Y-114567573D01*
X87964596Y-114575000D01*
X86284592Y-114575000D01*
X86059087Y-114597210D01*
X85769739Y-114684983D01*
X85503073Y-114827519D01*
X85269339Y-115019339D01*
X85077519Y-115253073D01*
X84934983Y-115519739D01*
X84847210Y-115809087D01*
X84817573Y-116110000D01*
X84847210Y-116410913D01*
X84934983Y-116700261D01*
X85077519Y-116966927D01*
X85170368Y-117080064D01*
X85107038Y-117132038D01*
X84996595Y-117266613D01*
X84914528Y-117420149D01*
X84863992Y-117586745D01*
X84846928Y-117759999D01*
X84846928Y-118460001D01*
X84863992Y-118633255D01*
X84914528Y-118799851D01*
X84996595Y-118953387D01*
X85107038Y-119087962D01*
X85241613Y-119198405D01*
X85395149Y-119280472D01*
X85561745Y-119331008D01*
X85734999Y-119348072D01*
X86985001Y-119348072D01*
X87158255Y-119331008D01*
X87324851Y-119280472D01*
X87478387Y-119198405D01*
X87612962Y-119087962D01*
X87723405Y-118953387D01*
X87805472Y-118799851D01*
X87856008Y-118633255D01*
X87873072Y-118460001D01*
X87873072Y-118113887D01*
X99081112Y-129321928D01*
X98210000Y-129321928D01*
X98085518Y-129334188D01*
X97965820Y-129370498D01*
X97855506Y-129429463D01*
X97758815Y-129508815D01*
X97679463Y-129605506D01*
X97620498Y-129715820D01*
X97584188Y-129835518D01*
X97571928Y-129960000D01*
X97571928Y-131660000D01*
X97584188Y-131784482D01*
X97593446Y-131815000D01*
X93690022Y-131815000D01*
X76952941Y-115077920D01*
X76904865Y-115019339D01*
X76671131Y-114827519D01*
X76404465Y-114684983D01*
X76115117Y-114597210D01*
X75889612Y-114575000D01*
X75889610Y-114575000D01*
X75814204Y-114567573D01*
X75738798Y-114575000D01*
X74854592Y-114575000D01*
X74629087Y-114597210D01*
X74339739Y-114684983D01*
X74073073Y-114827519D01*
X73839339Y-115019339D01*
X73647519Y-115253073D01*
X73504983Y-115519739D01*
X73417210Y-115809087D01*
X73387573Y-116110000D01*
X66700000Y-116110000D01*
X66700000Y-113690000D01*
X147930000Y-113690000D01*
X147930001Y-160630000D01*
%TA.AperFunction,Conductor*%
D21*
G36*
X147930001Y-160630000D02*
G01*
X66700000Y-160630000D01*
X66700000Y-159078514D01*
X74945000Y-159078514D01*
X74945000Y-159341486D01*
X74996304Y-159599405D01*
X75096939Y-159842359D01*
X75243038Y-160061013D01*
X75428987Y-160246962D01*
X75647641Y-160393061D01*
X75890595Y-160493696D01*
X76148514Y-160545000D01*
X76411486Y-160545000D01*
X76669405Y-160493696D01*
X76912359Y-160393061D01*
X77131013Y-160246962D01*
X77316962Y-160061013D01*
X77463061Y-159842359D01*
X77563696Y-159599405D01*
X77615000Y-159341486D01*
X77615000Y-159078514D01*
X77563696Y-158820595D01*
X77463061Y-158577641D01*
X77316962Y-158358987D01*
X77131013Y-158173038D01*
X76912359Y-158026939D01*
X76669405Y-157926304D01*
X76411486Y-157875000D01*
X76148514Y-157875000D01*
X75890595Y-157926304D01*
X75647641Y-158026939D01*
X75428987Y-158173038D01*
X75243038Y-158358987D01*
X75096939Y-158577641D01*
X74996304Y-158820595D01*
X74945000Y-159078514D01*
X66700000Y-159078514D01*
X66700000Y-150975098D01*
X78895000Y-150975098D01*
X78895000Y-151444902D01*
X78986654Y-151905679D01*
X79166440Y-152339721D01*
X79427450Y-152730349D01*
X79759651Y-153062550D01*
X80150279Y-153323560D01*
X80584321Y-153503346D01*
X81045098Y-153595000D01*
X81514902Y-153595000D01*
X81975679Y-153503346D01*
X82409721Y-153323560D01*
X82800349Y-153062550D01*
X83132550Y-152730349D01*
X83393560Y-152339721D01*
X83573346Y-151905679D01*
X83665000Y-151444902D01*
X83665000Y-150975098D01*
X83573346Y-150514321D01*
X83393560Y-150080279D01*
X83132550Y-149689651D01*
X82800349Y-149357450D01*
X82409721Y-149096440D01*
X81975679Y-148916654D01*
X81514902Y-148825000D01*
X81045098Y-148825000D01*
X80584321Y-148916654D01*
X80150279Y-149096440D01*
X79759651Y-149357450D01*
X79427450Y-149689651D01*
X79166440Y-150080279D01*
X78986654Y-150514321D01*
X78895000Y-150975098D01*
X66700000Y-150975098D01*
X66700000Y-148078514D01*
X74945000Y-148078514D01*
X74945000Y-148341486D01*
X74996304Y-148599405D01*
X75096939Y-148842359D01*
X75243038Y-149061013D01*
X75428987Y-149246962D01*
X75647641Y-149393061D01*
X75890595Y-149493696D01*
X76148514Y-149545000D01*
X76411486Y-149545000D01*
X76669405Y-149493696D01*
X76912359Y-149393061D01*
X77131013Y-149246962D01*
X77316962Y-149061013D01*
X77463061Y-148842359D01*
X77563696Y-148599405D01*
X77615000Y-148341486D01*
X77615000Y-148078514D01*
X77563696Y-147820595D01*
X77463061Y-147577641D01*
X77316962Y-147358987D01*
X77131013Y-147173038D01*
X76912359Y-147026939D01*
X76669405Y-146926304D01*
X76411486Y-146875000D01*
X76148514Y-146875000D01*
X75890595Y-146926304D01*
X75647641Y-147026939D01*
X75428987Y-147173038D01*
X75243038Y-147358987D01*
X75096939Y-147577641D01*
X74996304Y-147820595D01*
X74945000Y-148078514D01*
X66700000Y-148078514D01*
X66700000Y-129500000D01*
X74582815Y-129500000D01*
X74611487Y-129791111D01*
X74696401Y-130071034D01*
X74834294Y-130329014D01*
X75019866Y-130555134D01*
X75245986Y-130740706D01*
X75263374Y-130750000D01*
X75245986Y-130759294D01*
X75019866Y-130944866D01*
X74834294Y-131170986D01*
X74696401Y-131428966D01*
X74611487Y-131708889D01*
X74582815Y-132000000D01*
X74611487Y-132291111D01*
X74696401Y-132571034D01*
X74834294Y-132829014D01*
X75019866Y-133055134D01*
X75245986Y-133240706D01*
X75263374Y-133250000D01*
X75245986Y-133259294D01*
X75019866Y-133444866D01*
X74834294Y-133670986D01*
X74696401Y-133928966D01*
X74611487Y-134208889D01*
X74582815Y-134500000D01*
X74611487Y-134791111D01*
X74696401Y-135071034D01*
X74834294Y-135329014D01*
X75019866Y-135555134D01*
X75245986Y-135740706D01*
X75263374Y-135750000D01*
X75245986Y-135759294D01*
X75019866Y-135944866D01*
X74834294Y-136170986D01*
X74696401Y-136428966D01*
X74611487Y-136708889D01*
X74582815Y-137000000D01*
X74611487Y-137291111D01*
X74696401Y-137571034D01*
X74834294Y-137829014D01*
X75019866Y-138055134D01*
X75245986Y-138240706D01*
X75263374Y-138250000D01*
X75245986Y-138259294D01*
X75019866Y-138444866D01*
X74834294Y-138670986D01*
X74696401Y-138928966D01*
X74611487Y-139208889D01*
X74582815Y-139500000D01*
X74611487Y-139791111D01*
X74696401Y-140071034D01*
X74834294Y-140329014D01*
X75019866Y-140555134D01*
X75245986Y-140740706D01*
X75263374Y-140750000D01*
X75245986Y-140759294D01*
X75019866Y-140944866D01*
X74834294Y-141170986D01*
X74696401Y-141428966D01*
X74611487Y-141708889D01*
X74582815Y-142000000D01*
X74611487Y-142291111D01*
X74696401Y-142571034D01*
X74834294Y-142829014D01*
X75019866Y-143055134D01*
X75245986Y-143240706D01*
X75503966Y-143378599D01*
X75783889Y-143463513D01*
X76002050Y-143485000D01*
X76397950Y-143485000D01*
X76616111Y-143463513D01*
X76896034Y-143378599D01*
X77154014Y-143240706D01*
X77380134Y-143055134D01*
X77565706Y-142829014D01*
X77703599Y-142571034D01*
X77788513Y-142291111D01*
X77817185Y-142000000D01*
X77788513Y-141708889D01*
X77703599Y-141428966D01*
X77565706Y-141170986D01*
X77380134Y-140944866D01*
X77154014Y-140759294D01*
X77136626Y-140750000D01*
X77154014Y-140740706D01*
X77380134Y-140555134D01*
X77565706Y-140329014D01*
X77703599Y-140071034D01*
X77788513Y-139791111D01*
X77817185Y-139500000D01*
X77788513Y-139208889D01*
X77703599Y-138928966D01*
X77565706Y-138670986D01*
X77380134Y-138444866D01*
X77154014Y-138259294D01*
X77136626Y-138250000D01*
X77154014Y-138240706D01*
X77380134Y-138055134D01*
X77565706Y-137829014D01*
X77703599Y-137571034D01*
X77788513Y-137291111D01*
X77817185Y-137000000D01*
X77788513Y-136708889D01*
X77703599Y-136428966D01*
X77565706Y-136170986D01*
X77380134Y-135944866D01*
X77154014Y-135759294D01*
X77136626Y-135750000D01*
X77154014Y-135740706D01*
X77380134Y-135555134D01*
X77565706Y-135329014D01*
X77703599Y-135071034D01*
X77788513Y-134791111D01*
X77817185Y-134500000D01*
X77788513Y-134208889D01*
X77703599Y-133928966D01*
X77565706Y-133670986D01*
X77380134Y-133444866D01*
X77154014Y-133259294D01*
X77136626Y-133250000D01*
X77154014Y-133240706D01*
X77380134Y-133055134D01*
X77565706Y-132829014D01*
X77703599Y-132571034D01*
X77788513Y-132291111D01*
X77817185Y-132000000D01*
X77788513Y-131708889D01*
X77703599Y-131428966D01*
X77565706Y-131170986D01*
X77380134Y-130944866D01*
X77154014Y-130759294D01*
X77136626Y-130750000D01*
X77154014Y-130740706D01*
X77380134Y-130555134D01*
X77565706Y-130329014D01*
X77703599Y-130071034D01*
X77788513Y-129791111D01*
X77817185Y-129500000D01*
X77788513Y-129208889D01*
X77703599Y-128928966D01*
X77565706Y-128670986D01*
X77380134Y-128444866D01*
X77154014Y-128259294D01*
X76896034Y-128121401D01*
X76616111Y-128036487D01*
X76397950Y-128015000D01*
X76002050Y-128015000D01*
X75783889Y-128036487D01*
X75503966Y-128121401D01*
X75245986Y-128259294D01*
X75019866Y-128444866D01*
X74834294Y-128670986D01*
X74696401Y-128928966D01*
X74611487Y-129208889D01*
X74582815Y-129500000D01*
X66700000Y-129500000D01*
X66700000Y-116110000D01*
X73387573Y-116110000D01*
X73417210Y-116410913D01*
X73504983Y-116700261D01*
X73647519Y-116966927D01*
X73839339Y-117200661D01*
X74073073Y-117392481D01*
X74339739Y-117535017D01*
X74629087Y-117622790D01*
X74854592Y-117645000D01*
X75178387Y-117645000D01*
X91915471Y-134382085D01*
X91963543Y-134440661D01*
X92197277Y-134632481D01*
X92463943Y-134775017D01*
X92753291Y-134862790D01*
X92978796Y-134885000D01*
X93054204Y-134892427D01*
X93129612Y-134885000D01*
X98424183Y-134885000D01*
X98755001Y-135215819D01*
X98755000Y-156285407D01*
X98777210Y-156510912D01*
X98864983Y-156800260D01*
X98898122Y-156862258D01*
X98911401Y-156906034D01*
X99049294Y-157164014D01*
X99234866Y-157390134D01*
X99460987Y-157575706D01*
X99718967Y-157713599D01*
X99998890Y-157798513D01*
X100290000Y-157827185D01*
X100581111Y-157798513D01*
X100861034Y-157713599D01*
X101119014Y-157575706D01*
X101345134Y-157390134D01*
X101530706Y-157164014D01*
X101540000Y-157146626D01*
X101549294Y-157164014D01*
X101734866Y-157390134D01*
X101960987Y-157575706D01*
X102218967Y-157713599D01*
X102498890Y-157798513D01*
X102790000Y-157827185D01*
X103081111Y-157798513D01*
X103361034Y-157713599D01*
X103619014Y-157575706D01*
X103830112Y-157402463D01*
X103950655Y-157549345D01*
X104237683Y-157784903D01*
X104565152Y-157959939D01*
X104920476Y-158067725D01*
X105290000Y-158104120D01*
X105382597Y-158095000D01*
X116932597Y-158095000D01*
X117209524Y-158067725D01*
X117564848Y-157959939D01*
X117892317Y-157784903D01*
X118179345Y-157549345D01*
X118299888Y-157402463D01*
X118510987Y-157575706D01*
X118768967Y-157713599D01*
X119048890Y-157798513D01*
X119340000Y-157827185D01*
X119631111Y-157798513D01*
X119911034Y-157713599D01*
X120169014Y-157575706D01*
X120395134Y-157390134D01*
X120580706Y-157164014D01*
X120590000Y-157146626D01*
X120599294Y-157164014D01*
X120784866Y-157390134D01*
X121010987Y-157575706D01*
X121268967Y-157713599D01*
X121548890Y-157798513D01*
X121840000Y-157827185D01*
X122131111Y-157798513D01*
X122411034Y-157713599D01*
X122669014Y-157575706D01*
X122880112Y-157402463D01*
X123000655Y-157549345D01*
X123287683Y-157784903D01*
X123615152Y-157959939D01*
X123970476Y-158067725D01*
X124340000Y-158104120D01*
X124709523Y-158067725D01*
X125064847Y-157959939D01*
X125392317Y-157784903D01*
X125679345Y-157549345D01*
X125914903Y-157262317D01*
X126089939Y-156934848D01*
X126197725Y-156579524D01*
X126225000Y-156302597D01*
X126225000Y-148670000D01*
X141892815Y-148670000D01*
X141921487Y-148961111D01*
X142006401Y-149241034D01*
X142144294Y-149499014D01*
X142329866Y-149725134D01*
X142555986Y-149910706D01*
X142573374Y-149920000D01*
X142555986Y-149929294D01*
X142329866Y-150114866D01*
X142144294Y-150340986D01*
X142006401Y-150598966D01*
X141921487Y-150878889D01*
X141892815Y-151170000D01*
X141921487Y-151461111D01*
X142006401Y-151741034D01*
X142144294Y-151999014D01*
X142329866Y-152225134D01*
X142555986Y-152410706D01*
X142813966Y-152548599D01*
X143093889Y-152633513D01*
X143312050Y-152655000D01*
X143707950Y-152655000D01*
X143926111Y-152633513D01*
X144206034Y-152548599D01*
X144464014Y-152410706D01*
X144690134Y-152225134D01*
X144875706Y-151999014D01*
X145013599Y-151741034D01*
X145098513Y-151461111D01*
X145127185Y-151170000D01*
X145098513Y-150878889D01*
X145013599Y-150598966D01*
X144875706Y-150340986D01*
X144690134Y-150114866D01*
X144464014Y-149929294D01*
X144446626Y-149920000D01*
X144464014Y-149910706D01*
X144690134Y-149725134D01*
X144875706Y-149499014D01*
X145013599Y-149241034D01*
X145098513Y-148961111D01*
X145127185Y-148670000D01*
X145098513Y-148378889D01*
X145013599Y-148098966D01*
X144875706Y-147840986D01*
X144690134Y-147614866D01*
X144464014Y-147429294D01*
X144206034Y-147291401D01*
X143926111Y-147206487D01*
X143707950Y-147185000D01*
X143312050Y-147185000D01*
X143093889Y-147206487D01*
X142813966Y-147291401D01*
X142555986Y-147429294D01*
X142329866Y-147614866D01*
X142144294Y-147840986D01*
X142006401Y-148098966D01*
X141921487Y-148378889D01*
X141892815Y-148670000D01*
X126225000Y-148670000D01*
X126225000Y-134783311D01*
X126252342Y-134775017D01*
X126392688Y-134700000D01*
X141892815Y-134700000D01*
X141921487Y-134991111D01*
X142006401Y-135271034D01*
X142144294Y-135529014D01*
X142329866Y-135755134D01*
X142555986Y-135940706D01*
X142573374Y-135950000D01*
X142555986Y-135959294D01*
X142329866Y-136144866D01*
X142144294Y-136370986D01*
X142006401Y-136628966D01*
X141921487Y-136908889D01*
X141892815Y-137200000D01*
X141921487Y-137491111D01*
X142006401Y-137771034D01*
X142144294Y-138029014D01*
X142329866Y-138255134D01*
X142393337Y-138307223D01*
X142291614Y-138361595D01*
X142157038Y-138472038D01*
X142046595Y-138606614D01*
X141964528Y-138760150D01*
X141913992Y-138926746D01*
X141896928Y-139100000D01*
X141896928Y-140300000D01*
X141913992Y-140473254D01*
X141964528Y-140639850D01*
X142046595Y-140793386D01*
X142157038Y-140927962D01*
X142291614Y-141038405D01*
X142445150Y-141120472D01*
X142611746Y-141171008D01*
X142785000Y-141188072D01*
X144235000Y-141188072D01*
X144408254Y-141171008D01*
X144574850Y-141120472D01*
X144728386Y-141038405D01*
X144862962Y-140927962D01*
X144973405Y-140793386D01*
X145055472Y-140639850D01*
X145106008Y-140473254D01*
X145123072Y-140300000D01*
X145123072Y-139100000D01*
X145106008Y-138926746D01*
X145055472Y-138760150D01*
X144973405Y-138606614D01*
X144862962Y-138472038D01*
X144728386Y-138361595D01*
X144626663Y-138307223D01*
X144690134Y-138255134D01*
X144875706Y-138029014D01*
X145013599Y-137771034D01*
X145098513Y-137491111D01*
X145127185Y-137200000D01*
X145098513Y-136908889D01*
X145013599Y-136628966D01*
X144875706Y-136370986D01*
X144690134Y-136144866D01*
X144464014Y-135959294D01*
X144446626Y-135950000D01*
X144464014Y-135940706D01*
X144690134Y-135755134D01*
X144875706Y-135529014D01*
X145013599Y-135271034D01*
X145098513Y-134991111D01*
X145127185Y-134700000D01*
X145098513Y-134408889D01*
X145013599Y-134128966D01*
X144875706Y-133870986D01*
X144690134Y-133644866D01*
X144464014Y-133459294D01*
X144206034Y-133321401D01*
X143926111Y-133236487D01*
X143707950Y-133215000D01*
X143312050Y-133215000D01*
X143093889Y-133236487D01*
X142813966Y-133321401D01*
X142555986Y-133459294D01*
X142329866Y-133644866D01*
X142144294Y-133870986D01*
X142006401Y-134128966D01*
X141921487Y-134408889D01*
X141892815Y-134700000D01*
X126392688Y-134700000D01*
X126519008Y-134632481D01*
X126752742Y-134440661D01*
X126800818Y-134382080D01*
X128032086Y-133150813D01*
X128090661Y-133102742D01*
X128282481Y-132869008D01*
X128425017Y-132602342D01*
X128512790Y-132312994D01*
X128535000Y-132087489D01*
X128535000Y-132087488D01*
X128542427Y-132012082D01*
X128535000Y-131936676D01*
X128535000Y-120730000D01*
X141892815Y-120730000D01*
X141921487Y-121021111D01*
X142006401Y-121301034D01*
X142144294Y-121559014D01*
X142329866Y-121785134D01*
X142555986Y-121970706D01*
X142573374Y-121980000D01*
X142555986Y-121989294D01*
X142329866Y-122174866D01*
X142144294Y-122400986D01*
X142006401Y-122658966D01*
X141921487Y-122938889D01*
X141892815Y-123230000D01*
X141921487Y-123521111D01*
X142006401Y-123801034D01*
X142144294Y-124059014D01*
X142329866Y-124285134D01*
X142393337Y-124337223D01*
X142291614Y-124391595D01*
X142157038Y-124502038D01*
X142046595Y-124636614D01*
X141964528Y-124790150D01*
X141913992Y-124956746D01*
X141896928Y-125130000D01*
X141896928Y-126330000D01*
X141913992Y-126503254D01*
X141964528Y-126669850D01*
X142046595Y-126823386D01*
X142157038Y-126957962D01*
X142291614Y-127068405D01*
X142445150Y-127150472D01*
X142611746Y-127201008D01*
X142785000Y-127218072D01*
X144235000Y-127218072D01*
X144408254Y-127201008D01*
X144574850Y-127150472D01*
X144728386Y-127068405D01*
X144862962Y-126957962D01*
X144973405Y-126823386D01*
X145055472Y-126669850D01*
X145106008Y-126503254D01*
X145123072Y-126330000D01*
X145123072Y-125130000D01*
X145106008Y-124956746D01*
X145055472Y-124790150D01*
X144973405Y-124636614D01*
X144862962Y-124502038D01*
X144728386Y-124391595D01*
X144626663Y-124337223D01*
X144690134Y-124285134D01*
X144875706Y-124059014D01*
X145013599Y-123801034D01*
X145098513Y-123521111D01*
X145127185Y-123230000D01*
X145098513Y-122938889D01*
X145013599Y-122658966D01*
X144875706Y-122400986D01*
X144690134Y-122174866D01*
X144464014Y-121989294D01*
X144446626Y-121980000D01*
X144464014Y-121970706D01*
X144690134Y-121785134D01*
X144875706Y-121559014D01*
X145013599Y-121301034D01*
X145098513Y-121021111D01*
X145127185Y-120730000D01*
X145098513Y-120438889D01*
X145013599Y-120158966D01*
X144875706Y-119900986D01*
X144690134Y-119674866D01*
X144464014Y-119489294D01*
X144206034Y-119351401D01*
X143926111Y-119266487D01*
X143707950Y-119245000D01*
X143312050Y-119245000D01*
X143093889Y-119266487D01*
X142813966Y-119351401D01*
X142555986Y-119489294D01*
X142329866Y-119674866D01*
X142144294Y-119900986D01*
X142006401Y-120158966D01*
X141921487Y-120438889D01*
X141892815Y-120730000D01*
X128535000Y-120730000D01*
X128535000Y-119150817D01*
X130040818Y-117645000D01*
X130578254Y-117645000D01*
X130566928Y-117759999D01*
X130566928Y-118460001D01*
X130583992Y-118633255D01*
X130634528Y-118799851D01*
X130716595Y-118953387D01*
X130827038Y-119087962D01*
X130961613Y-119198405D01*
X131115149Y-119280472D01*
X131281745Y-119331008D01*
X131454999Y-119348072D01*
X132705001Y-119348072D01*
X132878255Y-119331008D01*
X133044851Y-119280472D01*
X133198387Y-119198405D01*
X133332962Y-119087962D01*
X133443405Y-118953387D01*
X133525472Y-118799851D01*
X133576008Y-118633255D01*
X133593072Y-118460001D01*
X133593072Y-117759999D01*
X133576008Y-117586745D01*
X133525472Y-117420149D01*
X133443405Y-117266613D01*
X133332962Y-117132038D01*
X133269632Y-117080064D01*
X133362481Y-116966927D01*
X133505017Y-116700261D01*
X133592790Y-116410913D01*
X133622427Y-116110000D01*
X133592790Y-115809087D01*
X133505017Y-115519739D01*
X133362481Y-115253073D01*
X133170661Y-115019339D01*
X132936927Y-114827519D01*
X132670261Y-114684983D01*
X132380913Y-114597210D01*
X132155408Y-114575000D01*
X129480408Y-114575000D01*
X129405000Y-114567573D01*
X129329592Y-114575000D01*
X129104087Y-114597210D01*
X128959413Y-114641096D01*
X128814738Y-114684983D01*
X128548073Y-114827519D01*
X128314339Y-115019339D01*
X128266267Y-115077915D01*
X125967915Y-117376267D01*
X125909340Y-117424339D01*
X125861270Y-117482913D01*
X125717519Y-117658074D01*
X125574984Y-117924739D01*
X125487211Y-118214088D01*
X125457573Y-118515000D01*
X125465001Y-118590416D01*
X125465000Y-129343446D01*
X125434482Y-129334188D01*
X125310000Y-129321928D01*
X123610000Y-129321928D01*
X123485518Y-129334188D01*
X123365820Y-129370498D01*
X123255506Y-129429463D01*
X123158815Y-129508815D01*
X123079463Y-129605506D01*
X123020498Y-129715820D01*
X122984188Y-129835518D01*
X122971928Y-129960000D01*
X122971928Y-131660000D01*
X122984188Y-131784482D01*
X123020498Y-131904180D01*
X123079463Y-132014494D01*
X123102114Y-132042094D01*
X123072578Y-132071630D01*
X123000656Y-132130655D01*
X122941631Y-132202577D01*
X122941628Y-132202580D01*
X122765098Y-132417683D01*
X122590062Y-132745152D01*
X122482275Y-133100476D01*
X122445881Y-133470000D01*
X122455001Y-133562599D01*
X122455001Y-134254183D01*
X120518737Y-132317920D01*
X120470661Y-132259339D01*
X120462859Y-132252936D01*
X120474180Y-132249502D01*
X120584494Y-132190537D01*
X120681185Y-132111185D01*
X120760537Y-132014494D01*
X120819502Y-131904180D01*
X120855812Y-131784482D01*
X120868072Y-131660000D01*
X120868072Y-129960000D01*
X120855812Y-129835518D01*
X120819502Y-129715820D01*
X120760537Y-129605506D01*
X120681185Y-129508815D01*
X120584494Y-129429463D01*
X120474180Y-129370498D01*
X120354482Y-129334188D01*
X120230000Y-129321928D01*
X118964999Y-129321928D01*
X118964999Y-119081614D01*
X119219239Y-118827374D01*
X119286595Y-118953387D01*
X119397038Y-119087962D01*
X119531613Y-119198405D01*
X119685149Y-119280472D01*
X119851745Y-119331008D01*
X120024999Y-119348072D01*
X121275001Y-119348072D01*
X121448255Y-119331008D01*
X121614851Y-119280472D01*
X121768387Y-119198405D01*
X121902962Y-119087962D01*
X122013405Y-118953387D01*
X122095472Y-118799851D01*
X122146008Y-118633255D01*
X122163072Y-118460001D01*
X122163072Y-117759999D01*
X122146008Y-117586745D01*
X122095472Y-117420149D01*
X122013405Y-117266613D01*
X121902962Y-117132038D01*
X121839632Y-117080064D01*
X121932481Y-116966927D01*
X122075017Y-116700261D01*
X122162790Y-116410913D01*
X122192427Y-116110000D01*
X122162790Y-115809087D01*
X122075017Y-115519739D01*
X121932481Y-115253073D01*
X121740661Y-115019339D01*
X121506927Y-114827519D01*
X121240261Y-114684983D01*
X120950913Y-114597210D01*
X120725408Y-114575000D01*
X119841204Y-114575000D01*
X119765796Y-114567573D01*
X119690388Y-114575000D01*
X119464883Y-114597210D01*
X119175535Y-114684983D01*
X118908869Y-114827519D01*
X118675135Y-115019339D01*
X118627063Y-115077915D01*
X116397914Y-117307064D01*
X116339339Y-117355136D01*
X116219043Y-117501718D01*
X116147518Y-117588871D01*
X116039442Y-117791067D01*
X116004983Y-117855536D01*
X115943648Y-118057732D01*
X115917210Y-118144885D01*
X115887572Y-118445797D01*
X115895000Y-118521213D01*
X115894999Y-132526674D01*
X115887572Y-132602080D01*
X115894999Y-132677486D01*
X115894999Y-132677487D01*
X115905563Y-132784746D01*
X115438737Y-132317920D01*
X115390661Y-132259339D01*
X115382859Y-132252936D01*
X115394180Y-132249502D01*
X115504494Y-132190537D01*
X115601185Y-132111185D01*
X115680537Y-132014494D01*
X115739502Y-131904180D01*
X115775812Y-131784482D01*
X115788072Y-131660000D01*
X115788072Y-129960000D01*
X115775812Y-129835518D01*
X115739502Y-129715820D01*
X115680537Y-129605506D01*
X115601185Y-129508815D01*
X115504494Y-129429463D01*
X115394180Y-129370498D01*
X115274482Y-129334188D01*
X115150000Y-129321928D01*
X113450000Y-129321928D01*
X113325518Y-129334188D01*
X113205820Y-129370498D01*
X113095506Y-129429463D01*
X112998815Y-129508815D01*
X112919463Y-129605506D01*
X112860498Y-129715820D01*
X112824188Y-129835518D01*
X112811928Y-129960000D01*
X112811928Y-130893192D01*
X112730010Y-130811274D01*
X112730010Y-117276214D01*
X112737437Y-117200806D01*
X112707800Y-116899894D01*
X112699317Y-116871928D01*
X112620027Y-116610545D01*
X112477491Y-116343879D01*
X112285671Y-116110145D01*
X112227095Y-116062073D01*
X111242941Y-115077920D01*
X111194865Y-115019339D01*
X110961131Y-114827519D01*
X110694465Y-114684983D01*
X110405117Y-114597210D01*
X110179612Y-114575000D01*
X110179610Y-114575000D01*
X110104204Y-114567573D01*
X110028798Y-114575000D01*
X109144592Y-114575000D01*
X108919087Y-114597210D01*
X108629739Y-114684983D01*
X108363073Y-114827519D01*
X108129339Y-115019339D01*
X107937519Y-115253073D01*
X107794983Y-115519739D01*
X107707210Y-115809087D01*
X107677573Y-116110000D01*
X107707210Y-116410913D01*
X107794983Y-116700261D01*
X107937519Y-116966927D01*
X108030368Y-117080064D01*
X107967038Y-117132038D01*
X107856595Y-117266613D01*
X107774528Y-117420149D01*
X107723992Y-117586745D01*
X107706928Y-117759999D01*
X107706928Y-118460001D01*
X107723992Y-118633255D01*
X107774528Y-118799851D01*
X107856595Y-118953387D01*
X107967038Y-119087962D01*
X108101613Y-119198405D01*
X108255149Y-119280472D01*
X108421745Y-119331008D01*
X108594999Y-119348072D01*
X109660011Y-119348072D01*
X109660010Y-129321928D01*
X108370000Y-129321928D01*
X108245518Y-129334188D01*
X108125820Y-129370498D01*
X108015506Y-129429463D01*
X107918815Y-129508815D01*
X107839463Y-129605506D01*
X107780498Y-129715820D01*
X107744188Y-129835518D01*
X107731928Y-129960000D01*
X107731928Y-130893192D01*
X107625001Y-130786265D01*
X107625001Y-123601205D01*
X107632428Y-123525797D01*
X107602791Y-123224885D01*
X107602791Y-123224884D01*
X107515018Y-122935536D01*
X107372482Y-122668870D01*
X107180662Y-122435136D01*
X107122086Y-122387064D01*
X99812941Y-115077920D01*
X99764865Y-115019339D01*
X99531131Y-114827519D01*
X99264465Y-114684983D01*
X98975117Y-114597210D01*
X98749612Y-114575000D01*
X98749610Y-114575000D01*
X98674204Y-114567573D01*
X98598798Y-114575000D01*
X97714592Y-114575000D01*
X97489087Y-114597210D01*
X97199739Y-114684983D01*
X96933073Y-114827519D01*
X96699339Y-115019339D01*
X96507519Y-115253073D01*
X96364983Y-115519739D01*
X96277210Y-115809087D01*
X96247573Y-116110000D01*
X96277210Y-116410913D01*
X96364983Y-116700261D01*
X96507519Y-116966927D01*
X96600368Y-117080064D01*
X96537038Y-117132038D01*
X96426595Y-117266613D01*
X96344528Y-117420149D01*
X96293992Y-117586745D01*
X96276928Y-117759999D01*
X96276928Y-118460001D01*
X96293992Y-118633255D01*
X96344528Y-118799851D01*
X96426595Y-118953387D01*
X96537038Y-119087962D01*
X96671613Y-119198405D01*
X96825149Y-119280472D01*
X96991745Y-119331008D01*
X97164999Y-119348072D01*
X98415001Y-119348072D01*
X98588255Y-119331008D01*
X98754851Y-119280472D01*
X98908387Y-119198405D01*
X99042962Y-119087962D01*
X99153405Y-118953387D01*
X99220761Y-118827374D01*
X104555002Y-124161616D01*
X104555001Y-129321928D01*
X103290000Y-129321928D01*
X103165518Y-129334188D01*
X103045820Y-129370498D01*
X102935506Y-129429463D01*
X102838815Y-129508815D01*
X102759463Y-129605506D01*
X102700498Y-129715820D01*
X102664188Y-129835518D01*
X102651928Y-129960000D01*
X102651928Y-130893192D01*
X102545001Y-130786265D01*
X102545001Y-129155404D01*
X102552428Y-129079998D01*
X102545001Y-129004591D01*
X102522791Y-128779086D01*
X102435018Y-128489738D01*
X102292482Y-128223072D01*
X102100662Y-127989338D01*
X102042086Y-127941266D01*
X89178739Y-115077920D01*
X89130663Y-115019339D01*
X88896929Y-114827519D01*
X88630263Y-114684983D01*
X88340915Y-114597210D01*
X88115410Y-114575000D01*
X88115408Y-114575000D01*
X88040002Y-114567573D01*
X87964596Y-114575000D01*
X86284592Y-114575000D01*
X86059087Y-114597210D01*
X85769739Y-114684983D01*
X85503073Y-114827519D01*
X85269339Y-115019339D01*
X85077519Y-115253073D01*
X84934983Y-115519739D01*
X84847210Y-115809087D01*
X84817573Y-116110000D01*
X84847210Y-116410913D01*
X84934983Y-116700261D01*
X85077519Y-116966927D01*
X85170368Y-117080064D01*
X85107038Y-117132038D01*
X84996595Y-117266613D01*
X84914528Y-117420149D01*
X84863992Y-117586745D01*
X84846928Y-117759999D01*
X84846928Y-118460001D01*
X84863992Y-118633255D01*
X84914528Y-118799851D01*
X84996595Y-118953387D01*
X85107038Y-119087962D01*
X85241613Y-119198405D01*
X85395149Y-119280472D01*
X85561745Y-119331008D01*
X85734999Y-119348072D01*
X86985001Y-119348072D01*
X87158255Y-119331008D01*
X87324851Y-119280472D01*
X87478387Y-119198405D01*
X87612962Y-119087962D01*
X87723405Y-118953387D01*
X87805472Y-118799851D01*
X87856008Y-118633255D01*
X87873072Y-118460001D01*
X87873072Y-118113887D01*
X99081112Y-129321928D01*
X98210000Y-129321928D01*
X98085518Y-129334188D01*
X97965820Y-129370498D01*
X97855506Y-129429463D01*
X97758815Y-129508815D01*
X97679463Y-129605506D01*
X97620498Y-129715820D01*
X97584188Y-129835518D01*
X97571928Y-129960000D01*
X97571928Y-131660000D01*
X97584188Y-131784482D01*
X97593446Y-131815000D01*
X93690022Y-131815000D01*
X76952941Y-115077920D01*
X76904865Y-115019339D01*
X76671131Y-114827519D01*
X76404465Y-114684983D01*
X76115117Y-114597210D01*
X75889612Y-114575000D01*
X75889610Y-114575000D01*
X75814204Y-114567573D01*
X75738798Y-114575000D01*
X74854592Y-114575000D01*
X74629087Y-114597210D01*
X74339739Y-114684983D01*
X74073073Y-114827519D01*
X73839339Y-115019339D01*
X73647519Y-115253073D01*
X73504983Y-115519739D01*
X73417210Y-115809087D01*
X73387573Y-116110000D01*
X66700000Y-116110000D01*
X66700000Y-113690000D01*
X147930000Y-113690000D01*
X147930001Y-160630000D01*
G37*
%TD.AperFunction*%
%TD*%
M02*
