M48
; DRILL file {KiCad (5.1.9)-1} date 06/24/21 13:15:49
; FORMAT={-:-/ absolute / inch / decimal}
; #@! TF.CreationDate,2021-06-24T13:15:49+01:00
; #@! TF.GenerationSoftware,Kicad,Pcbnew,(5.1.9)-1
FMAT,2
INCH
T1C0.0295
T2C0.0374
T3C0.0394
T4C0.0433
%
G90
G05
T1
X3.0Y-4.6
X3.0Y-4.6787
X3.5Y-4.6
X3.5Y-4.6787
X4.0Y-4.6
X4.0Y-4.6787
X4.5Y-4.6
X4.5Y-4.6787
X5.0Y-4.6
X5.0Y-4.6787
X5.5Y-4.6
X5.5Y-4.6787
T2
X4.1Y-5.1
X4.1984Y-5.1
X4.2969Y-5.1
X4.3953Y-5.1
X4.4937Y-5.1
X4.5921Y-5.1
X4.6906Y-5.1
T3
X3.9Y-5.6
X3.9Y-5.7
X4.1Y-5.6
X4.1Y-5.7
X4.3Y-5.6
X4.3Y-5.7
X4.5Y-5.6
X4.5Y-5.7
X4.7Y-5.6
X4.7Y-5.7
X4.9Y-5.6
X4.9Y-5.7
T4
X2.9189Y-5.7
X3.1Y-5.7
T0
M30
