M48
; DRILL file {KiCad (5.1.9)-1} date 07/18/21 23:52:26
; FORMAT={-:-/ absolute / inch / decimal}
; #@! TF.CreationDate,2021-07-18T23:52:26+01:00
; #@! TF.GenerationSoftware,Kicad,Pcbnew,(5.1.9)-1
FMAT,2
INCH
T1C0.0295
T2C0.0374
T3C0.0394
T4C0.0748
%
G90
G05
T1
X2.95Y-4.5713
X2.95Y-4.65
X3.4Y-4.5713
X3.4Y-4.65
X3.85Y-4.5713
X3.85Y-4.65
X4.3Y-4.5713
X4.3Y-4.65
X4.75Y-4.5713
X4.75Y-4.65
X5.2Y-4.5713
X5.2Y-4.65
T2
X3.0Y-5.0
X3.0Y-5.0984
X3.0Y-5.1969
X3.0Y-5.2953
X3.0Y-5.3937
X3.0Y-5.4921
X3.0Y-5.5906
X3.85Y-6.15
X3.9484Y-6.15
X4.0469Y-6.15
X4.1453Y-6.15
X4.6Y-6.15
X4.6984Y-6.15
X4.7969Y-6.15
X4.8953Y-6.15
X5.65Y-4.7531
X5.65Y-4.8516
X5.65Y-4.95
X5.65Y-5.3031
X5.65Y-5.4016
X5.65Y-5.5
X5.65Y-5.8531
X5.65Y-5.9516
X5.65Y-6.05
T3
X2.7663Y-5.8319
X2.7663Y-6.265
X3.9Y-5.15
X3.9Y-5.25
X4.1Y-5.15
X4.1Y-5.25
X4.3Y-5.15
X4.3Y-5.25
X4.5Y-5.15
X4.5Y-5.25
X4.7Y-5.15
X4.7Y-5.25
X4.9Y-5.15
X4.9Y-5.25
T4
X3.16Y-5.95
X3.16Y-6.1469
T0
M30
