%TF.GenerationSoftware,KiCad,Pcbnew,(5.1.9)-1*%
%TF.CreationDate,2021-06-24T13:15:50+01:00*%
%TF.ProjectId,board,626f6172-642e-46b6-9963-61645f706362,rev?*%
%TF.SameCoordinates,Original*%
%TF.FileFunction,Legend,Top*%
%TF.FilePolarity,Positive*%
%FSLAX46Y46*%
G04 Gerber Fmt 4.6, Leading zero omitted, Abs format (unit mm)*
G04 Created by KiCad (PCBNEW (5.1.9)-1) date 2021-06-24 13:15:50*
%MOMM*%
%LPD*%
G01*
G04 APERTURE LIST*
%ADD10C,0.150000*%
%ADD11C,0.120000*%
G04 APERTURE END LIST*
D10*
X69032380Y-141548095D02*
X69032380Y-142119523D01*
X69032380Y-141833809D02*
X68032380Y-141833809D01*
X68175238Y-141929047D01*
X68270476Y-142024285D01*
X68318095Y-142119523D01*
X68984761Y-141167142D02*
X69032380Y-141024285D01*
X69032380Y-140786190D01*
X68984761Y-140690952D01*
X68937142Y-140643333D01*
X68841904Y-140595714D01*
X68746666Y-140595714D01*
X68651428Y-140643333D01*
X68603809Y-140690952D01*
X68556190Y-140786190D01*
X68508571Y-140976666D01*
X68460952Y-141071904D01*
X68413333Y-141119523D01*
X68318095Y-141167142D01*
X68222857Y-141167142D01*
X68127619Y-141119523D01*
X68080000Y-141071904D01*
X68032380Y-140976666D01*
X68032380Y-140738571D01*
X68080000Y-140595714D01*
X68508571Y-139071904D02*
X68556190Y-138929047D01*
X68603809Y-138881428D01*
X68699047Y-138833809D01*
X68841904Y-138833809D01*
X68937142Y-138881428D01*
X68984761Y-138929047D01*
X69032380Y-139024285D01*
X69032380Y-139405238D01*
X68032380Y-139405238D01*
X68032380Y-139071904D01*
X68080000Y-138976666D01*
X68127619Y-138929047D01*
X68222857Y-138881428D01*
X68318095Y-138881428D01*
X68413333Y-138929047D01*
X68460952Y-138976666D01*
X68508571Y-139071904D01*
X68508571Y-139405238D01*
X68746666Y-138452857D02*
X68746666Y-137976666D01*
X69032380Y-138548095D02*
X68032380Y-138214761D01*
X69032380Y-137881428D01*
X69032380Y-137071904D02*
X69032380Y-137548095D01*
X68032380Y-137548095D01*
X68746666Y-136786190D02*
X68746666Y-136310000D01*
X69032380Y-136881428D02*
X68032380Y-136548095D01*
X69032380Y-136214761D01*
X69032380Y-135881428D02*
X68032380Y-135881428D01*
X69032380Y-135310000D01*
X68032380Y-135310000D01*
X68937142Y-134262380D02*
X68984761Y-134310000D01*
X69032380Y-134452857D01*
X69032380Y-134548095D01*
X68984761Y-134690952D01*
X68889523Y-134786190D01*
X68794285Y-134833809D01*
X68603809Y-134881428D01*
X68460952Y-134881428D01*
X68270476Y-134833809D01*
X68175238Y-134786190D01*
X68080000Y-134690952D01*
X68032380Y-134548095D01*
X68032380Y-134452857D01*
X68080000Y-134310000D01*
X68127619Y-134262380D01*
X68508571Y-133833809D02*
X68508571Y-133500476D01*
X69032380Y-133357619D02*
X69032380Y-133833809D01*
X68032380Y-133833809D01*
X68032380Y-133357619D01*
X68937142Y-131595714D02*
X68984761Y-131643333D01*
X69032380Y-131786190D01*
X69032380Y-131881428D01*
X68984761Y-132024285D01*
X68889523Y-132119523D01*
X68794285Y-132167142D01*
X68603809Y-132214761D01*
X68460952Y-132214761D01*
X68270476Y-132167142D01*
X68175238Y-132119523D01*
X68080000Y-132024285D01*
X68032380Y-131881428D01*
X68032380Y-131786190D01*
X68080000Y-131643333D01*
X68127619Y-131595714D01*
X69032380Y-131167142D02*
X68032380Y-131167142D01*
X68508571Y-131167142D02*
X68508571Y-130595714D01*
X69032380Y-130595714D02*
X68032380Y-130595714D01*
X68746666Y-130167142D02*
X68746666Y-129690952D01*
X69032380Y-130262380D02*
X68032380Y-129929047D01*
X69032380Y-129595714D01*
X69032380Y-128690952D02*
X68556190Y-129024285D01*
X69032380Y-129262380D02*
X68032380Y-129262380D01*
X68032380Y-128881428D01*
X68080000Y-128786190D01*
X68127619Y-128738571D01*
X68222857Y-128690952D01*
X68365714Y-128690952D01*
X68460952Y-128738571D01*
X68508571Y-128786190D01*
X68556190Y-128881428D01*
X68556190Y-129262380D01*
X68080000Y-127738571D02*
X68032380Y-127833809D01*
X68032380Y-127976666D01*
X68080000Y-128119523D01*
X68175238Y-128214761D01*
X68270476Y-128262380D01*
X68460952Y-128310000D01*
X68603809Y-128310000D01*
X68794285Y-128262380D01*
X68889523Y-128214761D01*
X68984761Y-128119523D01*
X69032380Y-127976666D01*
X69032380Y-127881428D01*
X68984761Y-127738571D01*
X68937142Y-127690952D01*
X68603809Y-127690952D01*
X68603809Y-127881428D01*
X69032380Y-127262380D02*
X68032380Y-127262380D01*
X69032380Y-126786190D02*
X68032380Y-126786190D01*
X69032380Y-126214761D01*
X68032380Y-126214761D01*
X68080000Y-125214761D02*
X68032380Y-125310000D01*
X68032380Y-125452857D01*
X68080000Y-125595714D01*
X68175238Y-125690952D01*
X68270476Y-125738571D01*
X68460952Y-125786190D01*
X68603809Y-125786190D01*
X68794285Y-125738571D01*
X68889523Y-125690952D01*
X68984761Y-125595714D01*
X69032380Y-125452857D01*
X69032380Y-125357619D01*
X68984761Y-125214761D01*
X68937142Y-125167142D01*
X68603809Y-125167142D01*
X68603809Y-125357619D01*
X68508571Y-123643333D02*
X68556190Y-123500476D01*
X68603809Y-123452857D01*
X68699047Y-123405238D01*
X68841904Y-123405238D01*
X68937142Y-123452857D01*
X68984761Y-123500476D01*
X69032380Y-123595714D01*
X69032380Y-123976666D01*
X68032380Y-123976666D01*
X68032380Y-123643333D01*
X68080000Y-123548095D01*
X68127619Y-123500476D01*
X68222857Y-123452857D01*
X68318095Y-123452857D01*
X68413333Y-123500476D01*
X68460952Y-123548095D01*
X68508571Y-123643333D01*
X68508571Y-123976666D01*
X68032380Y-122786190D02*
X68032380Y-122595714D01*
X68080000Y-122500476D01*
X68175238Y-122405238D01*
X68365714Y-122357619D01*
X68699047Y-122357619D01*
X68889523Y-122405238D01*
X68984761Y-122500476D01*
X69032380Y-122595714D01*
X69032380Y-122786190D01*
X68984761Y-122881428D01*
X68889523Y-122976666D01*
X68699047Y-123024285D01*
X68365714Y-123024285D01*
X68175238Y-122976666D01*
X68080000Y-122881428D01*
X68032380Y-122786190D01*
X68746666Y-121976666D02*
X68746666Y-121500476D01*
X69032380Y-122071904D02*
X68032380Y-121738571D01*
X69032380Y-121405238D01*
X69032380Y-120500476D02*
X68556190Y-120833809D01*
X69032380Y-121071904D02*
X68032380Y-121071904D01*
X68032380Y-120690952D01*
X68080000Y-120595714D01*
X68127619Y-120548095D01*
X68222857Y-120500476D01*
X68365714Y-120500476D01*
X68460952Y-120548095D01*
X68508571Y-120595714D01*
X68556190Y-120690952D01*
X68556190Y-121071904D01*
X69032380Y-120071904D02*
X68032380Y-120071904D01*
X68032380Y-119833809D01*
X68080000Y-119690952D01*
X68175238Y-119595714D01*
X68270476Y-119548095D01*
X68460952Y-119500476D01*
X68603809Y-119500476D01*
X68794285Y-119548095D01*
X68889523Y-119595714D01*
X68984761Y-119690952D01*
X69032380Y-119833809D01*
X69032380Y-120071904D01*
X77978095Y-146820000D02*
X77882857Y-146772380D01*
X77740000Y-146772380D01*
X77597142Y-146820000D01*
X77501904Y-146915238D01*
X77454285Y-147010476D01*
X77406666Y-147200952D01*
X77406666Y-147343809D01*
X77454285Y-147534285D01*
X77501904Y-147629523D01*
X77597142Y-147724761D01*
X77740000Y-147772380D01*
X77835238Y-147772380D01*
X77978095Y-147724761D01*
X78025714Y-147677142D01*
X78025714Y-147343809D01*
X77835238Y-147343809D01*
X78454285Y-147772380D02*
X78454285Y-146772380D01*
X79025714Y-147772380D01*
X79025714Y-146772380D01*
X79501904Y-147772380D02*
X79501904Y-146772380D01*
X79740000Y-146772380D01*
X79882857Y-146820000D01*
X79978095Y-146915238D01*
X80025714Y-147010476D01*
X80073333Y-147200952D01*
X80073333Y-147343809D01*
X80025714Y-147534285D01*
X79978095Y-147629523D01*
X79882857Y-147724761D01*
X79740000Y-147772380D01*
X79501904Y-147772380D01*
X72834666Y-146772380D02*
X73168000Y-147772380D01*
X73501333Y-146772380D01*
X74406095Y-147677142D02*
X74358476Y-147724761D01*
X74215619Y-147772380D01*
X74120380Y-147772380D01*
X73977523Y-147724761D01*
X73882285Y-147629523D01*
X73834666Y-147534285D01*
X73787047Y-147343809D01*
X73787047Y-147200952D01*
X73834666Y-147010476D01*
X73882285Y-146915238D01*
X73977523Y-146820000D01*
X74120380Y-146772380D01*
X74215619Y-146772380D01*
X74358476Y-146820000D01*
X74406095Y-146867619D01*
X75406095Y-147677142D02*
X75358476Y-147724761D01*
X75215619Y-147772380D01*
X75120380Y-147772380D01*
X74977523Y-147724761D01*
X74882285Y-147629523D01*
X74834666Y-147534285D01*
X74787047Y-147343809D01*
X74787047Y-147200952D01*
X74834666Y-147010476D01*
X74882285Y-146915238D01*
X74977523Y-146820000D01*
X75120380Y-146772380D01*
X75215619Y-146772380D01*
X75358476Y-146820000D01*
X75406095Y-146867619D01*
D11*
%TO.C,JP1*%
X100390000Y-140910000D02*
X97730000Y-140910000D01*
X100390000Y-143510000D02*
X100390000Y-140910000D01*
X97730000Y-143510000D02*
X97730000Y-140910000D01*
X100390000Y-143510000D02*
X97730000Y-143510000D01*
X100390000Y-144780000D02*
X100390000Y-146110000D01*
X100390000Y-146110000D02*
X99060000Y-146110000D01*
%TO.C,JP2*%
X105470000Y-140910000D02*
X102810000Y-140910000D01*
X105470000Y-143510000D02*
X105470000Y-140910000D01*
X102810000Y-143510000D02*
X102810000Y-140910000D01*
X105470000Y-143510000D02*
X102810000Y-143510000D01*
X105470000Y-144780000D02*
X105470000Y-146110000D01*
X105470000Y-146110000D02*
X104140000Y-146110000D01*
%TO.C,JP3*%
X110550000Y-140910000D02*
X107890000Y-140910000D01*
X110550000Y-143510000D02*
X110550000Y-140910000D01*
X107890000Y-143510000D02*
X107890000Y-140910000D01*
X110550000Y-143510000D02*
X107890000Y-143510000D01*
X110550000Y-144780000D02*
X110550000Y-146110000D01*
X110550000Y-146110000D02*
X109220000Y-146110000D01*
%TO.C,JP4*%
X115630000Y-140910000D02*
X112970000Y-140910000D01*
X115630000Y-143510000D02*
X115630000Y-140910000D01*
X112970000Y-143510000D02*
X112970000Y-140910000D01*
X115630000Y-143510000D02*
X112970000Y-143510000D01*
X115630000Y-144780000D02*
X115630000Y-146110000D01*
X115630000Y-146110000D02*
X114300000Y-146110000D01*
%TO.C,JP5*%
X120710000Y-140910000D02*
X118050000Y-140910000D01*
X120710000Y-143510000D02*
X120710000Y-140910000D01*
X118050000Y-143510000D02*
X118050000Y-140910000D01*
X120710000Y-143510000D02*
X118050000Y-143510000D01*
X120710000Y-144780000D02*
X120710000Y-146110000D01*
X120710000Y-146110000D02*
X119380000Y-146110000D01*
%TO.C,JP6*%
X125790000Y-140910000D02*
X123130000Y-140910000D01*
X125790000Y-143510000D02*
X125790000Y-140910000D01*
X123130000Y-143510000D02*
X123130000Y-140910000D01*
X125790000Y-143510000D02*
X123130000Y-143510000D01*
X125790000Y-144780000D02*
X125790000Y-146110000D01*
X125790000Y-146110000D02*
X124460000Y-146110000D01*
%TO.C,J8*%
X101580000Y-127080000D02*
X101580000Y-133050000D01*
X101580000Y-133050000D02*
X121700000Y-133050000D01*
X121700000Y-133050000D02*
X121700000Y-127080000D01*
X121700000Y-127080000D02*
X101580000Y-127080000D01*
X104890000Y-127090000D02*
X104890000Y-127840000D01*
X104890000Y-127840000D02*
X118390000Y-127840000D01*
X118390000Y-127840000D02*
X118390000Y-127090000D01*
X118390000Y-127090000D02*
X104890000Y-127090000D01*
X101590000Y-127090000D02*
X101590000Y-127840000D01*
X101590000Y-127840000D02*
X103390000Y-127840000D01*
X103390000Y-127840000D02*
X103390000Y-127090000D01*
X103390000Y-127090000D02*
X101590000Y-127090000D01*
X119890000Y-127090000D02*
X119890000Y-127840000D01*
X119890000Y-127840000D02*
X121690000Y-127840000D01*
X121690000Y-127840000D02*
X121690000Y-127090000D01*
X121690000Y-127090000D02*
X119890000Y-127090000D01*
X101590000Y-129340000D02*
X102340000Y-129340000D01*
X102340000Y-129340000D02*
X102340000Y-132290000D01*
X102340000Y-132290000D02*
X111640000Y-132290000D01*
X121690000Y-129340000D02*
X120940000Y-129340000D01*
X120940000Y-129340000D02*
X120940000Y-132290000D01*
X120940000Y-132290000D02*
X111640000Y-132290000D01*
X102540000Y-126790000D02*
X101290000Y-126790000D01*
X101290000Y-126790000D02*
X101290000Y-128040000D01*
%TO.C,J6*%
X141510000Y-114780000D02*
X136790000Y-114780000D01*
X136790000Y-114780000D02*
X136790000Y-120900000D01*
X136790000Y-120900000D02*
X141510000Y-120900000D01*
X141510000Y-120900000D02*
X141510000Y-114780000D01*
X141510000Y-116540000D02*
X141710000Y-116540000D01*
X141710000Y-116540000D02*
X141710000Y-116240000D01*
X141710000Y-116240000D02*
X141510000Y-116240000D01*
X141610000Y-116540000D02*
X141610000Y-116240000D01*
X141510000Y-117340000D02*
X140900000Y-117340000D01*
X140900000Y-117340000D02*
X140900000Y-115390000D01*
X140900000Y-115390000D02*
X137400000Y-115390000D01*
X137400000Y-115390000D02*
X137400000Y-120290000D01*
X137400000Y-120290000D02*
X140900000Y-120290000D01*
X140900000Y-120290000D02*
X140900000Y-118340000D01*
X140900000Y-118340000D02*
X141510000Y-118340000D01*
X140200000Y-114780000D02*
X140200000Y-115390000D01*
X138900000Y-114780000D02*
X138900000Y-115390000D01*
X140200000Y-120900000D02*
X140200000Y-120290000D01*
X138900000Y-120900000D02*
X138900000Y-120290000D01*
X137400000Y-117740000D02*
X137900000Y-117740000D01*
X137900000Y-117740000D02*
X137900000Y-117940000D01*
X137900000Y-117940000D02*
X137400000Y-117940000D01*
X137400000Y-117840000D02*
X137900000Y-117840000D01*
X141810000Y-115730000D02*
X141810000Y-114480000D01*
X141810000Y-114480000D02*
X140560000Y-114480000D01*
%TO.C,J5*%
X128810000Y-114780000D02*
X124090000Y-114780000D01*
X124090000Y-114780000D02*
X124090000Y-120900000D01*
X124090000Y-120900000D02*
X128810000Y-120900000D01*
X128810000Y-120900000D02*
X128810000Y-114780000D01*
X128810000Y-116540000D02*
X129010000Y-116540000D01*
X129010000Y-116540000D02*
X129010000Y-116240000D01*
X129010000Y-116240000D02*
X128810000Y-116240000D01*
X128910000Y-116540000D02*
X128910000Y-116240000D01*
X128810000Y-117340000D02*
X128200000Y-117340000D01*
X128200000Y-117340000D02*
X128200000Y-115390000D01*
X128200000Y-115390000D02*
X124700000Y-115390000D01*
X124700000Y-115390000D02*
X124700000Y-120290000D01*
X124700000Y-120290000D02*
X128200000Y-120290000D01*
X128200000Y-120290000D02*
X128200000Y-118340000D01*
X128200000Y-118340000D02*
X128810000Y-118340000D01*
X127500000Y-114780000D02*
X127500000Y-115390000D01*
X126200000Y-114780000D02*
X126200000Y-115390000D01*
X127500000Y-120900000D02*
X127500000Y-120290000D01*
X126200000Y-120900000D02*
X126200000Y-120290000D01*
X124700000Y-117740000D02*
X125200000Y-117740000D01*
X125200000Y-117740000D02*
X125200000Y-117940000D01*
X125200000Y-117940000D02*
X124700000Y-117940000D01*
X124700000Y-117840000D02*
X125200000Y-117840000D01*
X129110000Y-115730000D02*
X129110000Y-114480000D01*
X129110000Y-114480000D02*
X127860000Y-114480000D01*
%TO.C,J4*%
X116110000Y-114780000D02*
X111390000Y-114780000D01*
X111390000Y-114780000D02*
X111390000Y-120900000D01*
X111390000Y-120900000D02*
X116110000Y-120900000D01*
X116110000Y-120900000D02*
X116110000Y-114780000D01*
X116110000Y-116540000D02*
X116310000Y-116540000D01*
X116310000Y-116540000D02*
X116310000Y-116240000D01*
X116310000Y-116240000D02*
X116110000Y-116240000D01*
X116210000Y-116540000D02*
X116210000Y-116240000D01*
X116110000Y-117340000D02*
X115500000Y-117340000D01*
X115500000Y-117340000D02*
X115500000Y-115390000D01*
X115500000Y-115390000D02*
X112000000Y-115390000D01*
X112000000Y-115390000D02*
X112000000Y-120290000D01*
X112000000Y-120290000D02*
X115500000Y-120290000D01*
X115500000Y-120290000D02*
X115500000Y-118340000D01*
X115500000Y-118340000D02*
X116110000Y-118340000D01*
X114800000Y-114780000D02*
X114800000Y-115390000D01*
X113500000Y-114780000D02*
X113500000Y-115390000D01*
X114800000Y-120900000D02*
X114800000Y-120290000D01*
X113500000Y-120900000D02*
X113500000Y-120290000D01*
X112000000Y-117740000D02*
X112500000Y-117740000D01*
X112500000Y-117740000D02*
X112500000Y-117940000D01*
X112500000Y-117940000D02*
X112000000Y-117940000D01*
X112000000Y-117840000D02*
X112500000Y-117840000D01*
X116410000Y-115730000D02*
X116410000Y-114480000D01*
X116410000Y-114480000D02*
X115160000Y-114480000D01*
%TO.C,J3*%
X103410000Y-114780000D02*
X98690000Y-114780000D01*
X98690000Y-114780000D02*
X98690000Y-120900000D01*
X98690000Y-120900000D02*
X103410000Y-120900000D01*
X103410000Y-120900000D02*
X103410000Y-114780000D01*
X103410000Y-116540000D02*
X103610000Y-116540000D01*
X103610000Y-116540000D02*
X103610000Y-116240000D01*
X103610000Y-116240000D02*
X103410000Y-116240000D01*
X103510000Y-116540000D02*
X103510000Y-116240000D01*
X103410000Y-117340000D02*
X102800000Y-117340000D01*
X102800000Y-117340000D02*
X102800000Y-115390000D01*
X102800000Y-115390000D02*
X99300000Y-115390000D01*
X99300000Y-115390000D02*
X99300000Y-120290000D01*
X99300000Y-120290000D02*
X102800000Y-120290000D01*
X102800000Y-120290000D02*
X102800000Y-118340000D01*
X102800000Y-118340000D02*
X103410000Y-118340000D01*
X102100000Y-114780000D02*
X102100000Y-115390000D01*
X100800000Y-114780000D02*
X100800000Y-115390000D01*
X102100000Y-120900000D02*
X102100000Y-120290000D01*
X100800000Y-120900000D02*
X100800000Y-120290000D01*
X99300000Y-117740000D02*
X99800000Y-117740000D01*
X99800000Y-117740000D02*
X99800000Y-117940000D01*
X99800000Y-117940000D02*
X99300000Y-117940000D01*
X99300000Y-117840000D02*
X99800000Y-117840000D01*
X103710000Y-115730000D02*
X103710000Y-114480000D01*
X103710000Y-114480000D02*
X102460000Y-114480000D01*
%TO.C,J2*%
X90710000Y-114780000D02*
X85990000Y-114780000D01*
X85990000Y-114780000D02*
X85990000Y-120900000D01*
X85990000Y-120900000D02*
X90710000Y-120900000D01*
X90710000Y-120900000D02*
X90710000Y-114780000D01*
X90710000Y-116540000D02*
X90910000Y-116540000D01*
X90910000Y-116540000D02*
X90910000Y-116240000D01*
X90910000Y-116240000D02*
X90710000Y-116240000D01*
X90810000Y-116540000D02*
X90810000Y-116240000D01*
X90710000Y-117340000D02*
X90100000Y-117340000D01*
X90100000Y-117340000D02*
X90100000Y-115390000D01*
X90100000Y-115390000D02*
X86600000Y-115390000D01*
X86600000Y-115390000D02*
X86600000Y-120290000D01*
X86600000Y-120290000D02*
X90100000Y-120290000D01*
X90100000Y-120290000D02*
X90100000Y-118340000D01*
X90100000Y-118340000D02*
X90710000Y-118340000D01*
X89400000Y-114780000D02*
X89400000Y-115390000D01*
X88100000Y-114780000D02*
X88100000Y-115390000D01*
X89400000Y-120900000D02*
X89400000Y-120290000D01*
X88100000Y-120900000D02*
X88100000Y-120290000D01*
X86600000Y-117740000D02*
X87100000Y-117740000D01*
X87100000Y-117740000D02*
X87100000Y-117940000D01*
X87100000Y-117940000D02*
X86600000Y-117940000D01*
X86600000Y-117840000D02*
X87100000Y-117840000D01*
X91010000Y-115730000D02*
X91010000Y-114480000D01*
X91010000Y-114480000D02*
X89760000Y-114480000D01*
%TO.C,J1*%
X78010000Y-114780000D02*
X73290000Y-114780000D01*
X73290000Y-114780000D02*
X73290000Y-120900000D01*
X73290000Y-120900000D02*
X78010000Y-120900000D01*
X78010000Y-120900000D02*
X78010000Y-114780000D01*
X78010000Y-116540000D02*
X78210000Y-116540000D01*
X78210000Y-116540000D02*
X78210000Y-116240000D01*
X78210000Y-116240000D02*
X78010000Y-116240000D01*
X78110000Y-116540000D02*
X78110000Y-116240000D01*
X78010000Y-117340000D02*
X77400000Y-117340000D01*
X77400000Y-117340000D02*
X77400000Y-115390000D01*
X77400000Y-115390000D02*
X73900000Y-115390000D01*
X73900000Y-115390000D02*
X73900000Y-120290000D01*
X73900000Y-120290000D02*
X77400000Y-120290000D01*
X77400000Y-120290000D02*
X77400000Y-118340000D01*
X77400000Y-118340000D02*
X78010000Y-118340000D01*
X76700000Y-114780000D02*
X76700000Y-115390000D01*
X75400000Y-114780000D02*
X75400000Y-115390000D01*
X76700000Y-120900000D02*
X76700000Y-120290000D01*
X75400000Y-120900000D02*
X75400000Y-120290000D01*
X73900000Y-117740000D02*
X74400000Y-117740000D01*
X74400000Y-117740000D02*
X74400000Y-117940000D01*
X74400000Y-117940000D02*
X73900000Y-117940000D01*
X73900000Y-117840000D02*
X74400000Y-117840000D01*
X78310000Y-115730000D02*
X78310000Y-114480000D01*
X78310000Y-114480000D02*
X77060000Y-114480000D01*
%TO.C,JP1*%
D10*
X98226666Y-146772380D02*
X98226666Y-147486666D01*
X98179047Y-147629523D01*
X98083809Y-147724761D01*
X97940952Y-147772380D01*
X97845714Y-147772380D01*
X98702857Y-147772380D02*
X98702857Y-146772380D01*
X99083809Y-146772380D01*
X99179047Y-146820000D01*
X99226666Y-146867619D01*
X99274285Y-146962857D01*
X99274285Y-147105714D01*
X99226666Y-147200952D01*
X99179047Y-147248571D01*
X99083809Y-147296190D01*
X98702857Y-147296190D01*
X100226666Y-147772380D02*
X99655238Y-147772380D01*
X99940952Y-147772380D02*
X99940952Y-146772380D01*
X99845714Y-146915238D01*
X99750476Y-147010476D01*
X99655238Y-147058095D01*
%TO.C,JP2*%
X103306666Y-146772380D02*
X103306666Y-147486666D01*
X103259047Y-147629523D01*
X103163809Y-147724761D01*
X103020952Y-147772380D01*
X102925714Y-147772380D01*
X103782857Y-147772380D02*
X103782857Y-146772380D01*
X104163809Y-146772380D01*
X104259047Y-146820000D01*
X104306666Y-146867619D01*
X104354285Y-146962857D01*
X104354285Y-147105714D01*
X104306666Y-147200952D01*
X104259047Y-147248571D01*
X104163809Y-147296190D01*
X103782857Y-147296190D01*
X104735238Y-146867619D02*
X104782857Y-146820000D01*
X104878095Y-146772380D01*
X105116190Y-146772380D01*
X105211428Y-146820000D01*
X105259047Y-146867619D01*
X105306666Y-146962857D01*
X105306666Y-147058095D01*
X105259047Y-147200952D01*
X104687619Y-147772380D01*
X105306666Y-147772380D01*
%TO.C,JP3*%
X108386666Y-146772380D02*
X108386666Y-147486666D01*
X108339047Y-147629523D01*
X108243809Y-147724761D01*
X108100952Y-147772380D01*
X108005714Y-147772380D01*
X108862857Y-147772380D02*
X108862857Y-146772380D01*
X109243809Y-146772380D01*
X109339047Y-146820000D01*
X109386666Y-146867619D01*
X109434285Y-146962857D01*
X109434285Y-147105714D01*
X109386666Y-147200952D01*
X109339047Y-147248571D01*
X109243809Y-147296190D01*
X108862857Y-147296190D01*
X109767619Y-146772380D02*
X110386666Y-146772380D01*
X110053333Y-147153333D01*
X110196190Y-147153333D01*
X110291428Y-147200952D01*
X110339047Y-147248571D01*
X110386666Y-147343809D01*
X110386666Y-147581904D01*
X110339047Y-147677142D01*
X110291428Y-147724761D01*
X110196190Y-147772380D01*
X109910476Y-147772380D01*
X109815238Y-147724761D01*
X109767619Y-147677142D01*
%TO.C,JP4*%
X113466666Y-146772380D02*
X113466666Y-147486666D01*
X113419047Y-147629523D01*
X113323809Y-147724761D01*
X113180952Y-147772380D01*
X113085714Y-147772380D01*
X113942857Y-147772380D02*
X113942857Y-146772380D01*
X114323809Y-146772380D01*
X114419047Y-146820000D01*
X114466666Y-146867619D01*
X114514285Y-146962857D01*
X114514285Y-147105714D01*
X114466666Y-147200952D01*
X114419047Y-147248571D01*
X114323809Y-147296190D01*
X113942857Y-147296190D01*
X115371428Y-147105714D02*
X115371428Y-147772380D01*
X115133333Y-146724761D02*
X114895238Y-147439047D01*
X115514285Y-147439047D01*
%TO.C,JP5*%
X118546666Y-146772380D02*
X118546666Y-147486666D01*
X118499047Y-147629523D01*
X118403809Y-147724761D01*
X118260952Y-147772380D01*
X118165714Y-147772380D01*
X119022857Y-147772380D02*
X119022857Y-146772380D01*
X119403809Y-146772380D01*
X119499047Y-146820000D01*
X119546666Y-146867619D01*
X119594285Y-146962857D01*
X119594285Y-147105714D01*
X119546666Y-147200952D01*
X119499047Y-147248571D01*
X119403809Y-147296190D01*
X119022857Y-147296190D01*
X120499047Y-146772380D02*
X120022857Y-146772380D01*
X119975238Y-147248571D01*
X120022857Y-147200952D01*
X120118095Y-147153333D01*
X120356190Y-147153333D01*
X120451428Y-147200952D01*
X120499047Y-147248571D01*
X120546666Y-147343809D01*
X120546666Y-147581904D01*
X120499047Y-147677142D01*
X120451428Y-147724761D01*
X120356190Y-147772380D01*
X120118095Y-147772380D01*
X120022857Y-147724761D01*
X119975238Y-147677142D01*
%TO.C,JP6*%
X123626666Y-146772380D02*
X123626666Y-147486666D01*
X123579047Y-147629523D01*
X123483809Y-147724761D01*
X123340952Y-147772380D01*
X123245714Y-147772380D01*
X124102857Y-147772380D02*
X124102857Y-146772380D01*
X124483809Y-146772380D01*
X124579047Y-146820000D01*
X124626666Y-146867619D01*
X124674285Y-146962857D01*
X124674285Y-147105714D01*
X124626666Y-147200952D01*
X124579047Y-147248571D01*
X124483809Y-147296190D01*
X124102857Y-147296190D01*
X125531428Y-146772380D02*
X125340952Y-146772380D01*
X125245714Y-146820000D01*
X125198095Y-146867619D01*
X125102857Y-147010476D01*
X125055238Y-147200952D01*
X125055238Y-147581904D01*
X125102857Y-147677142D01*
X125150476Y-147724761D01*
X125245714Y-147772380D01*
X125436190Y-147772380D01*
X125531428Y-147724761D01*
X125579047Y-147677142D01*
X125626666Y-147581904D01*
X125626666Y-147343809D01*
X125579047Y-147248571D01*
X125531428Y-147200952D01*
X125436190Y-147153333D01*
X125245714Y-147153333D01*
X125150476Y-147200952D01*
X125102857Y-147248571D01*
X125055238Y-147343809D01*
%TO.C,J8*%
X111306666Y-125442380D02*
X111306666Y-126156666D01*
X111259047Y-126299523D01*
X111163809Y-126394761D01*
X111020952Y-126442380D01*
X110925714Y-126442380D01*
X111925714Y-125870952D02*
X111830476Y-125823333D01*
X111782857Y-125775714D01*
X111735238Y-125680476D01*
X111735238Y-125632857D01*
X111782857Y-125537619D01*
X111830476Y-125490000D01*
X111925714Y-125442380D01*
X112116190Y-125442380D01*
X112211428Y-125490000D01*
X112259047Y-125537619D01*
X112306666Y-125632857D01*
X112306666Y-125680476D01*
X112259047Y-125775714D01*
X112211428Y-125823333D01*
X112116190Y-125870952D01*
X111925714Y-125870952D01*
X111830476Y-125918571D01*
X111782857Y-125966190D01*
X111735238Y-126061428D01*
X111735238Y-126251904D01*
X111782857Y-126347142D01*
X111830476Y-126394761D01*
X111925714Y-126442380D01*
X112116190Y-126442380D01*
X112211428Y-126394761D01*
X112259047Y-126347142D01*
X112306666Y-126251904D01*
X112306666Y-126061428D01*
X112259047Y-125966190D01*
X112211428Y-125918571D01*
X112116190Y-125870952D01*
%TO.C,J6*%
X142052380Y-118173333D02*
X142766666Y-118173333D01*
X142909523Y-118220952D01*
X143004761Y-118316190D01*
X143052380Y-118459047D01*
X143052380Y-118554285D01*
X142052380Y-117268571D02*
X142052380Y-117459047D01*
X142100000Y-117554285D01*
X142147619Y-117601904D01*
X142290476Y-117697142D01*
X142480952Y-117744761D01*
X142861904Y-117744761D01*
X142957142Y-117697142D01*
X143004761Y-117649523D01*
X143052380Y-117554285D01*
X143052380Y-117363809D01*
X143004761Y-117268571D01*
X142957142Y-117220952D01*
X142861904Y-117173333D01*
X142623809Y-117173333D01*
X142528571Y-117220952D01*
X142480952Y-117268571D01*
X142433333Y-117363809D01*
X142433333Y-117554285D01*
X142480952Y-117649523D01*
X142528571Y-117697142D01*
X142623809Y-117744761D01*
%TO.C,J5*%
X129352380Y-118173333D02*
X130066666Y-118173333D01*
X130209523Y-118220952D01*
X130304761Y-118316190D01*
X130352380Y-118459047D01*
X130352380Y-118554285D01*
X129352380Y-117220952D02*
X129352380Y-117697142D01*
X129828571Y-117744761D01*
X129780952Y-117697142D01*
X129733333Y-117601904D01*
X129733333Y-117363809D01*
X129780952Y-117268571D01*
X129828571Y-117220952D01*
X129923809Y-117173333D01*
X130161904Y-117173333D01*
X130257142Y-117220952D01*
X130304761Y-117268571D01*
X130352380Y-117363809D01*
X130352380Y-117601904D01*
X130304761Y-117697142D01*
X130257142Y-117744761D01*
%TO.C,J4*%
X116652380Y-118173333D02*
X117366666Y-118173333D01*
X117509523Y-118220952D01*
X117604761Y-118316190D01*
X117652380Y-118459047D01*
X117652380Y-118554285D01*
X116985714Y-117268571D02*
X117652380Y-117268571D01*
X116604761Y-117506666D02*
X117319047Y-117744761D01*
X117319047Y-117125714D01*
%TO.C,J3*%
X103952380Y-118173333D02*
X104666666Y-118173333D01*
X104809523Y-118220952D01*
X104904761Y-118316190D01*
X104952380Y-118459047D01*
X104952380Y-118554285D01*
X103952380Y-117792380D02*
X103952380Y-117173333D01*
X104333333Y-117506666D01*
X104333333Y-117363809D01*
X104380952Y-117268571D01*
X104428571Y-117220952D01*
X104523809Y-117173333D01*
X104761904Y-117173333D01*
X104857142Y-117220952D01*
X104904761Y-117268571D01*
X104952380Y-117363809D01*
X104952380Y-117649523D01*
X104904761Y-117744761D01*
X104857142Y-117792380D01*
%TO.C,J2*%
X91252380Y-118173333D02*
X91966666Y-118173333D01*
X92109523Y-118220952D01*
X92204761Y-118316190D01*
X92252380Y-118459047D01*
X92252380Y-118554285D01*
X91347619Y-117744761D02*
X91300000Y-117697142D01*
X91252380Y-117601904D01*
X91252380Y-117363809D01*
X91300000Y-117268571D01*
X91347619Y-117220952D01*
X91442857Y-117173333D01*
X91538095Y-117173333D01*
X91680952Y-117220952D01*
X92252380Y-117792380D01*
X92252380Y-117173333D01*
%TO.C,J1*%
X78552380Y-118173333D02*
X79266666Y-118173333D01*
X79409523Y-118220952D01*
X79504761Y-118316190D01*
X79552380Y-118459047D01*
X79552380Y-118554285D01*
X79552380Y-117173333D02*
X79552380Y-117744761D01*
X79552380Y-117459047D02*
X78552380Y-117459047D01*
X78695238Y-117554285D01*
X78790476Y-117649523D01*
X78838095Y-117744761D01*
%TD*%
M02*
