%TF.GenerationSoftware,KiCad,Pcbnew,(5.1.9)-1*%
%TF.CreationDate,2021-07-18T23:52:27+01:00*%
%TF.ProjectId,board,626f6172-642e-46b6-9963-61645f706362,rev?*%
%TF.SameCoordinates,Original*%
%TF.FileFunction,Copper,L1,Top*%
%TF.FilePolarity,Positive*%
%FSLAX46Y46*%
G04 Gerber Fmt 4.6, Leading zero omitted, Abs format (unit mm)*
G04 Created by KiCad (PCBNEW (5.1.9)-1) date 2021-07-18 23:52:27*
%MOMM*%
%LPD*%
G01*
G04 APERTURE LIST*
%TA.AperFunction,ComponentPad*%
%ADD10C,3.500000*%
%TD*%
%TA.AperFunction,ComponentPad*%
%ADD11R,3.500000X3.500000*%
%TD*%
%TA.AperFunction,ComponentPad*%
%ADD12C,1.400000*%
%TD*%
%TA.AperFunction,ComponentPad*%
%ADD13O,1.700000X1.700000*%
%TD*%
%TA.AperFunction,ComponentPad*%
%ADD14R,1.700000X1.700000*%
%TD*%
%TA.AperFunction,ComponentPad*%
%ADD15O,1.950000X1.700000*%
%TD*%
%TA.AperFunction,ComponentPad*%
%ADD16O,1.700000X1.950000*%
%TD*%
%TA.AperFunction,ComponentPad*%
%ADD17O,1.750000X1.200000*%
%TD*%
%TA.AperFunction,Conductor*%
%ADD18C,2.500000*%
%TD*%
%TA.AperFunction,Conductor*%
%ADD19C,1.800000*%
%TD*%
G04 APERTURE END LIST*
D10*
%TO.P,J12,2*%
%TO.N,VCC*%
X80264000Y-156130000D03*
D11*
%TO.P,J12,1*%
%TO.N,GND*%
X80264000Y-151130000D03*
D12*
%TO.P,J12,*%
%TO.N,*%
X70264000Y-159130000D03*
X70264000Y-148130000D03*
%TD*%
D13*
%TO.P,JP1,2*%
%TO.N,Net-(J1-Pad2)*%
X99060000Y-133350000D03*
D14*
%TO.P,JP1,1*%
%TO.N,VCC*%
X99060000Y-130810000D03*
%TD*%
D15*
%TO.P,J13,7*%
%TO.N,Net-(J11-Pad4)*%
X76200000Y-142000000D03*
%TO.P,J13,6*%
%TO.N,Net-(J11-Pad3)*%
X76200000Y-139500000D03*
%TO.P,J13,5*%
%TO.N,Net-(J11-Pad2)*%
X76200000Y-137000000D03*
%TO.P,J13,4*%
%TO.N,Net-(J10-Pad4)*%
X76200000Y-134500000D03*
%TO.P,J13,3*%
%TO.N,Net-(J10-Pad3)*%
X76200000Y-132000000D03*
%TO.P,J13,2*%
%TO.N,Net-(J1-Pad2)*%
X76200000Y-129500000D03*
%TO.P,J13,1*%
%TO.N,GND*%
%TA.AperFunction,ComponentPad*%
G36*
G01*
X75475000Y-126150000D02*
X76925000Y-126150000D01*
G75*
G02*
X77175000Y-126400000I0J-250000D01*
G01*
X77175000Y-127600000D01*
G75*
G02*
X76925000Y-127850000I-250000J0D01*
G01*
X75475000Y-127850000D01*
G75*
G02*
X75225000Y-127600000I0J250000D01*
G01*
X75225000Y-126400000D01*
G75*
G02*
X75475000Y-126150000I250000J0D01*
G01*
G37*
%TD.AperFunction*%
%TD*%
D13*
%TO.P,JP5,2*%
%TO.N,Net-(J11-Pad3)*%
X119380000Y-133350000D03*
D14*
%TO.P,JP5,1*%
%TO.N,VCC*%
X119380000Y-130810000D03*
%TD*%
D13*
%TO.P,JP2,2*%
%TO.N,Net-(J10-Pad3)*%
X104140000Y-133350000D03*
D14*
%TO.P,JP2,1*%
%TO.N,VCC*%
X104140000Y-130810000D03*
%TD*%
D13*
%TO.P,JP3,2*%
%TO.N,Net-(J10-Pad4)*%
X109220000Y-133350000D03*
D14*
%TO.P,JP3,1*%
%TO.N,VCC*%
X109220000Y-130810000D03*
%TD*%
D13*
%TO.P,JP4,2*%
%TO.N,Net-(J11-Pad2)*%
X114300000Y-133350000D03*
D14*
%TO.P,JP4,1*%
%TO.N,VCC*%
X114300000Y-130810000D03*
%TD*%
D13*
%TO.P,JP6,2*%
%TO.N,Net-(J11-Pad4)*%
X124460000Y-133350000D03*
D14*
%TO.P,JP6,1*%
%TO.N,VCC*%
X124460000Y-130810000D03*
%TD*%
D16*
%TO.P,J11,4*%
%TO.N,Net-(J11-Pad4)*%
X124340000Y-156210000D03*
%TO.P,J11,3*%
%TO.N,Net-(J11-Pad3)*%
X121840000Y-156210000D03*
%TO.P,J11,2*%
%TO.N,Net-(J11-Pad2)*%
X119340000Y-156210000D03*
%TO.P,J11,1*%
%TO.N,Net-(J10-Pad4)*%
%TA.AperFunction,ComponentPad*%
G36*
G01*
X115990000Y-156935000D02*
X115990000Y-155485000D01*
G75*
G02*
X116240000Y-155235000I250000J0D01*
G01*
X117440000Y-155235000D01*
G75*
G02*
X117690000Y-155485000I0J-250000D01*
G01*
X117690000Y-156935000D01*
G75*
G02*
X117440000Y-157185000I-250000J0D01*
G01*
X116240000Y-157185000D01*
G75*
G02*
X115990000Y-156935000I0J250000D01*
G01*
G37*
%TD.AperFunction*%
%TD*%
%TO.P,J10,4*%
%TO.N,Net-(J10-Pad4)*%
X105290000Y-156210000D03*
%TO.P,J10,3*%
%TO.N,Net-(J10-Pad3)*%
X102790000Y-156210000D03*
%TO.P,J10,2*%
%TO.N,Net-(J1-Pad2)*%
X100290000Y-156210000D03*
%TO.P,J10,1*%
%TO.N,GND*%
%TA.AperFunction,ComponentPad*%
G36*
G01*
X96940000Y-156935000D02*
X96940000Y-155485000D01*
G75*
G02*
X97190000Y-155235000I250000J0D01*
G01*
X98390000Y-155235000D01*
G75*
G02*
X98640000Y-155485000I0J-250000D01*
G01*
X98640000Y-156935000D01*
G75*
G02*
X98390000Y-157185000I-250000J0D01*
G01*
X97190000Y-157185000D01*
G75*
G02*
X96940000Y-156935000I0J250000D01*
G01*
G37*
%TD.AperFunction*%
%TD*%
%TO.P,J9,1*%
%TO.N,Net-(J11-Pad2)*%
%TA.AperFunction,ComponentPad*%
G36*
G01*
X144235000Y-126580000D02*
X142785000Y-126580000D01*
G75*
G02*
X142535000Y-126330000I0J250000D01*
G01*
X142535000Y-125130000D01*
G75*
G02*
X142785000Y-124880000I250000J0D01*
G01*
X144235000Y-124880000D01*
G75*
G02*
X144485000Y-125130000I0J-250000D01*
G01*
X144485000Y-126330000D01*
G75*
G02*
X144235000Y-126580000I-250000J0D01*
G01*
G37*
%TD.AperFunction*%
D15*
%TO.P,J9,2*%
%TO.N,Net-(J11-Pad3)*%
X143510000Y-123230000D03*
%TO.P,J9,3*%
%TO.N,Net-(J11-Pad4)*%
X143510000Y-120730000D03*
%TD*%
%TO.P,J8,1*%
%TO.N,Net-(J10-Pad3)*%
%TA.AperFunction,ComponentPad*%
G36*
G01*
X144235000Y-140550000D02*
X142785000Y-140550000D01*
G75*
G02*
X142535000Y-140300000I0J250000D01*
G01*
X142535000Y-139100000D01*
G75*
G02*
X142785000Y-138850000I250000J0D01*
G01*
X144235000Y-138850000D01*
G75*
G02*
X144485000Y-139100000I0J-250000D01*
G01*
X144485000Y-140300000D01*
G75*
G02*
X144235000Y-140550000I-250000J0D01*
G01*
G37*
%TD.AperFunction*%
%TO.P,J8,2*%
%TO.N,Net-(J10-Pad4)*%
X143510000Y-137200000D03*
%TO.P,J8,3*%
%TO.N,Net-(J11-Pad2)*%
X143510000Y-134700000D03*
%TD*%
%TO.P,J7,1*%
%TO.N,GND*%
%TA.AperFunction,ComponentPad*%
G36*
G01*
X144235000Y-154520000D02*
X142785000Y-154520000D01*
G75*
G02*
X142535000Y-154270000I0J250000D01*
G01*
X142535000Y-153070000D01*
G75*
G02*
X142785000Y-152820000I250000J0D01*
G01*
X144235000Y-152820000D01*
G75*
G02*
X144485000Y-153070000I0J-250000D01*
G01*
X144485000Y-154270000D01*
G75*
G02*
X144235000Y-154520000I-250000J0D01*
G01*
G37*
%TD.AperFunction*%
%TO.P,J7,2*%
%TO.N,Net-(J1-Pad2)*%
X143510000Y-151170000D03*
%TO.P,J7,3*%
%TO.N,Net-(J10-Pad3)*%
X143510000Y-148670000D03*
%TD*%
D17*
%TO.P,J6,2*%
%TO.N,Net-(J11-Pad4)*%
X132080000Y-116110000D03*
%TO.P,J6,1*%
%TO.N,Net-(J11-Pad3)*%
%TA.AperFunction,ComponentPad*%
G36*
G01*
X132705001Y-118710000D02*
X131454999Y-118710000D01*
G75*
G02*
X131205000Y-118460001I0J249999D01*
G01*
X131205000Y-117759999D01*
G75*
G02*
X131454999Y-117510000I249999J0D01*
G01*
X132705001Y-117510000D01*
G75*
G02*
X132955000Y-117759999I0J-249999D01*
G01*
X132955000Y-118460001D01*
G75*
G02*
X132705001Y-118710000I-249999J0D01*
G01*
G37*
%TD.AperFunction*%
%TD*%
%TO.P,J5,2*%
%TO.N,Net-(J11-Pad3)*%
X120650000Y-116110000D03*
%TO.P,J5,1*%
%TO.N,Net-(J11-Pad2)*%
%TA.AperFunction,ComponentPad*%
G36*
G01*
X121275001Y-118710000D02*
X120024999Y-118710000D01*
G75*
G02*
X119775000Y-118460001I0J249999D01*
G01*
X119775000Y-117759999D01*
G75*
G02*
X120024999Y-117510000I249999J0D01*
G01*
X121275001Y-117510000D01*
G75*
G02*
X121525000Y-117759999I0J-249999D01*
G01*
X121525000Y-118460001D01*
G75*
G02*
X121275001Y-118710000I-249999J0D01*
G01*
G37*
%TD.AperFunction*%
%TD*%
%TO.P,J4,2*%
%TO.N,Net-(J11-Pad2)*%
X109220000Y-116110000D03*
%TO.P,J4,1*%
%TO.N,Net-(J10-Pad4)*%
%TA.AperFunction,ComponentPad*%
G36*
G01*
X109845001Y-118710000D02*
X108594999Y-118710000D01*
G75*
G02*
X108345000Y-118460001I0J249999D01*
G01*
X108345000Y-117759999D01*
G75*
G02*
X108594999Y-117510000I249999J0D01*
G01*
X109845001Y-117510000D01*
G75*
G02*
X110095000Y-117759999I0J-249999D01*
G01*
X110095000Y-118460001D01*
G75*
G02*
X109845001Y-118710000I-249999J0D01*
G01*
G37*
%TD.AperFunction*%
%TD*%
%TO.P,J3,2*%
%TO.N,Net-(J10-Pad4)*%
X97790000Y-116110000D03*
%TO.P,J3,1*%
%TO.N,Net-(J10-Pad3)*%
%TA.AperFunction,ComponentPad*%
G36*
G01*
X98415001Y-118710000D02*
X97164999Y-118710000D01*
G75*
G02*
X96915000Y-118460001I0J249999D01*
G01*
X96915000Y-117759999D01*
G75*
G02*
X97164999Y-117510000I249999J0D01*
G01*
X98415001Y-117510000D01*
G75*
G02*
X98665000Y-117759999I0J-249999D01*
G01*
X98665000Y-118460001D01*
G75*
G02*
X98415001Y-118710000I-249999J0D01*
G01*
G37*
%TD.AperFunction*%
%TD*%
%TO.P,J2,2*%
%TO.N,Net-(J10-Pad3)*%
X86360000Y-116110000D03*
%TO.P,J2,1*%
%TO.N,Net-(J1-Pad2)*%
%TA.AperFunction,ComponentPad*%
G36*
G01*
X86985001Y-118710000D02*
X85734999Y-118710000D01*
G75*
G02*
X85485000Y-118460001I0J249999D01*
G01*
X85485000Y-117759999D01*
G75*
G02*
X85734999Y-117510000I249999J0D01*
G01*
X86985001Y-117510000D01*
G75*
G02*
X87235000Y-117759999I0J-249999D01*
G01*
X87235000Y-118460001D01*
G75*
G02*
X86985001Y-118710000I-249999J0D01*
G01*
G37*
%TD.AperFunction*%
%TD*%
%TO.P,J1,2*%
%TO.N,Net-(J1-Pad2)*%
X74930000Y-116110000D03*
%TO.P,J1,1*%
%TO.N,GND*%
%TA.AperFunction,ComponentPad*%
G36*
G01*
X75555001Y-118710000D02*
X74304999Y-118710000D01*
G75*
G02*
X74055000Y-118460001I0J249999D01*
G01*
X74055000Y-117759999D01*
G75*
G02*
X74304999Y-117510000I249999J0D01*
G01*
X75555001Y-117510000D01*
G75*
G02*
X75805000Y-117759999I0J-249999D01*
G01*
X75805000Y-118460001D01*
G75*
G02*
X75555001Y-118710000I-249999J0D01*
G01*
G37*
%TD.AperFunction*%
%TD*%
D18*
%TO.N,VCC*%
X124460000Y-130810000D02*
X99060000Y-130810000D01*
X82738873Y-156130000D02*
X80264000Y-156130000D01*
X96709991Y-132376593D02*
X96709991Y-142158882D01*
X98276584Y-130810000D02*
X96709991Y-132376593D01*
X96709991Y-142158882D02*
X82738873Y-156130000D01*
X99060000Y-130810000D02*
X98276584Y-130810000D01*
D19*
%TO.N,Net-(J1-Pad2)*%
X74930000Y-116110000D02*
X76740000Y-116110000D01*
X78740000Y-118110000D02*
X86360000Y-118110000D01*
X76740000Y-116110000D02*
X78740000Y-118110000D01*
X78740000Y-127694204D02*
X78740000Y-118110000D01*
X76934204Y-129500000D02*
X78740000Y-127694204D01*
X76200000Y-129500000D02*
X76934204Y-129500000D01*
X116880000Y-151170000D02*
X99060000Y-133350000D01*
X143510000Y-151170000D02*
X116880000Y-151170000D01*
%TO.N,Net-(J10-Pad3)*%
X86360000Y-116110000D02*
X88170000Y-116110000D01*
X90170000Y-118110000D02*
X97790000Y-118110000D01*
X88170000Y-116110000D02*
X90170000Y-118110000D01*
D18*
X119299990Y-148670000D02*
X104140000Y-133510010D01*
X143510000Y-148670000D02*
X119299990Y-148670000D01*
X143510000Y-148670000D02*
X143510000Y-139700000D01*
D19*
X78975000Y-132000000D02*
X90170000Y-120805000D01*
X76200000Y-132000000D02*
X78975000Y-132000000D01*
X90170000Y-120805000D02*
X90170000Y-118110000D01*
%TO.N,Net-(J10-Pad4)*%
X97790000Y-116110000D02*
X99600000Y-116110000D01*
X101600000Y-118110000D02*
X109220000Y-118110000D01*
X99600000Y-116110000D02*
X101600000Y-118110000D01*
X128498598Y-140560040D02*
X116430040Y-140560040D01*
X131858638Y-137200000D02*
X128498598Y-140560040D01*
X116430040Y-140560040D02*
X109220000Y-133350000D01*
X143510000Y-137200000D02*
X131858638Y-137200000D01*
X76200000Y-134500000D02*
X79303441Y-134500000D01*
X79303441Y-134500000D02*
X93693431Y-120110010D01*
X93693431Y-120110010D02*
X99599990Y-120110010D01*
X99599990Y-120110010D02*
X101600000Y-118110000D01*
%TO.N,Net-(J11-Pad2)*%
X109220000Y-116110000D02*
X111030000Y-116110000D01*
X113030000Y-118110000D02*
X120650000Y-118110000D01*
X111030000Y-116110000D02*
X113030000Y-118110000D01*
D18*
X114460010Y-133510010D02*
X114300000Y-133510010D01*
X119160030Y-138210030D02*
X114460010Y-133510010D01*
X127525192Y-138210030D02*
X119160030Y-138210030D01*
X131035222Y-134700000D02*
X127525192Y-138210030D01*
X143510000Y-134700000D02*
X131035222Y-134700000D01*
X143510000Y-134700000D02*
X143510000Y-125730000D01*
D19*
X76200000Y-137000000D02*
X79631881Y-137000000D01*
X94521861Y-122110020D02*
X109029980Y-122110020D01*
X109029980Y-122110020D02*
X113030000Y-118110000D01*
X79631881Y-137000000D02*
X94521861Y-122110020D01*
%TO.N,Net-(J11-Pad3)*%
X120650000Y-116110000D02*
X122460000Y-116110000D01*
X124460000Y-118110000D02*
X132080000Y-118110000D01*
X122460000Y-116110000D02*
X124460000Y-118110000D01*
X121890020Y-135860020D02*
X119380000Y-133350000D01*
X126551786Y-135860020D02*
X121890020Y-135860020D01*
X139181806Y-123230000D02*
X126551786Y-135860020D01*
X143510000Y-123230000D02*
X139181806Y-123230000D01*
X79960322Y-139500000D02*
X95350292Y-124110030D01*
X76200000Y-139500000D02*
X79960322Y-139500000D01*
X95350292Y-124110030D02*
X118459970Y-124110030D01*
X118459970Y-124110030D02*
X124460000Y-118110000D01*
D18*
%TO.N,Net-(J11-Pad4)*%
X125578380Y-133510010D02*
X124460000Y-133510010D01*
X138358390Y-120730000D02*
X125578380Y-133510010D01*
X143510000Y-120730000D02*
X138358390Y-120730000D01*
D19*
X132964204Y-116110000D02*
X132080000Y-116110000D01*
X134080010Y-118994194D02*
X134080010Y-117225806D01*
X134080010Y-117225806D02*
X132964204Y-116110000D01*
X76200000Y-142000000D02*
X77710000Y-142000000D01*
X77710000Y-142000000D02*
X78209990Y-141500010D01*
X78209990Y-141500010D02*
X80788753Y-141500010D01*
X96178722Y-126110040D02*
X121030040Y-126110040D01*
X80788753Y-141500010D02*
X81960332Y-140328430D01*
X81960332Y-140328430D02*
X96178722Y-126110040D01*
X121030040Y-126110040D02*
X126964164Y-126110040D01*
X126964164Y-126110040D02*
X134080010Y-118994194D01*
%TD*%
M02*
