%TF.GenerationSoftware,KiCad,Pcbnew,(5.1.9)-1*%
%TF.CreationDate,2021-06-24T13:15:50+01:00*%
%TF.ProjectId,board,626f6172-642e-46b6-9963-61645f706362,rev?*%
%TF.SameCoordinates,Original*%
%TF.FileFunction,Copper,L1,Top*%
%TF.FilePolarity,Positive*%
%FSLAX46Y46*%
G04 Gerber Fmt 4.6, Leading zero omitted, Abs format (unit mm)*
G04 Created by KiCad (PCBNEW (5.1.9)-1) date 2021-06-24 13:15:50*
%MOMM*%
%LPD*%
G01*
G04 APERTURE LIST*
%TA.AperFunction,ComponentPad*%
%ADD10C,2.100000*%
%TD*%
%TA.AperFunction,ComponentPad*%
%ADD11O,1.700000X1.700000*%
%TD*%
%TA.AperFunction,ComponentPad*%
%ADD12R,1.700000X1.700000*%
%TD*%
%TA.AperFunction,ComponentPad*%
%ADD13O,1.700000X1.950000*%
%TD*%
%TA.AperFunction,ComponentPad*%
%ADD14O,1.750000X1.200000*%
%TD*%
%TA.AperFunction,Conductor*%
%ADD15C,2.000000*%
%TD*%
%TA.AperFunction,Conductor*%
%ADD16C,1.800000*%
%TD*%
G04 APERTURE END LIST*
D10*
%TO.P,J7,2*%
%TO.N,GND*%
X78740000Y-144780000D03*
%TO.P,J7,1*%
%TO.N,VCC*%
%TA.AperFunction,ComponentPad*%
G36*
G01*
X73090000Y-145580000D02*
X73090000Y-143980000D01*
G75*
G02*
X73340000Y-143730000I250000J0D01*
G01*
X74940000Y-143730000D01*
G75*
G02*
X75190000Y-143980000I0J-250000D01*
G01*
X75190000Y-145580000D01*
G75*
G02*
X74940000Y-145830000I-250000J0D01*
G01*
X73340000Y-145830000D01*
G75*
G02*
X73090000Y-145580000I0J250000D01*
G01*
G37*
%TD.AperFunction*%
%TD*%
D11*
%TO.P,JP1,2*%
%TO.N,Net-(J1-Pad1)*%
X99060000Y-142240000D03*
D12*
%TO.P,JP1,1*%
%TO.N,GND*%
X99060000Y-144780000D03*
%TD*%
D11*
%TO.P,JP2,2*%
%TO.N,Net-(J2-Pad1)*%
X104140000Y-142240000D03*
D12*
%TO.P,JP2,1*%
%TO.N,GND*%
X104140000Y-144780000D03*
%TD*%
D11*
%TO.P,JP3,2*%
%TO.N,Net-(J3-Pad1)*%
X109220000Y-142240000D03*
D12*
%TO.P,JP3,1*%
%TO.N,GND*%
X109220000Y-144780000D03*
%TD*%
D11*
%TO.P,JP4,2*%
%TO.N,Net-(J4-Pad1)*%
X114300000Y-142240000D03*
D12*
%TO.P,JP4,1*%
%TO.N,GND*%
X114300000Y-144780000D03*
%TD*%
D11*
%TO.P,JP5,2*%
%TO.N,Net-(J5-Pad1)*%
X119380000Y-142240000D03*
D12*
%TO.P,JP5,1*%
%TO.N,GND*%
X119380000Y-144780000D03*
%TD*%
D11*
%TO.P,JP6,2*%
%TO.N,Net-(J6-Pad1)*%
X124460000Y-142240000D03*
D12*
%TO.P,JP6,1*%
%TO.N,GND*%
X124460000Y-144780000D03*
%TD*%
D13*
%TO.P,J8,7*%
%TO.N,Net-(J6-Pad1)*%
X119140000Y-129540000D03*
%TO.P,J8,6*%
%TO.N,Net-(J5-Pad1)*%
X116640000Y-129540000D03*
%TO.P,J8,5*%
%TO.N,Net-(J4-Pad1)*%
X114140000Y-129540000D03*
%TO.P,J8,4*%
%TO.N,Net-(J3-Pad1)*%
X111640000Y-129540000D03*
%TO.P,J8,3*%
%TO.N,Net-(J2-Pad1)*%
X109140000Y-129540000D03*
%TO.P,J8,2*%
%TO.N,Net-(J1-Pad1)*%
X106640000Y-129540000D03*
%TO.P,J8,1*%
%TO.N,VCC*%
%TA.AperFunction,ComponentPad*%
G36*
G01*
X103290000Y-130265000D02*
X103290000Y-128815000D01*
G75*
G02*
X103540000Y-128565000I250000J0D01*
G01*
X104740000Y-128565000D01*
G75*
G02*
X104990000Y-128815000I0J-250000D01*
G01*
X104990000Y-130265000D01*
G75*
G02*
X104740000Y-130515000I-250000J0D01*
G01*
X103540000Y-130515000D01*
G75*
G02*
X103290000Y-130265000I0J250000D01*
G01*
G37*
%TD.AperFunction*%
%TD*%
D14*
%TO.P,J6,2*%
%TO.N,Net-(J5-Pad1)*%
X139700000Y-118840000D03*
%TO.P,J6,1*%
%TO.N,Net-(J6-Pad1)*%
%TA.AperFunction,ComponentPad*%
G36*
G01*
X139074999Y-116240000D02*
X140325001Y-116240000D01*
G75*
G02*
X140575000Y-116489999I0J-249999D01*
G01*
X140575000Y-117190001D01*
G75*
G02*
X140325001Y-117440000I-249999J0D01*
G01*
X139074999Y-117440000D01*
G75*
G02*
X138825000Y-117190001I0J249999D01*
G01*
X138825000Y-116489999D01*
G75*
G02*
X139074999Y-116240000I249999J0D01*
G01*
G37*
%TD.AperFunction*%
%TD*%
%TO.P,J5,2*%
%TO.N,Net-(J4-Pad1)*%
X127000000Y-118840000D03*
%TO.P,J5,1*%
%TO.N,Net-(J5-Pad1)*%
%TA.AperFunction,ComponentPad*%
G36*
G01*
X126374999Y-116240000D02*
X127625001Y-116240000D01*
G75*
G02*
X127875000Y-116489999I0J-249999D01*
G01*
X127875000Y-117190001D01*
G75*
G02*
X127625001Y-117440000I-249999J0D01*
G01*
X126374999Y-117440000D01*
G75*
G02*
X126125000Y-117190001I0J249999D01*
G01*
X126125000Y-116489999D01*
G75*
G02*
X126374999Y-116240000I249999J0D01*
G01*
G37*
%TD.AperFunction*%
%TD*%
%TO.P,J4,2*%
%TO.N,Net-(J3-Pad1)*%
X114300000Y-118840000D03*
%TO.P,J4,1*%
%TO.N,Net-(J4-Pad1)*%
%TA.AperFunction,ComponentPad*%
G36*
G01*
X113674999Y-116240000D02*
X114925001Y-116240000D01*
G75*
G02*
X115175000Y-116489999I0J-249999D01*
G01*
X115175000Y-117190001D01*
G75*
G02*
X114925001Y-117440000I-249999J0D01*
G01*
X113674999Y-117440000D01*
G75*
G02*
X113425000Y-117190001I0J249999D01*
G01*
X113425000Y-116489999D01*
G75*
G02*
X113674999Y-116240000I249999J0D01*
G01*
G37*
%TD.AperFunction*%
%TD*%
%TO.P,J3,2*%
%TO.N,Net-(J2-Pad1)*%
X101600000Y-118840000D03*
%TO.P,J3,1*%
%TO.N,Net-(J3-Pad1)*%
%TA.AperFunction,ComponentPad*%
G36*
G01*
X100974999Y-116240000D02*
X102225001Y-116240000D01*
G75*
G02*
X102475000Y-116489999I0J-249999D01*
G01*
X102475000Y-117190001D01*
G75*
G02*
X102225001Y-117440000I-249999J0D01*
G01*
X100974999Y-117440000D01*
G75*
G02*
X100725000Y-117190001I0J249999D01*
G01*
X100725000Y-116489999D01*
G75*
G02*
X100974999Y-116240000I249999J0D01*
G01*
G37*
%TD.AperFunction*%
%TD*%
%TO.P,J2,2*%
%TO.N,Net-(J1-Pad1)*%
X88900000Y-118840000D03*
%TO.P,J2,1*%
%TO.N,Net-(J2-Pad1)*%
%TA.AperFunction,ComponentPad*%
G36*
G01*
X88274999Y-116240000D02*
X89525001Y-116240000D01*
G75*
G02*
X89775000Y-116489999I0J-249999D01*
G01*
X89775000Y-117190001D01*
G75*
G02*
X89525001Y-117440000I-249999J0D01*
G01*
X88274999Y-117440000D01*
G75*
G02*
X88025000Y-117190001I0J249999D01*
G01*
X88025000Y-116489999D01*
G75*
G02*
X88274999Y-116240000I249999J0D01*
G01*
G37*
%TD.AperFunction*%
%TD*%
%TO.P,J1,2*%
%TO.N,VCC*%
X76200000Y-118840000D03*
%TO.P,J1,1*%
%TO.N,Net-(J1-Pad1)*%
%TA.AperFunction,ComponentPad*%
G36*
G01*
X75574999Y-116240000D02*
X76825001Y-116240000D01*
G75*
G02*
X77075000Y-116489999I0J-249999D01*
G01*
X77075000Y-117190001D01*
G75*
G02*
X76825001Y-117440000I-249999J0D01*
G01*
X75574999Y-117440000D01*
G75*
G02*
X75325000Y-117190001I0J249999D01*
G01*
X75325000Y-116489999D01*
G75*
G02*
X75574999Y-116240000I249999J0D01*
G01*
G37*
%TD.AperFunction*%
%TD*%
D15*
%TO.N,VCC*%
X74140000Y-121000010D02*
X76200000Y-118940010D01*
X74140000Y-144780000D02*
X74140000Y-121000010D01*
X76200000Y-119076283D02*
X76200000Y-118940010D01*
X86663717Y-129540000D02*
X76200000Y-119076283D01*
X104140000Y-129540000D02*
X86663717Y-129540000D01*
%TO.N,Net-(J1-Pad1)*%
X106640000Y-134660000D02*
X106640000Y-129540000D01*
X99060000Y-142240000D02*
X106640000Y-134660000D01*
D16*
X79075000Y-118840000D02*
X88900000Y-118840000D01*
X77075000Y-116840000D02*
X79075000Y-118840000D01*
X76200000Y-116840000D02*
X77075000Y-116840000D01*
D15*
X106640000Y-128664374D02*
X104975626Y-127000000D01*
X106640000Y-129540000D02*
X106640000Y-128664374D01*
X96520000Y-127000000D02*
X88900000Y-119380000D01*
X104975626Y-127000000D02*
X96520000Y-127000000D01*
%TO.N,Net-(J2-Pad1)*%
X109140000Y-137240000D02*
X109140000Y-129540000D01*
X104140000Y-142240000D02*
X109140000Y-137240000D01*
D16*
X88900000Y-116840000D02*
X91440000Y-116840000D01*
X93440000Y-118840000D02*
X101600000Y-118840000D01*
X91440000Y-116840000D02*
X93440000Y-118840000D01*
D15*
X101600000Y-119025000D02*
X101600000Y-118940010D01*
X109140000Y-126565000D02*
X101600000Y-119025000D01*
X109140000Y-129540000D02*
X109140000Y-126565000D01*
%TO.N,Net-(J3-Pad1)*%
X111640000Y-139820000D02*
X111640000Y-129540000D01*
X109220000Y-142240000D02*
X111640000Y-139820000D01*
D16*
X101600000Y-116840000D02*
X104140000Y-116840000D01*
X104140000Y-116840000D02*
X106140000Y-118840000D01*
D15*
X111640000Y-119260000D02*
X111220000Y-118840000D01*
X111640000Y-129540000D02*
X111640000Y-119260000D01*
D16*
X111220000Y-118840000D02*
X114300000Y-118840000D01*
X106140000Y-118840000D02*
X111220000Y-118840000D01*
D15*
%TO.N,Net-(J4-Pad1)*%
X114300000Y-129700000D02*
X114140000Y-129540000D01*
X114300000Y-142240000D02*
X114300000Y-129700000D01*
D16*
X114300000Y-116840000D02*
X116840000Y-116840000D01*
X118840000Y-118840000D02*
X127000000Y-118840000D01*
X116840000Y-116840000D02*
X118840000Y-118840000D01*
D15*
X114140000Y-123540000D02*
X118840000Y-118840000D01*
X114140000Y-129540000D02*
X114140000Y-123540000D01*
%TO.N,Net-(J5-Pad1)*%
X116640000Y-139500000D02*
X116640000Y-129540000D01*
X119380000Y-142240000D02*
X116640000Y-139500000D01*
D16*
X127000000Y-116840000D02*
X129540000Y-116840000D01*
X129540000Y-116840000D02*
X131540000Y-118840000D01*
D15*
X139599990Y-118940010D02*
X138830148Y-118940010D01*
X131540000Y-127000000D02*
X139599990Y-118940010D01*
D16*
X138730138Y-118840000D02*
X131540000Y-118840000D01*
D15*
X118568717Y-127000000D02*
X131540000Y-127000000D01*
X116640000Y-128928717D02*
X118568717Y-127000000D01*
X116640000Y-129540000D02*
X116640000Y-128928717D01*
D16*
%TO.N,Net-(J6-Pad1)*%
X119140000Y-129540000D02*
X119380000Y-129540000D01*
D15*
X119140000Y-136920000D02*
X119140000Y-129540000D01*
X124460000Y-142240000D02*
X119140000Y-136920000D01*
D16*
X140575000Y-116840000D02*
X142240000Y-118505000D01*
X139700000Y-116840000D02*
X140575000Y-116840000D01*
D15*
X132211293Y-129540000D02*
X119140000Y-129540000D01*
X142240000Y-119511293D02*
X132211293Y-129540000D01*
X142240000Y-118505000D02*
X142240000Y-119511293D01*
%TD*%
M02*
